SplineFontDB: 3.2
FontName: CMUSerifMono-BoldItalic
FullName: CMU Serif Mono Bold Italic
FamilyName: CMU Serif Mono Bold
Weight: Bold
Copyright: An edit of CMU Serif Bold Italic and some AMS glyphs to be compatible with JuliaMono
Version: 0.044; ttfautohint (v1.8.4)
ItalicAngle: -9
UnderlinePosition: -250
UnderlineWidth: 100
Ascent: 1600
Descent: 400
InvalidEm: 0
sfntRevision: 0x00000b43
LayerCount: 2
Layer: 0 1 "Back" 1
Layer: 1 1 "Fore" 0
XUID: [1021 821 -1512940191 1964]
StyleMap: 0x0001
FSType: 0
OS2Version: 4
OS2_WeightWidthSlopeOnly: 0
OS2_UseTypoMetrics: 1
CreationTime: 1643970042
ModificationTime: 1658264784
PfmFamily: 17
TTFWeight: 400
TTFWidth: 5
LineGap: 0
VLineGap: 0
Panose: 2 11 6 9 6 3 0 2 0 4
OS2TypoAscent: 1900
OS2TypoAOffset: 0
OS2TypoDescent: -480
OS2TypoDOffset: 0
OS2TypoLinegap: 0
OS2WinAscent: 2400
OS2WinAOffset: 0
OS2WinDescent: 600
OS2WinDOffset: 0
HheadAscent: 1900
HheadAOffset: 0
HheadDescent: -480
HheadDOffset: 0
OS2SubXSize: 1300
OS2SubYSize: 1200
OS2SubXOff: 0
OS2SubYOff: 150
OS2SupXSize: 1300
OS2SupYSize: 1200
OS2SupXOff: 0
OS2SupYOff: 700
OS2StrikeYSize: 100
OS2StrikeYPos: 1100
OS2CapHeight: 1450
OS2XHeight: 1100
OS2Vendor: 'UKWN'
OS2CodePages: 602801bf.00000000
OS2UnicodeRanges: e501ffff.fac5ffff.0f04e877.05c0a06c
Lookup: 1 0 0 "'aalt' Access All Alternates lookup 0" { "'aalt' Access All Alternates lookup 0 subtable"  } ['aalt' ('DFLT' <'dflt' > 'cyrl' <'BGR ' 'SRB ' 'dflt' > 'hebr' <'IWR ' 'dflt' > 'latn' <'AZE ' 'CAT ' 'CRT ' 'KAZ ' 'MOL ' 'NLD ' 'ROM ' 'TAT ' 'TRK ' 'dflt' > ) ]
Lookup: 3 0 0 "'aalt' Access All Alternates lookup 1" { "'aalt' Access All Alternates lookup 1 subtable"  } ['aalt' ('DFLT' <'dflt' > 'cyrl' <'BGR ' 'SRB ' 'dflt' > 'hebr' <'IWR ' 'dflt' > 'latn' <'AZE ' 'CAT ' 'CRT ' 'KAZ ' 'MOL ' 'NLD ' 'ROM ' 'TAT ' 'TRK ' 'dflt' > ) ]

StartChar: A
Encoding: 65 65 0
Width: 1200
GlyphClass: 2
Flags: W
AnchorPoint: "Anchor-36" 579 1452 basechar 0
AnchorPoint: "Anchor-35" 761 1450 basechar 0
AnchorPoint: "Anchor-34" 897 0 basechar 0
AnchorPoint: "Anchor-33" 501 0 basechar 0
LayerCount: 2
Fore
SplineSet
583 1450 m 1,0,-1
 935 1450 l 1,1,-1
 1021 0 l 1,2,-1
 769 0 l 1,3,-1
 745 342 l 1,4,-1
 363 342 l 1,5,-1
 223 0 l 1,6,-1
 -17 0 l 1,7,-1
 583 1450 l 1,0,-1
747 550 m 1,8,-1
 729 1204 l 1,9,-1
 705 1204 l 1,10,-1
 457 550 l 1,11,-1
 747 550 l 1,8,-1
EndSplineSet
Substitution2: "Single Substitution lookup 63 subtable" ordfeminine
Substitution2: "'fwid' Full Widths lookup 32 subtable" uniFF21
Substitution2: "'c2sc' Capitals to Small Capitals lookup 26 subtable" a.sc
AlternateSubs2: "'aalt' Access All Alternates lookup 1 subtable" ordfeminine a.sc uniFF21
EndChar

StartChar: B
Encoding: 66 66 1
Width: 1200
GlyphClass: 2
Flags: W
AnchorPoint: "Anchor-35" 752 1448 basechar 0
AnchorPoint: "Anchor-33" 501 0 basechar 0
LayerCount: 2
Fore
SplineSet
277 1450 m 1,0,-1
 669 1450 l 2,1,2
 853 1450 853 1450 960 1371.5 c 128,-1,3
 1067 1293 1067 1293 1067 1140 c 0,4,5
 1067 1103 1067 1103 1059 1055 c 0,6,7
 1044 968 1044 968 1014 911 c 128,-1,8
 984 854 984 854 938 819.5 c 128,-1,9
 892 785 892 785 823 760 c 1,10,11
 928 745 928 745 998.5 675 c 128,-1,12
 1069 605 1069 605 1069 473 c 0,13,14
 1069 430 1069 430 1060 379 c 0,15,16
 1024 174 1024 174 867.5 87 c 128,-1,17
 711 0 711 0 485 0 c 2,18,-1
 21 0 l 1,19,-1
 277 1450 l 1,0,-1
475 200 m 2,20,21
 593 200 593 200 681 248 c 128,-1,22
 769 296 769 296 793 433 c 0,23,24
 798 458 798 458 798 488 c 0,25,26
 798 576 798 576 741.5 609 c 128,-1,27
 685 642 685 642 590 642 c 2,28,-1
 388 642 l 1,29,-1
 310 200 l 1,30,-1
 475 200 l 2,20,21
531 838 m 2,31,32
 768 838 768 838 809 1063 c 0,33,34
 813 1086 813 1086 813 1110 c 0,35,36
 813 1181 813 1181 769 1212.5 c 128,-1,37
 725 1244 725 1244 642 1244 c 2,38,-1
 492 1244 l 1,39,-1
 421 838 l 1,40,-1
 531 838 l 2,31,32
EndSplineSet
Substitution2: "'fwid' Full Widths lookup 32 subtable" uniFF22
Substitution2: "'c2sc' Capitals to Small Capitals lookup 26 subtable" b.sc
AlternateSubs2: "'aalt' Access All Alternates lookup 1 subtable" b.sc uniFF22
EndChar

StartChar: C
Encoding: 67 67 2
Width: 1200
GlyphClass: 2
Flags: W
AnchorPoint: "Anchor-35" 759 1450 basechar 0
AnchorPoint: "Anchor-33" 519 -10 basechar 0
LayerCount: 2
Fore
SplineSet
210.5 105.5 m 128,-1,1
 98 247 98 247 98 494 c 0,2,3
 98 608 98 608 120 731 c 0,4,5
 160 955 160 955 248.5 1120.5 c 128,-1,6
 337 1286 337 1286 478.5 1378 c 128,-1,7
 620 1470 620 1470 811 1470 c 0,8,9
 953 1470 953 1470 1061.5 1416.5 c 128,-1,10
 1170 1363 1170 1363 1234 1255 c 1,11,-1
 1075 1118 l 1,12,13
 1023 1187 1023 1187 963.5 1212.5 c 128,-1,14
 904 1238 904 1238 823 1238 c 0,15,16
 647 1238 647 1238 537 1088.5 c 128,-1,17
 427 939 427 939 384 697 c 0,18,19
 364 585 364 585 364 494 c 0,20,21
 364 194 364 194 604 194 c 0,22,23
 692 194 692 194 776.5 227 c 128,-1,24
 861 260 861 260 924 329 c 1,25,-1
 1039 169 l 1,26,27
 944 64 944 64 824.5 14 c 128,-1,28
 705 -36 705 -36 548 -36 c 0,29,0
 323 -36 323 -36 210.5 105.5 c 128,-1,1
EndSplineSet
Substitution2: "'fwid' Full Widths lookup 32 subtable" uniFF23
Substitution2: "'c2sc' Capitals to Small Capitals lookup 26 subtable" c.sc
AlternateSubs2: "'aalt' Access All Alternates lookup 1 subtable" c.sc uniFF23
EndChar

StartChar: D
Encoding: 68 68 3
Width: 1200
GlyphClass: 2
Flags: W
AnchorPoint: "Anchor-37" 626 700 basechar 0
AnchorPoint: "Anchor-35" 759 1450 basechar 0
AnchorPoint: "Anchor-33" 503 0 basechar 0
LayerCount: 2
Fore
SplineSet
291 1450 m 1,0,-1
 597 1450 l 2,1,2
 784 1450 784 1450 906 1401.5 c 128,-1,3
 1028 1353 1028 1353 1090.5 1245.5 c 128,-1,4
 1153 1138 1153 1138 1153 963 c 0,5,6
 1153 855 1153 855 1129 717 c 0,7,8
 1083 457 1083 457 991 301 c 128,-1,9
 899 145 899 145 742 72.5 c 128,-1,10
 585 0 585 0 341 0 c 2,11,-1
 35 0 l 1,12,-1
 291 1450 l 1,0,-1
392 218 m 2,13,14
 586 218 586 218 696.5 351.5 c 128,-1,15
 807 485 807 485 854 751 c 0,16,17
 873 863 873 863 873 943 c 0,18,19
 873 1086 873 1086 809.5 1159 c 128,-1,20
 746 1232 746 1232 604 1232 c 2,21,-1
 510 1232 l 1,22,-1
 331 218 l 1,23,-1
 392 218 l 2,13,14
EndSplineSet
Substitution2: "'fwid' Full Widths lookup 32 subtable" uniFF24
Substitution2: "'c2sc' Capitals to Small Capitals lookup 26 subtable" d.sc
AlternateSubs2: "'aalt' Access All Alternates lookup 1 subtable" d.sc uniFF24
EndChar

StartChar: E
Encoding: 69 69 4
Width: 1200
GlyphClass: 2
Flags: W
AnchorPoint: "Anchor-36" 301 1450 basechar 0
AnchorPoint: "Anchor-35" 759 1450 basechar 0
AnchorPoint: "Anchor-34" 835 0 basechar 0
AnchorPoint: "Anchor-33" 503 0 basechar 0
LayerCount: 2
Fore
SplineSet
295 1450 m 1,0,-1
 1205 1450 l 1,1,-1
 1166 1230 l 1,2,-1
 516 1230 l 1,3,-1
 451 860 l 1,4,-1
 1069 860 l 1,5,-1
 1030 640 l 1,6,-1
 412 640 l 1,7,-1
 337 218 l 1,8,-1
 1015 218 l 1,9,-1
 977 0 l 1,10,-1
 39 0 l 1,11,-1
 295 1450 l 1,0,-1
EndSplineSet
Substitution2: "'fwid' Full Widths lookup 32 subtable" uniFF25
Substitution2: "'c2sc' Capitals to Small Capitals lookup 26 subtable" e.sc
AlternateSubs2: "'aalt' Access All Alternates lookup 1 subtable" e.sc uniFF25
EndChar

StartChar: F
Encoding: 70 70 5
Width: 1200
GlyphClass: 2
Flags: W
AnchorPoint: "Anchor-35" 755 1450 basechar 0
AnchorPoint: "Anchor-33" 499 0 basechar 0
LayerCount: 2
Fore
SplineSet
297 1450 m 1,0,-1
 1219 1450 l 1,1,-1
 1180 1230 l 1,2,-1
 516 1230 l 1,3,-1
 443 814 l 1,4,-1
 1065 814 l 1,5,-1
 1026 598 l 1,6,-1
 404 598 l 1,7,-1
 299 0 l 1,8,-1
 41 0 l 1,9,-1
 297 1450 l 1,0,-1
EndSplineSet
Substitution2: "'fwid' Full Widths lookup 32 subtable" uniFF26
Substitution2: "'c2sc' Capitals to Small Capitals lookup 26 subtable" f.sc
AlternateSubs2: "'aalt' Access All Alternates lookup 1 subtable" f.sc uniFF26
EndChar

StartChar: G
Encoding: 71 71 6
Width: 1200
GlyphClass: 2
Flags: W
AnchorPoint: "Anchor-35" 753 1474 basechar 0
AnchorPoint: "Anchor-33" 503 0 basechar 0
LayerCount: 2
Fore
SplineSet
218.5 114.5 m 128,-1,1
 116 251 116 251 116 491 c 0,2,3
 116 610 116 610 140 745 c 0,4,5
 200 1086 200 1086 361.5 1280 c 128,-1,6
 523 1474 523 1474 785 1474 c 0,7,8
 940 1474 940 1474 1048.5 1405 c 128,-1,9
 1157 1336 1157 1336 1198 1214 c 1,10,-1
 1011 1100 l 1,11,12
 974 1188 974 1188 918.5 1217 c 128,-1,13
 863 1246 863 1246 796 1246 c 0,14,15
 619 1246 619 1246 525.5 1101.5 c 128,-1,16
 432 957 432 957 389 716 c 0,17,18
 364 573 364 573 364 470 c 0,19,20
 364 338 364 338 410 263 c 128,-1,21
 456 188 456 188 563 188 c 0,22,23
 699 188 699 188 788 298 c 128,-1,24
 877 408 877 408 908 585 c 1,25,-1
 617 576 l 1,26,-1
 651 774 l 1,27,-1
 1153 774 l 1,28,-1
 1017 0 l 1,29,-1
 815 0 l 1,30,-1
 839 120 l 1,31,-1
 828 112 l 1,32,33
 786 47 786 47 709.5 12.5 c 128,-1,34
 633 -22 633 -22 528 -22 c 0,35,0
 321 -22 321 -22 218.5 114.5 c 128,-1,1
EndSplineSet
Substitution2: "'fwid' Full Widths lookup 32 subtable" uniFF27
Substitution2: "'c2sc' Capitals to Small Capitals lookup 26 subtable" g.sc
AlternateSubs2: "'aalt' Access All Alternates lookup 1 subtable" g.sc uniFF27
EndChar

StartChar: H
Encoding: 72 72 7
Width: 1200
GlyphClass: 2
Flags: W
AnchorPoint: "Anchor-39" 957 0 basechar 0
AnchorPoint: "Anchor-37" 631 726 basechar 0
AnchorPoint: "Anchor-36" 249 1450 basechar 0
AnchorPoint: "Anchor-35" 759 1450 basechar 0
AnchorPoint: "Anchor-33" 341 0 basechar 0
LayerCount: 2
Fore
SplineSet
307 1450 m 1,0,-1
 563 1450 l 1,1,-1
 460 870 l 1,2,-1
 854 870 l 1,3,-1
 957 1450 l 1,4,-1
 1213 1450 l 1,5,-1
 957 0 l 1,6,-1
 701 0 l 1,7,-1
 815 644 l 1,8,-1
 421 644 l 1,9,-1
 307 0 l 1,10,-1
 51 0 l 1,11,-1
 307 1450 l 1,0,-1
EndSplineSet
Substitution2: "'fwid' Full Widths lookup 32 subtable" uniFF28
Substitution2: "'c2sc' Capitals to Small Capitals lookup 26 subtable" h.sc
AlternateSubs2: "'aalt' Access All Alternates lookup 1 subtable" h.sc uniFF28
EndChar

StartChar: I
Encoding: 73 73 8
Width: 1200
GlyphClass: 2
Flags: W
AnchorPoint: "Anchor-36" 383 1450 basechar 0
AnchorPoint: "Anchor-35" 759 1452 basechar 0
AnchorPoint: "Anchor-34" 503 0 basechar 0
AnchorPoint: "Anchor-33" 503 0 basechar 0
LayerCount: 2
Fore
SplineSet
173 206 m 1,0,-1
 413 206 l 1,1,-1
 596 1244 l 1,2,-1
 376 1244 l 1,3,-1
 413 1450 l 1,4,-1
 1103 1450 l 1,5,-1
 1066 1244 l 1,6,-1
 852 1244 l 1,7,-1
 669 206 l 1,8,-1
 903 206 l 1,9,-1
 867 0 l 1,10,-1
 137 0 l 1,11,-1
 173 206 l 1,0,-1
EndSplineSet
Substitution2: "'fwid' Full Widths lookup 32 subtable" uniFF29
Substitution2: "'c2sc' Capitals to Small Capitals lookup 26 subtable" i.sc
AlternateSubs2: "'aalt' Access All Alternates lookup 1 subtable" i.sc uniFF29
EndChar

StartChar: J
Encoding: 74 74 9
Width: 1200
GlyphClass: 2
Flags: W
AnchorPoint: "Anchor-35" 783 1450 basechar 0
AnchorPoint: "Anchor-33" 500 -19 basechar 0
LayerCount: 2
Fore
SplineSet
284.5 25.5 m 128,-1,1
 190 71 190 71 138.5 156 c 128,-1,2
 87 241 87 241 87 356 c 0,3,4
 87 402 87 402 96 451 c 1,5,-1
 337 433 l 1,6,7
 332 401 332 401 332 380 c 0,8,9
 332 294 332 294 381 244 c 128,-1,10
 430 194 430 194 512 194 c 0,11,12
 630 194 630 194 703.5 273.5 c 128,-1,13
 777 353 777 353 799 477 c 2,14,-1
 933 1238 l 1,15,-1
 365 1238 l 1,16,-1
 403 1450 l 1,17,-1
 1219 1450 l 1,18,-1
 1044 457 l 2,19,20
 1002 223 1002 223 863 101.5 c 128,-1,21
 724 -20 724 -20 505 -20 c 0,22,0
 379 -20 379 -20 284.5 25.5 c 128,-1,1
EndSplineSet
Substitution2: "'fwid' Full Widths lookup 32 subtable" uniFF2A
Substitution2: "'c2sc' Capitals to Small Capitals lookup 26 subtable" j.sc
AlternateSubs2: "'aalt' Access All Alternates lookup 1 subtable" j.sc uniFF2A
EndChar

StartChar: K
Encoding: 75 75 10
Width: 1200
GlyphClass: 2
Flags: W
AnchorPoint: "Anchor-35" 759 1450 basechar 0
AnchorPoint: "Anchor-33" 503 0 basechar 0
LayerCount: 2
Fore
SplineSet
467 736 m 1,0,-1
 337 0 l 1,1,-1
 85 0 l 1,2,-1
 341 1452 l 1,3,-1
 593 1452 l 1,4,-1
 486 843 l 1,5,-1
 998 1452 l 1,6,-1
 1284 1452 l 1,7,-1
 722 798 l 1,8,-1
 1072 0 l 1,9,-1
 778 0 l 1,10,-1
 467 736 l 1,0,-1
EndSplineSet
Substitution2: "'fwid' Full Widths lookup 32 subtable" uniFF2B
Substitution2: "'c2sc' Capitals to Small Capitals lookup 26 subtable" k.sc
AlternateSubs2: "'aalt' Access All Alternates lookup 1 subtable" k.sc uniFF2B
EndChar

StartChar: L
Encoding: 76 76 11
Width: 1200
GlyphClass: 2
Flags: W
AnchorPoint: "Anchor-38" 1237 1452 basechar 0
AnchorPoint: "Anchor-37" 631 726 basechar 0
AnchorPoint: "Anchor-35" 759 1452 basechar 0
AnchorPoint: "Anchor-33" 509 -20 basechar 0
LayerCount: 2
Fore
SplineSet
313 1452 m 1,0,-1
 573 1452 l 1,1,-1
 356 222 l 1,2,-1
 1028 222 l 1,3,-1
 989 0 l 1,4,-1
 57 0 l 1,5,-1
 313 1452 l 1,0,-1
EndSplineSet
Substitution2: "'fwid' Full Widths lookup 32 subtable" uniFF2C
Substitution2: "'c2sc' Capitals to Small Capitals lookup 26 subtable" l.sc
AlternateSubs2: "'aalt' Access All Alternates lookup 1 subtable" l.sc uniFF2C
EndChar

StartChar: M
Encoding: 77 77 12
Width: 1200
GlyphClass: 2
Flags: W
AnchorPoint: "Anchor-39" 985 0 basechar 0
AnchorPoint: "Anchor-35" 759 1450 basechar 0
AnchorPoint: "Anchor-33" 503 0 basechar 0
LayerCount: 2
Fore
SplineSet
277 1450 m 1,0,-1
 599 1450 l 1,1,-1
 652 860 l 1,2,-1
 915 1450 l 1,3,-1
 1241 1450 l 1,4,-1
 985 0 l 1,5,-1
 741 0 l 1,6,-1
 920 1003 l 1,7,-1
 908 984 l 1,8,-1
 904 973 l 1,9,-1
 634 389 l 1,10,-1
 514 389 l 1,11,-1
 452 973 l 1,12,-1
 451 984 l 1,13,-1
 443 1003 l 1,14,-1
 263 0 l 1,15,-1
 21 0 l 1,16,-1
 277 1450 l 1,0,-1
EndSplineSet
Substitution2: "'fwid' Full Widths lookup 32 subtable" uniFF2D
Substitution2: "'c2sc' Capitals to Small Capitals lookup 26 subtable" m.sc
AlternateSubs2: "'aalt' Access All Alternates lookup 1 subtable" m.sc uniFF2D
EndChar

StartChar: N
Encoding: 78 78 13
Width: 1200
GlyphClass: 2
Flags: W
AnchorPoint: "Anchor-35" 759 1450 basechar 0
AnchorPoint: "Anchor-33" 503 0 basechar 0
LayerCount: 2
Fore
SplineSet
299 1450 m 1,0,-1
 621 1450 l 1,1,-1
 756 618 l 1,2,-1
 785 442 l 1,3,-1
 965 1450 l 1,4,-1
 1215 1450 l 1,5,-1
 959 0 l 1,6,-1
 657 0 l 1,7,-1
 468 990 l 1,8,-1
 291 0 l 1,9,-1
 43 0 l 1,10,-1
 299 1450 l 1,0,-1
EndSplineSet
Substitution2: "'fwid' Full Widths lookup 32 subtable" uniFF2E
Substitution2: "'c2sc' Capitals to Small Capitals lookup 26 subtable" n.sc
AlternateSubs2: "'aalt' Access All Alternates lookup 1 subtable" n.sc uniFF2E
EndChar

StartChar: O
Encoding: 79 79 14
Width: 1200
GlyphClass: 2
Flags: W
AnchorPoint: "Anchor-38" 1030 1378 basechar 0
AnchorPoint: "Anchor-37" 631 726 basechar 0
AnchorPoint: "Anchor-36" 249 1450 basechar 0
AnchorPoint: "Anchor-35" 759 1450 basechar 0
AnchorPoint: "Anchor-34" 497 -10 basechar 0
AnchorPoint: "Anchor-33" 500 -16 basechar 0
LayerCount: 2
Fore
SplineSet
181 113.5 m 128,-1,1
 73 257 73 257 73 506 c 0,2,3
 73 623 73 623 98 767 c 0,4,5
 136 983 136 983 227.5 1141.5 c 128,-1,6
 319 1300 319 1300 452.5 1385 c 128,-1,7
 586 1470 586 1470 747 1470 c 0,8,9
 888 1470 888 1470 988 1409 c 128,-1,10
 1088 1348 1088 1348 1140.5 1232 c 128,-1,11
 1193 1116 1193 1116 1193 953 c 0,12,13
 1193 847 1193 847 1173 737 c 0,14,15
 1111 385 1111 385 946.5 177.5 c 128,-1,16
 782 -30 782 -30 513 -30 c 0,17,0
 289 -30 289 -30 181 113.5 c 128,-1,1
329 494 m 0,19,20
 329 356 329 356 374.5 277 c 128,-1,21
 420 198 420 198 521 198 c 0,22,23
 672 198 672 198 771 353 c 128,-1,24
 870 508 870 508 914 755 c 0,25,26
 932 856 932 856 932 944 c 0,27,28
 932 1085 932 1085 884.5 1166.5 c 128,-1,29
 837 1248 837 1248 740 1248 c 0,30,31
 647 1248 647 1248 568.5 1181 c 128,-1,32
 490 1114 490 1114 434.5 994 c 128,-1,33
 379 874 379 874 351 717 c 0,34,18
 329 593 329 593 329 494 c 0,19,20
EndSplineSet
Substitution2: "Single Substitution lookup 63 subtable" ordmasculine
Substitution2: "'fwid' Full Widths lookup 32 subtable" uniFF2F
Substitution2: "'c2sc' Capitals to Small Capitals lookup 26 subtable" o.sc
AlternateSubs2: "'aalt' Access All Alternates lookup 1 subtable" ordmasculine o.sc uniFF2F
EndChar

StartChar: P
Encoding: 80 80 15
Width: 1200
GlyphClass: 2
Flags: W
AnchorPoint: "Anchor-36" 295 1450 basechar 0
AnchorPoint: "Anchor-35" 759 1450 basechar 0
AnchorPoint: "Anchor-33" 503 0 basechar 0
LayerCount: 2
Fore
SplineSet
287 1450 m 1,0,-1
 751 1450 l 2,1,2
 949 1450 949 1450 1068.5 1373 c 128,-1,3
 1188 1296 1188 1296 1188 1117 c 0,4,5
 1188 1067 1188 1067 1178 1013 c 0,6,7
 1139 791 1139 791 986.5 692.5 c 128,-1,8
 834 594 834 594 623 594 c 2,9,-1
 396 594 l 1,10,-1
 291 0 l 1,11,-1
 31 0 l 1,12,-1
 287 1450 l 1,0,-1
568 806 m 2,13,14
 666 806 666 806 732 821.5 c 128,-1,15
 798 837 798 837 846.5 890 c 128,-1,16
 895 943 895 943 914 1049 c 0,17,18
 919 1082 919 1082 919 1102 c 0,19,20
 919 1187 919 1187 863.5 1216.5 c 128,-1,21
 808 1246 808 1246 708 1246 c 2,22,-1
 511 1246 l 1,23,-1
 433 806 l 1,24,-1
 568 806 l 2,13,14
EndSplineSet
Substitution2: "'fwid' Full Widths lookup 32 subtable" uniFF30
Substitution2: "'c2sc' Capitals to Small Capitals lookup 26 subtable" p.sc
AlternateSubs2: "'aalt' Access All Alternates lookup 1 subtable" p.sc uniFF30
EndChar

StartChar: Q
Encoding: 81 81 16
Width: 1200
GlyphClass: 2
Flags: W
AnchorPoint: "Anchor-38" 1001 1396 basechar 0
AnchorPoint: "Anchor-37" 631 726 basechar 0
AnchorPoint: "Anchor-36" 249 1450 basechar 0
AnchorPoint: "Anchor-35" 762 1456 basechar 0
AnchorPoint: "Anchor-34" 502 -8 basechar 0
AnchorPoint: "Anchor-33" 447 -318 basechar 0
LayerCount: 2
Fore
SplineSet
479 -328 m 128,-1,1
 408 -304 408 -304 379.5 -259.5 c 128,-1,2
 351 -215 351 -215 351 -148 c 0,3,4
 351 -96 351 -96 370 -6 c 1,5,6
 226 35 226 35 157 161 c 128,-1,7
 88 287 88 287 88 483 c 0,8,9
 88 605 88 605 114 753 c 0,10,11
 153 975 153 975 242 1136.5 c 128,-1,12
 331 1298 331 1298 461 1384 c 128,-1,13
 591 1470 591 1470 749 1470 c 0,14,15
 958 1470 958 1470 1067 1335.5 c 128,-1,16
 1176 1201 1176 1201 1176 956 c 0,17,18
 1176 844 1176 844 1154 719 c 0,19,20
 1098 400 1098 400 969.5 210 c 128,-1,21
 841 20 841 20 616 -16 c 1,22,23
 609 -49 609 -49 609 -65 c 0,24,25
 609 -99 609 -99 639 -114.5 c 128,-1,26
 669 -130 669 -130 751 -130 c 2,27,-1
 1044 -130 l 1,28,-1
 995 -352 l 1,29,-1
 673 -352 l 2,30,0
 550 -352 550 -352 479 -328 c 128,-1,1
339 446 m 0,32,33
 339 321 339 321 381 254.5 c 128,-1,34
 423 188 423 188 519 188 c 0,35,36
 675 188 675 188 764 336.5 c 128,-1,37
 853 485 853 485 900 753 c 0,38,39
 921 874 921 874 921 963 c 0,40,41
 921 1098 921 1098 876.5 1175 c 128,-1,42
 832 1252 832 1252 737 1252 c 0,43,44
 644 1252 644 1252 570 1182 c 128,-1,45
 496 1112 496 1112 445.5 992 c 128,-1,46
 395 872 395 872 368 719 c 0,47,31
 339 555 339 555 339 446 c 0,32,33
EndSplineSet
Substitution2: "'fwid' Full Widths lookup 32 subtable" uniFF31
Substitution2: "'c2sc' Capitals to Small Capitals lookup 26 subtable" q.sc
AlternateSubs2: "'aalt' Access All Alternates lookup 1 subtable" q.sc uniFF31
EndChar

StartChar: R
Encoding: 82 82 17
Width: 1200
GlyphClass: 2
Flags: W
AnchorPoint: "Anchor-35" 759 1450 basechar 0
AnchorPoint: "Anchor-33" 503 0 basechar 0
LayerCount: 2
Fore
SplineSet
297 1450 m 1,0,-1
 761 1450 l 2,1,2
 881 1450 881 1450 978 1407 c 128,-1,3
 1075 1364 1075 1364 1131.5 1282 c 128,-1,4
 1188 1200 1188 1200 1188 1088 c 0,5,6
 1188 1051 1188 1051 1180 1005 c 0,7,8
 1155 863 1155 863 1067 766.5 c 128,-1,9
 979 670 979 670 844 626 c 1,10,-1
 1046 -4 l 1,11,-1
 781 -4 l 1,12,-1
 597 592 l 1,13,-1
 403 592 l 1,14,-1
 299 0 l 1,15,-1
 41 0 l 1,16,-1
 297 1450 l 1,0,-1
579 812 m 2,17,18
 725 812 725 812 820.5 868 c 128,-1,19
 916 924 916 924 937 1041 c 0,20,21
 941 1067 941 1067 941 1079 c 0,22,23
 941 1158 941 1158 878.5 1197 c 128,-1,24
 816 1236 816 1236 711 1236 c 2,25,-1
 517 1236 l 1,26,-1
 442 812 l 1,27,-1
 579 812 l 2,17,18
EndSplineSet
Substitution2: "'fwid' Full Widths lookup 32 subtable" uniFF32
Substitution2: "'c2sc' Capitals to Small Capitals lookup 26 subtable" r.sc
AlternateSubs2: "'aalt' Access All Alternates lookup 1 subtable" r.sc uniFF32
EndChar

StartChar: S
Encoding: 83 83 18
Width: 1200
GlyphClass: 2
Flags: W
AnchorPoint: "Anchor-35" 760 1458 basechar 0
AnchorPoint: "Anchor-33" 503 2 basechar 0
LayerCount: 2
Fore
SplineSet
513 202 m 0,1,2
 636 202 636 202 722 259 c 128,-1,3
 808 316 808 316 828 423 c 0,4,5
 831 441 831 441 831 456 c 0,6,7
 831 500 831 500 807 529 c 128,-1,8
 783 558 783 558 745 576.5 c 128,-1,9
 707 595 707 595 637 620 c 0,10,11
 570 645 570 645 515 669 c 0,12,13
 371 724 371 724 288 804.5 c 128,-1,14
 205 885 205 885 205 1010 c 0,15,16
 205 1037 205 1037 212 1081 c 0,17,18
 233 1201 233 1201 311.5 1289 c 128,-1,19
 390 1377 390 1377 509.5 1423.5 c 128,-1,20
 629 1470 629 1470 771 1470 c 0,21,22
 876 1470 876 1470 954.5 1444 c 128,-1,23
 1033 1418 1033 1418 1093.5 1370.5 c 128,-1,24
 1154 1323 1154 1323 1211 1250 c 1,25,-1
 1033 1116 l 1,26,27
 973 1187 973 1187 907 1222.5 c 128,-1,28
 841 1258 841 1258 752 1258 c 0,29,30
 682 1258 682 1258 618 1235 c 128,-1,31
 554 1212 554 1212 509.5 1166 c 128,-1,32
 465 1120 465 1120 453 1055 c 0,33,34
 450 1040 450 1040 450 1027 c 0,35,36
 450 975 450 975 485 938.5 c 128,-1,37
 520 902 520 902 573 877.5 c 128,-1,38
 626 853 626 853 718 820 c 0,39,40
 838 776 838 776 910.5 739 c 128,-1,41
 983 702 983 702 1035 638 c 128,-1,42
 1087 574 1087 574 1087 476 c 0,43,44
 1087 443 1087 443 1081 407 c 0,45,46
 1058 277 1058 277 979 181 c 128,-1,47
 900 85 900 85 778.5 33.5 c 128,-1,48
 657 -18 657 -18 509 -18 c 0,49,50
 340 -18 340 -18 226 57.5 c 128,-1,51
 112 133 112 133 27 259 c 1,52,-1
 211 394 l 1,53,0
 357 202 357 202 513 202 c 0,1,2
EndSplineSet
Substitution2: "'fwid' Full Widths lookup 32 subtable" uniFF33
Substitution2: "'c2sc' Capitals to Small Capitals lookup 26 subtable" s.sc
AlternateSubs2: "'aalt' Access All Alternates lookup 1 subtable" s.sc uniFF33
EndChar

StartChar: T
Encoding: 84 84 19
Width: 1200
GlyphClass: 2
Flags: W
AnchorPoint: "Anchor-37" 626 700 basechar 0
AnchorPoint: "Anchor-36" 243 1450 basechar 0
AnchorPoint: "Anchor-35" 759 1450 basechar 0
AnchorPoint: "Anchor-33" 503 0 basechar 0
LayerCount: 2
Fore
SplineSet
590 1222 m 1,0,-1
 202 1222 l 1,1,-1
 243 1450 l 1,2,-1
 1275 1450 l 1,3,-1
 1234 1222 l 1,4,-1
 848 1222 l 1,5,-1
 633 0 l 1,6,-1
 375 0 l 1,7,-1
 590 1222 l 1,0,-1
EndSplineSet
Substitution2: "'fwid' Full Widths lookup 32 subtable" uniFF34
Substitution2: "'c2sc' Capitals to Small Capitals lookup 26 subtable" t.sc
AlternateSubs2: "'aalt' Access All Alternates lookup 1 subtable" t.sc uniFF34
EndChar

StartChar: U
Encoding: 85 85 20
Width: 1200
GlyphClass: 2
Flags: W
AnchorPoint: "Anchor-38" 1247 1452 basechar 0
AnchorPoint: "Anchor-35" 759 1454 basechar 0
AnchorPoint: "Anchor-34" 575 20 basechar 0
AnchorPoint: "Anchor-33" 503 0 basechar 0
LayerCount: 2
Fore
SplineSet
197 74 m 128,-1,1
 98 170 98 170 98 370 c 0,2,3
 98 469 98 469 121 599 c 2,4,-1
 271 1452 l 1,5,-1
 525 1452 l 1,6,-1
 373 591 l 2,7,8
 351 464 351 464 351 390 c 0,9,10
 351 286 351 286 393 242 c 128,-1,11
 435 198 435 198 531 198 c 0,12,13
 621 198 621 198 680 240 c 128,-1,14
 739 282 739 282 777.5 371 c 128,-1,15
 816 460 816 460 842 609 c 2,16,-1
 991 1452 l 1,17,-1
 1247 1452 l 1,18,-1
 1094 581 l 2,19,20
 1055 362 1055 362 992.5 233 c 128,-1,21
 930 104 930 104 816.5 41 c 128,-1,22
 703 -22 703 -22 514 -22 c 0,23,0
 296 -22 296 -22 197 74 c 128,-1,1
EndSplineSet
Substitution2: "'fwid' Full Widths lookup 32 subtable" uniFF35
Substitution2: "'c2sc' Capitals to Small Capitals lookup 26 subtable" u.sc
AlternateSubs2: "'aalt' Access All Alternates lookup 1 subtable" u.sc uniFF35
EndChar

StartChar: V
Encoding: 86 86 21
Width: 1200
GlyphClass: 2
Flags: W
AnchorPoint: "Anchor-35" 759 1450 basechar 0
AnchorPoint: "Anchor-33" 503 0 basechar 0
LayerCount: 2
Fore
SplineSet
247 1450 m 1,0,-1
 505 1450 l 1,1,-1
 565 358 l 1,2,-1
 1009 1450 l 1,3,-1
 1273 1450 l 1,4,-1
 633 0 l 1,5,-1
 373 0 l 1,6,-1
 247 1450 l 1,0,-1
EndSplineSet
Substitution2: "'fwid' Full Widths lookup 32 subtable" uniFF36
Substitution2: "'c2sc' Capitals to Small Capitals lookup 26 subtable" v.sc
AlternateSubs2: "'aalt' Access All Alternates lookup 1 subtable" v.sc uniFF36
EndChar

StartChar: W
Encoding: 87 87 22
Width: 1200
GlyphClass: 2
Flags: W
AnchorPoint: "Anchor-35" 759 1450 basechar 0
AnchorPoint: "Anchor-33" 503 0 basechar 0
LayerCount: 2
Fore
SplineSet
233 1450 m 1,0,-1
 460 1450 l 1,1,-1
 349 448 l 1,2,-1
 387 452 l 1,3,-1
 623 1098 l 1,4,-1
 769 1098 l 1,5,-1
 777 452 l 1,6,-1
 813 448 l 1,7,-1
 1052 1450 l 1,8,-1
 1281 1450 l 1,9,-1
 898 0 l 1,10,-1
 608 0 l 1,11,-1
 621 552 l 1,12,-1
 618 584 l 1,13,-1
 595 584 l 1,14,-1
 583 552 l 1,15,-1
 388 0 l 1,16,-1
 102 0 l 1,17,-1
 233 1450 l 1,0,-1
EndSplineSet
Substitution2: "'fwid' Full Widths lookup 32 subtable" uniFF37
Substitution2: "'c2sc' Capitals to Small Capitals lookup 26 subtable" w.sc
AlternateSubs2: "'aalt' Access All Alternates lookup 1 subtable" w.sc uniFF37
EndChar

StartChar: X
Encoding: 88 88 23
Width: 1200
GlyphClass: 2
Flags: W
AnchorPoint: "Anchor-39" 879 -70 basechar 0
AnchorPoint: "Anchor-35" 759 1450 basechar 0
AnchorPoint: "Anchor-33" 503 0 basechar 0
LayerCount: 2
Fore
SplineSet
463 758 m 1,0,-1
 277 1450 l 1,1,-1
 544 1450 l 1,2,-1
 663 980 l 1,3,-1
 964 1450 l 1,4,-1
 1229 1450 l 1,5,-1
 805 770 l 1,6,-1
 1006 0 l 1,7,-1
 738 0 l 1,8,-1
 602 546 l 1,9,-1
 272 0 l 1,10,-1
 -4 0 l 1,11,-1
 463 758 l 1,0,-1
EndSplineSet
Substitution2: "'fwid' Full Widths lookup 32 subtable" uniFF38
Substitution2: "'c2sc' Capitals to Small Capitals lookup 26 subtable" x.sc
AlternateSubs2: "'aalt' Access All Alternates lookup 1 subtable" x.sc uniFF38
EndChar

StartChar: Y
Encoding: 89 89 24
Width: 1200
GlyphClass: 2
Flags: W
AnchorPoint: "Anchor-36" 257 1450 basechar 0
AnchorPoint: "Anchor-35" 759 1450 basechar 0
AnchorPoint: "Anchor-33" 503 0 basechar 0
LayerCount: 2
Fore
SplineSet
466 558 m 1,0,-1
 249 1450 l 1,1,-1
 526 1450 l 1,2,-1
 650 836 l 1,3,-1
 992 1450 l 1,4,-1
 1273 1450 l 1,5,-1
 744 558 l 1,6,-1
 643 0 l 1,7,-1
 365 0 l 1,8,-1
 466 558 l 1,0,-1
EndSplineSet
Substitution2: "'fwid' Full Widths lookup 32 subtable" uniFF39
Substitution2: "'c2sc' Capitals to Small Capitals lookup 26 subtable" y.sc
AlternateSubs2: "'aalt' Access All Alternates lookup 1 subtable" y.sc uniFF39
EndChar

StartChar: Z
Encoding: 90 90 25
Width: 1200
GlyphClass: 2
Flags: W
AnchorPoint: "Anchor-37" 629 714 basechar 0
AnchorPoint: "Anchor-35" 759 1450 basechar 0
AnchorPoint: "Anchor-33" 503 0 basechar 0
LayerCount: 2
Fore
SplineSet
44 224 m 1,0,-1
 874 1212 l 1,1,-1
 251 1212 l 1,2,-1
 293 1450 l 1,3,-1
 1233 1450 l 1,4,-1
 1193 1208 l 1,5,-1
 374 228 l 1,6,-1
 1047 228 l 1,7,-1
 1007 0 l 1,8,-1
 7 0 l 1,9,-1
 44 224 l 1,0,-1
EndSplineSet
Substitution2: "'fwid' Full Widths lookup 32 subtable" uniFF3A
Substitution2: "'c2sc' Capitals to Small Capitals lookup 26 subtable" z.sc
AlternateSubs2: "'aalt' Access All Alternates lookup 1 subtable" z.sc uniFF3A
EndChar

StartChar: a
Encoding: 97 97 26
Width: 1200
VWidth: 2048
GlyphClass: 2
Flags: W
LayerCount: 2
Fore
SplineSet
93 307 m 4,0,1
 93 457 93 457 160.5 599 c 132,-1,2
 228 741 228 741 358 837.5 c 132,-1,3
 488 934 488 934 646 934 c 4,4,5
 763 934 763 934 847 852 c 5,6,7
 892 891 892 891 939 891 c 4,8,9
 976 891 976 891 1003.5 868.5 c 132,-1,10
 1031 846 1031 846 1031 805 c 4,11,12
 1031 780 1031 780 952 472 c 132,-1,13
 873 164 873 164 873 117 c 4,14,15
 873 54 873 54 912 53 c 4,16,17
 980 53 980 53 1037 283 c 4,18,19
 1043 312 1043 312 1053.5 322 c 132,-1,20
 1064 332 1064 332 1094 332 c 6,21,-1
 1103 332 l 6,22,23
 1156 332 1156 332 1156 297 c 4,24,25
 1154 285 1154 285 1149 263.5 c 132,-1,26
 1144 242 1144 242 1124.5 186.5 c 132,-1,27
 1105 131 1105 131 1078 89 c 132,-1,28
 1051 47 1051 47 1004 12 c 132,-1,29
 957 -23 957 -23 900 -23 c 4,30,31
 763 -23 763 -23 691 84 c 5,32,33
 564 -22 564 -22 421 -23 c 4,34,35
 282 -23 282 -23 187.5 60 c 132,-1,36
 93 143 93 143 93 307 c 4,0,1
314 199 m 4,37,38
 314 121 314 121 350 87 c 132,-1,39
 386 53 386 53 431 53 c 4,40,41
 507 53 507 53 574.5 105.5 c 132,-1,42
 642 158 642 158 662 199 c 4,43,44
 666 207 666 207 729.5 460 c 132,-1,45
 793 713 793 713 793 725 c 4,46,47
 793 762 793 762 755.5 810 c 132,-1,48
 718 858 718 858 646 858 c 4,49,50
 535 858 535 858 458 731 c 4,51,52
 411 649 411 649 362.5 465 c 132,-1,53
 314 281 314 281 314 199 c 4,37,38
EndSplineSet
Substitution2: "Single Substitution lookup 63 subtable" ordfeminine
Substitution2: "'ss06' Style Set 6 lookup 46 subtable" a.alternate
Substitution2: "'fwid' Full Widths lookup 32 subtable" uniFF41
Substitution2: "'smcp' Lowercase to Small Capitals lookup 27 subtable" a.sc
Substitution2: "'sinf' Scientific Inferiors lookup 14 subtable" uni2090
Substitution2: "'subs' Subscript lookup 13 subtable" uni2090
AlternateSubs2: "'aalt' Access All Alternates lookup 1 subtable" uni2090 ordfeminine a.sc uniFF41 a.alternate
EndChar

StartChar: b
Encoding: 98 98 27
Width: 1200
VWidth: 2048
GlyphClass: 2
InSpiro: 1
Flags: W
LayerCount: 2
Fore
SplineSet
174 301 m 0,0,1
 174 391 174 391 205 506 c 2,2,-1
 346 1065 l 2,3,4
 391 1243 391 1243 406 1303 c 1,5,6
 388 1305 388 1305 362 1305 c 128,-1,7
 336 1305 336 1305 321.5 1306 c 128,-1,8
 307 1307 307 1307 292 1311 c 128,-1,9
 277 1315 277 1315 270.5 1324 c 128,-1,10
 264 1333 264 1333 264 1350 c 0,11,12
 264 1391 264 1391 298 1400 c 128,-1,13
 332 1409 332 1409 461 1415 c 0,14,15
 533 1419 533 1419 578 1421 c 2,16,-1
 594 1421 l 2,17,18
 641 1421 641 1421 641 1382 c 0,19,20
 641 1362 641 1362 635 1343 c 2,21,-1
 518 874 l 1,22,23
 624 933 624 933 721 934 c 0,24,25
 764 934 764 934 805 926 c 128,-1,26
 846 918 846 918 891 894 c 128,-1,27
 936 870 936 870 971 834.5 c 128,-1,28
 1006 799 1006 799 1027.5 739.5 c 128,-1,29
 1049 680 1049 680 1049 604 c 0,30,31
 1049 461 1049 461 985.5 320.5 c 128,-1,32
 922 180 922 180 790 78.5 c 128,-1,33
 658 -23 658 -23 492 -23 c 0,34,35
 349 -23 349 -23 261.5 61 c 128,-1,36
 174 145 174 145 174 301 c 0,0,1
  Spiro
    174 301 o
    181.75 397.25 o
    205 506 [
    346 1065 ]
    383.5 1213.5 o
    406 1303 v
    386 1304.5 o
    362 1305 o
    338.875 1305.25 o
    321.5 1306 o
    306.875 1307.75 o
    292 1311 o
    279.125 1316.25 o
    270.5 1324 o
    265.625 1335 o
    264 1350 o
    272.5 1383 o
    298 1400 o
    355.75 1408.25 o
    461 1415 o
    526.25 1418.5 o
    578 1421 [
    594 1421 ]
    629.25 1411.25 o
    641 1382 o
    639.5 1362.25 o
    635 1343 [
    518 874 v
    621.75 918.5 o
    721 934 o
    763.5 932 o
    805 926 o
    847 914 o
    891 894 o
    933.5 867.125 o
    971 834.5 o
    1002.62 793 o
    1027.5 739.5 o
    1043.62 675.875 o
    1049 604 o
    1033.12 461.625 o
    985.5 320.5 o
    904.875 189.75 o
    790 78.5 o
    649.5 2.375 o
    492 -23 o
    362.875 -2 o
    261.5 61 o
    195.875 163 o
    0 0 z
  EndSpiro
371 211 m 0,37,38
 371 125 371 125 409 89 c 128,-1,39
 447 53 447 53 496 53 c 0,40,41
 551 53 551 53 602.5 91 c 128,-1,42
 654 129 654 129 682 176 c 0,43,44
 733 258 733 258 780.5 445.5 c 128,-1,45
 828 633 828 633 828 713 c 0,46,47
 828 791 828 791 792 824.5 c 128,-1,48
 756 858 756 858 711 858 c 0,49,50
 635 858 635 858 567.5 806 c 128,-1,51
 500 754 500 754 479 713 c 0,52,53
 473 697 473 697 449.5 607.5 c 128,-1,54
 426 518 426 518 398.5 391 c 128,-1,55
 371 264 371 264 371 211 c 0,37,38
  Spiro
    371 211 o
    380.5 137.5 o
    409 89 o
    449.75 62 o
    496 53 o
    550.125 62.5 o
    602.5 91 o
    648.125 131.25 o
    682 176 o
    732.125 284.375 o
    780.5 445.5 o
    816.125 606.125 o
    828 713 o
    819 779.875 o
    792 824.5 o
    753.75 849.625 o
    711 858 o
    637.125 845 o
    567.5 806 o
    511.625 756.75 o
    479 713 o
    468.625 678.625 o
    449.5 607.5 o
    425 508.625 o
    398.5 391 o
    377.875 282.5 o
    0 0 z
  EndSpiro
EndSplineSet
Substitution2: "'fwid' Full Widths lookup 32 subtable" uniFF42
Substitution2: "'smcp' Lowercase to Small Capitals lookup 27 subtable" b.sc
AlternateSubs2: "'aalt' Access All Alternates lookup 1 subtable" b.sc uniFF42
EndChar

StartChar: c
Encoding: 99 99 28
Width: 1200
VWidth: 2048
GlyphClass: 2
InSpiro: 1
Flags: W
LayerCount: 2
Fore
SplineSet
162 326 m 0,0,1
 162 557 162 557 333 745.5 c 128,-1,2
 504 934 504 934 770 934 c 0,3,4
 885 934 885 934 957.5 879.5 c 128,-1,5
 1030 825 1030 825 1030 737 c 0,6,7
 1030 669 1030 669 987 623.5 c 128,-1,8
 944 578 944 578 883 578 c 0,9,10
 840 578 840 578 811.5 603.5 c 128,-1,11
 783 629 783 629 783 672 c 0,12,13
 783 711 783 711 808.5 753 c 128,-1,14
 834 795 834 795 889 811 c 1,15,16
 842 858 842 858 770 858 c 0,17,18
 657 858 657 858 568 768 c 0,19,20
 505 705 505 705 459.5 571.5 c 128,-1,21
 414 438 414 438 400.5 350 c 128,-1,22
 387 262 387 262 387 231 c 0,23,24
 387 143 387 143 433.5 97 c 128,-1,25
 480 51 480 51 563 51 c 0,26,27
 776 51 776 51 924 197 c 0,28,29
 965 238 965 238 979 238 c 0,30,31
 997 238 997 238 1018 215.5 c 128,-1,32
 1039 193 1039 193 1039 176 c 0,33,34
 1039 164 1039 164 1021.5 141.5 c 128,-1,35
 1004 119 1004 119 965 90 c 128,-1,36
 926 61 926 61 872.5 36.5 c 128,-1,37
 819 12 819 12 736.5 -5.5 c 128,-1,38
 654 -23 654 -23 557 -23 c 0,39,40
 373 -23 373 -23 267.5 68.5 c 128,-1,41
 162 160 162 160 162 326 c 0,0,1
  Spiro
    162 326 o
    204.75 546.375 o
    333 745.5 o
    527.75 886.875 o
    770 934 o
    874.375 920.375 o
    957.5 879.5 o
    1011.88 816.625 o
    1030 737 o
    1019.25 674.625 o
    987 623.5 o
    939.5 589.375 o
    883 578 o
    843.625 584.375 o
    811.5 603.5 o
    790.125 633.375 o
    783 672 o
    789.375 711.75 o
    808.5 753 o
    841.375 788.5 o
    889 811 v
    835.75 846.25 o
    770 858 o
    663 835.5 o
    568 768 o
    509.375 687.375 o
    459.5 571.5 o
    422 449.375 o
    400.5 350 o
    390.375 276.25 o
    387 231 o
    398.625 153.5 o
    433.5 97 o
    489.125 62.5 o
    563 51 o
    759.75 87.5 o
    924 197 o
    958.25 227.75 o
    979 238 o
    997.75 232.375 o
    1018 215.5 o
    1033.75 194.375 o
    1039 176 o
    1034.62 161.375 o
    1021.5 141.5 o
    998.625 117.375 o
    965 90 o
    922.375 62.125 o
    872.5 36.5 o
    811.75 13.75 o
    736.5 -5.5 o
    650.375 -18.625 o
    557 -23 o
    392.625 -0.125 o
    267.5 68.5 o
    188.375 178.625 o
    0 0 z
  EndSpiro
EndSplineSet
Substitution2: "'fwid' Full Widths lookup 32 subtable" uniFF43
Substitution2: "'smcp' Lowercase to Small Capitals lookup 27 subtable" c.sc
AlternateSubs2: "'aalt' Access All Alternates lookup 1 subtable" c.sc uniFF43
EndChar

StartChar: d
Encoding: 100 100 29
Width: 1200
VWidth: 2048
GlyphClass: 2
Flags: W
LayerCount: 2
Fore
SplineSet
59 307 m 4,0,1
 59 457 59 457 126.5 599 c 132,-1,2
 194 741 194 741 324 837.5 c 132,-1,3
 454 934 454 934 612 934 c 4,4,5
 710 934 710 934 796 866 c 5,6,-1
 905 1303 l 5,7,8
 887 1305 887 1305 861 1305 c 132,-1,9
 835 1305 835 1305 822 1306 c 132,-1,10
 809 1307 809 1307 794.5 1311 c 132,-1,11
 780 1315 780 1315 774 1324 c 132,-1,12
 768 1333 768 1333 768 1350 c 4,13,14
 768 1391 768 1391 798.5 1400 c 132,-1,15
 829 1409 829 1409 940 1413 c 4,16,17
 1018 1417 1018 1417 1067 1419 c 4,18,19
 1071 1419 1071 1419 1080 1420 c 132,-1,20
 1089 1421 1089 1421 1093 1421 c 4,21,22
 1142 1421 1142 1421 1142 1380 c 4,23,24
 1142 1368 1142 1368 1138 1352 c 6,25,-1
 864 252 l 6,26,27
 839 162 839 162 839 113 c 4,28,29
 839 54 839 54 878 53 c 4,30,31
 941 53 941 53 1003 283 c 4,32,33
 1009 316 1009 316 1021.5 324 c 132,-1,34
 1034 332 1034 332 1056 332 c 6,35,-1
 1069 332 l 6,36,37
 1122 332 1122 332 1122 301 c 4,38,39
 1122 295 1122 295 1115 264 c 132,-1,40
 1108 233 1108 233 1089.5 183 c 132,-1,41
 1071 133 1071 133 1044 88 c 132,-1,42
 1017 43 1017 43 970 10 c 132,-1,43
 923 -23 923 -23 868 -23 c 4,44,45
 729 -23 729 -23 657 84 c 5,46,47
 526 -22 526 -22 387 -23 c 4,48,49
 334 -23 334 -23 281.5 -7.5 c 132,-1,50
 229 8 229 8 177 42 c 132,-1,51
 125 76 125 76 92 144.5 c 132,-1,52
 59 213 59 213 59 307 c 4,0,1
280 199 m 4,53,54
 280 121 280 121 316 87 c 132,-1,55
 352 53 352 53 397 53 c 4,56,57
 473 53 473 53 540.5 105.5 c 132,-1,58
 608 158 608 158 628 199 c 4,59,60
 632 209 632 209 695.5 461 c 132,-1,61
 759 713 759 713 759 725 c 4,62,63
 759 766 759 766 718 812 c 132,-1,64
 677 858 677 858 612 858 c 4,65,66
 501 858 501 858 424 731 c 4,67,68
 377 649 377 649 328.5 465 c 132,-1,69
 280 281 280 281 280 199 c 4,53,54
EndSplineSet
Substitution2: "'fwid' Full Widths lookup 32 subtable" uniFF44
Substitution2: "'smcp' Lowercase to Small Capitals lookup 27 subtable" d.sc
AlternateSubs2: "'aalt' Access All Alternates lookup 1 subtable" d.sc uniFF44
EndChar

StartChar: e
Encoding: 101 101 30
Width: 1200
VWidth: 2048
GlyphClass: 2
Flags: W
LayerCount: 2
Fore
SplineSet
168 336 m 4,0,1
 168 580 168 580 338 757 c 132,-1,2
 508 934 508 934 770 934 c 4,3,4
 889 934 889 934 963 878.5 c 132,-1,5
 1037 823 1037 823 1037 733 c 4,6,7
 1037 616 1037 616 932 539 c 4,8,9
 807 447 807 447 469 446 c 6,10,-1
 424 446 l 5,11,12
 391 303 391 303 391 240 c 4,13,14
 391 148 391 148 437.5 99.5 c 132,-1,15
 484 51 484 51 565 51 c 4,16,17
 768 51 768 51 918 190 c 4,18,19
 926 198 926 198 935 207.5 c 132,-1,20
 944 217 944 217 949.5 221 c 132,-1,21
 955 225 955 225 960 230.5 c 132,-1,22
 965 236 965 236 969 237 c 132,-1,23
 973 238 973 238 979 238 c 4,24,25
 997 238 997 238 1019 215.5 c 132,-1,26
 1041 193 1041 193 1041 176 c 4,27,28
 1041 164 1041 164 1024.5 141.5 c 132,-1,29
 1008 119 1008 119 969 90 c 132,-1,30
 930 61 930 61 877 36.5 c 132,-1,31
 824 12 824 12 740 -5.5 c 132,-1,32
 656 -23 656 -23 559 -23 c 4,33,34
 377 -23 377 -23 272.5 71.5 c 132,-1,35
 168 166 168 166 168 336 c 4,0,1
445 520 m 5,36,37
 901 520 901 520 901 734 c 4,38,39
 901 790 901 790 864.5 824 c 132,-1,40
 828 858 828 858 770 858 c 4,41,42
 745 858 745 858 717.5 853 c 132,-1,43
 690 848 690 848 648 827.5 c 132,-1,44
 606 807 606 807 570.5 773 c 132,-1,45
 535 739 535 739 500 673.5 c 132,-1,46
 465 608 465 608 445 520 c 5,36,37
EndSplineSet
Substitution2: "'fwid' Full Widths lookup 32 subtable" uniFF45
Substitution2: "'smcp' Lowercase to Small Capitals lookup 27 subtable" e.sc
Substitution2: "'sinf' Scientific Inferiors lookup 14 subtable" uni2091
Substitution2: "'subs' Subscript lookup 13 subtable" uni2091
AlternateSubs2: "'aalt' Access All Alternates lookup 1 subtable" uni2091 e.sc uniFF45
EndChar

StartChar: f
Encoding: 102 102 31
Width: 1200
VWidth: 2048
GlyphClass: 2
Flags: W
LayerCount: 2
Fore
SplineSet
29 -252 m 4,0,1
 29 -189 29 -189 73 -144.5 c 132,-1,2
 117 -100 117 -100 177 -100 c 4,3,4
 220 -100 220 -100 248.5 -126 c 132,-1,5
 277 -152 277 -152 277 -195 c 4,6,7
 277 -287 277 -287 187 -328 c 5,8,9
 232 -346 232 -346 250 -346 c 4,10,11
 313 -346 313 -346 346 -236.5 c 132,-1,12
 379 -127 379 -127 453 279 c 6,13,-1
 551 813 l 5,14,-1
 377 813 l 5,15,-1
 375 811 l 6,16,17
 371 811 371 811 369 811 c 4,18,19
 312 811 312 811 312 854 c 4,20,21
 312 909 312 909 373 909 c 6,22,-1
 568 909 l 5,23,-1
 570 911 l 5,24,25
 617 1224 617 1224 686 1321 c 4,26,27
 729 1380 729 1380 798 1413 c 132,-1,28
 867 1446 867 1446 938 1446 c 4,29,30
 1036 1446 1036 1446 1102 1398 c 132,-1,31
 1168 1350 1168 1350 1168 1276 c 4,32,33
 1168 1206 1168 1206 1123 1165 c 132,-1,34
 1078 1124 1078 1124 1022 1124 c 4,35,36
 979 1124 979 1124 950.5 1150 c 132,-1,37
 922 1176 922 1176 922 1219 c 4,38,39
 922 1307 922 1307 1010 1350 c 5,40,41
 973 1368 973 1368 947 1368 c 4,42,43
 896 1368 896 1368 869 1315 c 4,44,45
 861 1299 861 1299 840.5 1198.5 c 132,-1,46
 820 1098 820 1098 803.5 1005.5 c 132,-1,47
 787 913 787 913 787 909 c 5,48,-1
 1008 909 l 6,49,50
 1065 909 1065 909 1065 868 c 4,51,52
 1065 811 1065 811 1004 811 c 4,53,54
 1002 811 1002 811 1002 812 c 132,-1,55
 1002 813 1002 813 1000 813 c 6,56,-1
 768 813 l 5,57,58
 657 172 657 172 611 -6 c 4,59,60
 578 -127 578 -127 537 -210 c 132,-1,61
 496 -293 496 -293 418 -356 c 4,62,63
 336 -422 336 -422 250 -422 c 4,64,65
 166 -422 166 -422 97.5 -378 c 132,-1,66
 29 -334 29 -334 29 -252 c 4,0,1
EndSplineSet
Substitution2: "Single Substitution lookup 73 subtable" f.alternate
Substitution2: "'fwid' Full Widths lookup 32 subtable" uniFF46
Substitution2: "'smcp' Lowercase to Small Capitals lookup 27 subtable" f.sc
AlternateSubs2: "'aalt' Access All Alternates lookup 1 subtable" f.sc uniFF46 f.alternate
EndChar

StartChar: g
Encoding: 103 103 32
Width: 1200
VWidth: 2048
GlyphClass: 2
Flags: W
LayerCount: 2
Fore
SplineSet
83 -268 m 4,0,1
 83 -207 83 -207 127 -163 c 132,-1,2
 171 -119 171 -119 230 -119 c 4,3,4
 275 -119 275 -119 302 -145.5 c 132,-1,5
 329 -172 329 -172 329 -213 c 4,6,7
 329 -279 329 -279 269 -332 c 5,8,9
 345 -346 345 -346 398 -346 c 4,10,11
 498 -346 498 -346 563 -287.5 c 132,-1,12
 628 -229 628 -229 654 -166 c 4,13,14
 662 -146 662 -146 714 57 c 5,15,16
 614 0 614 0 515 0 c 4,17,18
 365 0 365 0 273 85 c 132,-1,19
 181 170 181 170 181 326 c 4,20,21
 181 555 181 555 337.5 744.5 c 132,-1,22
 494 934 494 934 728 934 c 4,23,24
 851 934 851 934 931 854 c 5,25,26
 976 891 976 891 1023 891 c 4,27,28
 1062 891 1062 891 1088.5 866.5 c 132,-1,29
 1115 842 1115 842 1115 805 c 4,30,31
 1115 787 1115 787 1107 754 c 6,32,-1
 894 -94 l 6,33,34
 886 -131 886 -131 882.5 -142.5 c 132,-1,35
 879 -154 879 -154 862 -193.5 c 132,-1,36
 845 -233 845 -233 825.5 -256 c 132,-1,37
 806 -279 806 -279 766 -310.5 c 132,-1,38
 726 -342 726 -342 673 -367 c 4,39,40
 546 -422 546 -422 400 -422 c 4,41,42
 83 -422 83 -422 83 -268 c 4,0,1
402 219 m 4,43,44
 402 141 402 141 439 108.5 c 132,-1,45
 476 76 476 76 521 76 c 4,46,47
 591 76 591 76 659.5 124 c 132,-1,48
 728 172 728 172 750 215 c 4,49,50
 760 233 760 233 819.5 478 c 132,-1,51
 879 723 879 723 879 731 c 4,52,53
 879 770 879 770 838.5 814 c 132,-1,54
 798 858 798 858 730 858 c 4,55,56
 619 858 619 858 542 733 c 4,57,58
 495 657 495 657 448.5 478 c 132,-1,59
 402 299 402 299 402 219 c 4,43,44
EndSplineSet
Substitution2: "'ss01' Style Set 1 lookup 41 subtable" g.alt
Substitution2: "'fwid' Full Widths lookup 32 subtable" uniFF47
Substitution2: "'smcp' Lowercase to Small Capitals lookup 27 subtable" g.sc
AlternateSubs2: "'aalt' Access All Alternates lookup 1 subtable" g.sc uniFF47 g.alt
EndChar

StartChar: h
Encoding: 104 104 33
Width: 1200
VWidth: 2048
GlyphClass: 2
Flags: W
LayerCount: 2
Fore
SplineSet
44 66 m 4,0,1
 44 84 44 84 58 137 c 6,2,-1
 316 1169 l 6,3,4
 322 1192 322 1192 332.5 1236 c 132,-1,5
 343 1280 343 1280 349 1303 c 5,6,7
 331 1305 331 1305 305 1306 c 132,-1,8
 279 1307 279 1307 264.5 1308 c 132,-1,9
 250 1309 250 1309 236 1312 c 132,-1,10
 222 1315 222 1315 215.5 1324 c 132,-1,11
 209 1333 209 1333 209 1350 c 4,12,13
 209 1389 209 1389 241 1399 c 132,-1,14
 273 1409 273 1409 388 1413 c 4,15,16
 460 1417 460 1417 506 1419 c 4,17,18
 510 1419 510 1419 520.5 1420 c 132,-1,19
 531 1421 531 1421 537 1421 c 4,20,21
 586 1421 586 1421 586 1380 c 4,22,23
 586 1372 586 1372 582 1355.5 c 132,-1,24
 578 1339 578 1339 578 1337 c 6,25,-1
 451 827 l 5,26,27
 576 933 576 933 728 934 c 4,28,29
 845 934 845 934 925.5 880.5 c 132,-1,30
 1006 827 1006 827 1006 700 c 4,31,32
 1006 594 1006 594 922 361.5 c 132,-1,33
 838 129 838 129 838 92 c 4,34,35
 838 53 838 53 869 53 c 4,36,37
 894 53 894 53 919.5 67.5 c 132,-1,38
 945 82 945 82 983.5 138.5 c 132,-1,39
 1022 195 1022 195 1049 287 c 4,40,41
 1055 310 1055 310 1065.5 319 c 132,-1,42
 1076 328 1076 328 1085 330 c 132,-1,43
 1094 332 1094 332 1117 332 c 4,44,45
 1166 332 1166 332 1166 299 c 132,-1,46
 1166 266 1166 266 1134 194.5 c 132,-1,47
 1102 123 1102 123 1025.5 50 c 132,-1,48
 949 -23 949 -23 855 -23 c 4,49,50
 765 -23 765 -23 703.5 28.5 c 132,-1,51
 642 80 642 80 642 162 c 4,52,53
 642 197 642 197 720.5 415 c 132,-1,54
 799 633 799 633 799 745.5 c 132,-1,55
 799 858 799 858 707 858 c 4,56,57
 549 858 549 858 433 684 c 4,58,59
 408 645 408 645 394.5 598 c 132,-1,60
 381 551 381 551 273 117 c 4,61,62
 238 -22 238 -22 138 -23 c 4,63,64
 99 -23 99 -23 71.5 2 c 132,-1,65
 44 27 44 27 44 66 c 4,0,1
EndSplineSet
Substitution2: "'fwid' Full Widths lookup 32 subtable" uniFF48
Substitution2: "'smcp' Lowercase to Small Capitals lookup 27 subtable" h.sc
Substitution2: "'sinf' Scientific Inferiors lookup 14 subtable" uni2095
Substitution2: "'subs' Subscript lookup 13 subtable" uni2095
AlternateSubs2: "'aalt' Access All Alternates lookup 1 subtable" uni2095 h.sc uniFF48
EndChar

StartChar: i
Encoding: 105 105 34
Width: 1200
VWidth: 2048
GlyphClass: 2
Flags: W
LayerCount: 2
Fore
SplineSet
279 612 m 4,0,1
 279 643 279 643 310.5 714.5 c 132,-1,2
 342 786 342 786 420 860 c 132,-1,3
 498 934 498 934 592 934 c 4,4,5
 680 934 680 934 742.5 881.5 c 132,-1,6
 805 829 805 829 805 748 c 4,7,8
 805 699 805 699 695.5 421 c 132,-1,9
 586 143 586 143 586 92 c 4,10,11
 586 53 586 53 619 53 c 4,12,13
 660 53 660 53 697.5 93 c 132,-1,14
 735 133 735 133 754.5 179 c 132,-1,15
 774 225 774 225 790.5 270 c 132,-1,16
 807 315 807 315 809 317 c 4,17,18
 821 331 821 331 852 332 c 6,19,-1
 864 332 l 6,20,21
 913 332 913 332 915 299 c 4,22,23
 915 285 915 285 903 250 c 132,-1,24
 891 215 891 215 864.5 168 c 132,-1,25
 838 121 838 121 803 79 c 132,-1,26
 768 37 768 37 715 7 c 132,-1,27
 662 -23 662 -23 602 -23 c 4,28,29
 518 -23 518 -23 453.5 26.5 c 132,-1,30
 389 76 389 76 389 162 c 4,31,32
 389 211 389 211 498.5 488.5 c 132,-1,33
 608 766 608 766 608 817 c 4,34,35
 608 856 608 856 574 856 c 4,36,37
 523 856 523 856 469 784 c 4,38,39
 438 741 438 741 421 698 c 132,-1,40
 404 655 404 655 399.5 631.5 c 132,-1,41
 395 608 395 608 383 593 c 132,-1,42
 371 578 371 578 342 578 c 6,43,-1
 332 578 l 6,44,45
 331 578 331 578 329 578 c 4,46,47
 279 578 279 578 279 612 c 4,0,1
635 1280 m 4,48,49
 635 1335 635 1335 679 1377 c 132,-1,50
 723 1419 723 1419 778 1419 c 4,51,52
 821 1419 821 1419 850 1390.5 c 132,-1,53
 879 1362 879 1362 879 1321 c 4,54,55
 879 1270 879 1270 836 1226 c 132,-1,56
 793 1182 793 1182 735 1182 c 4,57,58
 692 1182 692 1182 663.5 1209.5 c 132,-1,59
 635 1237 635 1237 635 1280 c 4,48,49
EndSplineSet
Substitution2: "Single Substitution lookup 61 subtable" dotlessi
Substitution2: "'fwid' Full Widths lookup 32 subtable" uniFF49
Substitution2: "'smcp' Lowercase to Small Capitals lookup 27 subtable" i.sc
Substitution2: "'locl' Localized Forms in Latin lookup 7 per glyph data 4" i.loclTRK
Substitution2: "'locl' Localized Forms in Latin lookup 7 per glyph data 3" i.loclTRK
Substitution2: "'locl' Localized Forms in Latin lookup 7 per glyph data 2" i.loclTRK
Substitution2: "'locl' Localized Forms in Latin lookup 7 per glyph data 1" i.loclTRK
Substitution2: "'locl' Localized Forms in Latin lookup 7 per glyph data 0" i.loclTRK
AlternateSubs2: "'aalt' Access All Alternates lookup 1 subtable" i.loclTRK i.sc uniFF49
EndChar

StartChar: j
Encoding: 106 106 35
Width: 1200
VWidth: 2048
GlyphClass: 2
Flags: W
LayerCount: 2
Fore
SplineSet
137 -270 m 4,0,1
 137 -209 137 -209 180 -164 c 132,-1,2
 223 -119 223 -119 282 -119 c 4,3,4
 325 -119 325 -119 354.5 -144.5 c 132,-1,5
 384 -170 384 -170 384 -213 c 4,6,7
 384 -291 384 -291 302 -342 c 5,8,9
 308 -344 308 -344 327 -344 c 4,10,11
 487 -344 487 -344 560 -49 c 6,12,-1
 737 657 l 6,13,14
 762 755 762 755 761 797 c 4,15,16
 761 856 761 856 716 856 c 4,17,18
 667 856 667 856 602.5 804 c 132,-1,19
 538 752 538 752 483 629 c 4,20,21
 469 594 469 594 457.5 586 c 132,-1,22
 446 578 446 578 419 578 c 6,23,-1
 401 578 l 6,24,25
 360 578 360 578 360 608 c 4,26,27
 360 628 360 628 386.5 678.5 c 132,-1,28
 413 729 413 729 457 786.5 c 132,-1,29
 501 844 501 844 575 888 c 132,-1,30
 649 932 649 932 730 932 c 4,31,32
 830 932 830 932 899 875.5 c 132,-1,33
 968 819 968 819 968 729 c 4,34,35
 968 709 968 709 964 686.5 c 132,-1,36
 960 664 960 664 953 640 c 132,-1,37
 946 616 946 616 943 608 c 6,38,-1
 776 -70 l 6,39,40
 751 -162 751 -162 726 -203 c 4,41,42
 665 -305 665 -305 552.5 -363.5 c 132,-1,43
 440 -422 440 -422 329 -422 c 4,44,45
 245 -422 245 -422 191 -380 c 132,-1,46
 137 -338 137 -338 137 -270 c 4,0,1
798 1280 m 4,47,48
 798 1333 798 1333 842 1376 c 132,-1,49
 886 1419 886 1419 941 1419 c 4,50,51
 984 1419 984 1419 1013 1391.5 c 132,-1,52
 1042 1364 1042 1364 1042 1321 c 4,53,54
 1042 1268 1042 1268 998 1225 c 132,-1,55
 954 1182 954 1182 898 1182 c 4,56,57
 853 1182 853 1182 825.5 1209.5 c 132,-1,58
 798 1237 798 1237 798 1280 c 4,47,48
EndSplineSet
Substitution2: "Single Substitution lookup 61 subtable" uni0237
Substitution2: "'ss03' Style Set 3 lookup 43 subtable" j.alt
Substitution2: "'fwid' Full Widths lookup 32 subtable" uniFF4A
Substitution2: "'smcp' Lowercase to Small Capitals lookup 27 subtable" j.sc
AlternateSubs2: "'aalt' Access All Alternates lookup 1 subtable" j.sc uniFF4A j.alt
EndChar

StartChar: k
Encoding: 107 107 36
Width: 1200
VWidth: 2048
GlyphClass: 2
Flags: W
LayerCount: 2
Fore
SplineSet
90 66 m 4,0,1
 90 84 90 84 98 117 c 6,2,-1
 366 1188 l 6,3,4
 389 1274 389 1274 395 1303 c 5,5,6
 350 1307 350 1307 327 1307 c 6,7,-1
 319 1307 l 6,8,9
 256 1307 256 1307 255 1350 c 4,10,11
 255 1389 255 1389 288 1399 c 132,-1,12
 321 1409 321 1409 434 1413 c 4,13,14
 512 1417 512 1417 563 1419 c 4,15,16
 565 1419 565 1419 572 1420 c 132,-1,17
 579 1421 579 1421 583 1421 c 4,18,19
 632 1421 632 1421 632 1380 c 5,20,-1
 626 1350 l 5,21,-1
 430 561 l 5,22,23
 487 600 487 600 558.5 670.5 c 132,-1,24
 630 741 630 741 680.5 794.5 c 132,-1,25
 731 848 731 848 801.5 890 c 132,-1,26
 872 932 872 932 944 932 c 4,27,28
 1022 932 1022 932 1054.5 881.5 c 132,-1,29
 1087 831 1087 831 1087 770 c 4,30,31
 1087 678 1087 678 1040 635 c 132,-1,32
 993 592 993 592 937 592 c 4,33,34
 894 592 894 592 865.5 617.5 c 132,-1,35
 837 643 837 643 837 686 c 4,36,37
 837 733 837 733 872 778 c 132,-1,38
 907 823 907 823 974 831 c 5,39,40
 958 858 958 858 935 858 c 4,41,42
 863 858 863 858 787.5 798.5 c 132,-1,43
 712 739 712 739 624 646 c 132,-1,44
 536 553 536 553 483 514 c 5,45,-1
 483 512 l 5,46,47
 806 477 806 477 806 296 c 4,48,49
 806 270 806 270 794 214 c 132,-1,50
 782 158 782 158 782 119 c 4,51,52
 782 53 782 53 827 53 c 4,53,54
 876 53 876 53 911 112.5 c 132,-1,55
 946 172 946 172 964 241.5 c 132,-1,56
 982 311 982 311 989 317 c 4,57,58
 1001 331 1001 331 1046 332 c 4,59,60
 1093 332 1093 332 1093 299 c 4,61,62
 1093 285 1093 285 1076.5 237.5 c 132,-1,63
 1060 190 1060 190 1029.5 130 c 132,-1,64
 999 70 999 70 941.5 23.5 c 132,-1,65
 884 -23 884 -23 815 -23 c 4,66,67
 723 -23 723 -23 650 33.5 c 132,-1,68
 577 90 577 90 577 188 c 4,69,70
 577 204 577 204 582 238 c 132,-1,71
 587 272 587 272 587 289 c 4,72,73
 587 400 587 400 399 438 c 5,74,75
 315 71 315 71 286 31 c 4,76,77
 243 -22 243 -22 184 -23 c 4,78,79
 145 -23 145 -23 117.5 2 c 132,-1,80
 90 27 90 27 90 66 c 4,0,1
EndSplineSet
Substitution2: "'fwid' Full Widths lookup 32 subtable" uniFF4B
Substitution2: "'smcp' Lowercase to Small Capitals lookup 27 subtable" k.sc
Substitution2: "'sinf' Scientific Inferiors lookup 14 subtable" uni2096
Substitution2: "'subs' Subscript lookup 13 subtable" uni2096
AlternateSubs2: "'aalt' Access All Alternates lookup 1 subtable" uni2096 k.sc uniFF4B
EndChar

StartChar: l
Encoding: 108 108 37
Width: 1200
VWidth: 2048
GlyphClass: 2
Flags: W
LayerCount: 2
Fore
SplineSet
322 180 m 4,0,1
 322 217 322 217 339 272 c 6,2,-1
 566 1180 l 6,3,4
 572 1200 572 1200 580.5 1241 c 132,-1,5
 589 1282 589 1282 595 1303 c 5,6,7
 577 1305 577 1305 550 1305 c 132,-1,8
 523 1305 523 1305 509.5 1306 c 132,-1,9
 496 1307 496 1307 483 1311 c 132,-1,10
 470 1315 470 1315 463.5 1324 c 132,-1,11
 457 1333 457 1333 457 1350 c 4,12,13
 457 1385 457 1385 480 1399 c 4,14,15
 488 1405 488 1405 564 1410 c 132,-1,16
 640 1415 640 1415 711 1417 c 6,17,-1
 783 1421 l 6,18,19
 832 1421 832 1421 832 1380 c 4,20,21
 832 1370 832 1370 828 1354 c 6,22,-1
 554 252 l 6,23,24
 529 154 529 154 529 115 c 4,25,26
 529 54 529 54 566 53 c 4,27,28
 605 53 605 53 633.5 111.5 c 132,-1,29
 662 170 662 170 680.5 239.5 c 132,-1,30
 699 309 699 309 703 315 c 4,31,32
 715 331 715 331 750 332 c 4,33,34
 809 332 809 332 810 299 c 4,35,36
 810 285 810 285 796.5 240 c 132,-1,37
 783 195 783 195 756.5 132.5 c 132,-1,38
 730 70 730 70 676.5 23.5 c 132,-1,39
 623 -23 623 -23 558 -23 c 4,40,41
 466 -23 466 -23 394 32.5 c 132,-1,42
 322 88 322 88 322 180 c 4,0,1
EndSplineSet
Substitution2: "'fwid' Full Widths lookup 32 subtable" uniFF4C
Substitution2: "'smcp' Lowercase to Small Capitals lookup 27 subtable" l.sc
Substitution2: "'sinf' Scientific Inferiors lookup 14 subtable" uni2097
Substitution2: "'subs' Subscript lookup 13 subtable" uni2097
AlternateSubs2: "'aalt' Access All Alternates lookup 1 subtable" uni2097 l.sc uniFF4C
EndChar

StartChar: m
Encoding: 109 109 38
Width: 1200
VWidth: 2048
GlyphClass: 2
Flags: W
LayerCount: 2
Fore
SplineSet
-29 612 m 0,0,1
 -29 618 -29 618 -22 648 c 128,-1,2
 -15 678 -15 678 1.5 732.5 c 128,-1,3
 18 787 18 787 34 829.5 c 128,-1,4
 50 872 50 872 96 902 c 128,-1,5
 142 932 142 932 188 932 c 0,6,7
 251 932 251 932 300 899 c 128,-1,8
 349 866 349 866 376 788 c 1,9,10
 471 932 471 932 558 934 c 0,11,12
 725.61601908 935.335585809 725.61601908 935.335585809 772 774 c 1,13,14
 889 944 889 944 955 934 c 0,15,16
 1038 921 1038 921 1099.5 880.5 c 0,17,18
 1181 827 1181 827 1181 700 c 0,19,20
 1181 598 1181 598 1097 364.5 c 128,-1,21
 1013 131 1013 131 1013 90 c 0,22,23
 1013 78 1013 78 1037 78 c 0,24,25
 1046 78 1046 78 1075.5 105.5 c 128,-1,26
 1105 133 1105 133 1124.5 179 c 128,-1,27
 1144 225 1144 225 1160 270 c 128,-1,28
 1176 315 1176 315 1178 317 c 0,29,30
 1189 332 1189 332 1234 332 c 2,31,-1
 1255 332 l 2,32,33
 1283 332 1283 332 1283 297 c 0,34,35
 1283 279 1283 279 1263.5 230.5 c 128,-1,36
 1244 182 1244 182 1209 121 c 128,-1,37
 1174 60 1174 60 1111 16 c 0,38,39
 1054 -23 1054 -23 1017 -23 c 0,40,41
 929 -23 929 -23 873 28.5 c 128,-1,42
 817 80 817 80 817 162 c 0,43,44
 817 195 817 195 894.5 417 c 128,-1,45
 972 639 972 639 970.5 732.5 c 128,-1,46
 969 826 969 826 929 826 c 0,47,48
 909 826 909 826 823 705 c 0,49,50
 782 648 782 648 766 586 c 0,51,52
 635 66 635 66 630 55 c 0,53,54
 595 -23 595 -23 512 -23 c 0,55,56
 473 -23 473 -23 447.5 1 c 128,-1,57
 422 25 422 25 422 63 c 0,58,59
 422 92 422 92 497.5 385 c 128,-1,60
 573 678 573 678 573 743 c 0,61,62
 572.054599296 826.840498832 572.054599296 826.840498832 535 832 c 0,63,64
 462 843 462 843 392 676 c 0,65,66
 358.096552344 593.576531651 358.096552344 593.576531651 353 575 c 0,67,68
 225 68 225 68 220 57 c 0,69,70
 187 -23 187 -23 102 -23 c 0,71,72
 63 -23 63 -23 36 1 c 128,-1,73
 9 25 9 25 9 63 c 0,74,75
 9 76.767578125 9 76.767578125 24 137 c 2,76,-1
 153 655 l 2,77,78
 160 683 160 683 161 686 c 0,79,80
 170 719 170 719 174 741.5 c 0,81,82
 178 767 178 767 182 792 c 0,83,84
 190 856 190 856 175 856 c 0,85,86
 148 856 148 856 133 797.5 c 128,-1,87
 118 739 118 739 99.5 669.5 c 128,-1,88
 81 600 81 600 77 596 c 0,89,90
 65 578 65 578 36 578 c 2,91,-1
 22 578 l 2,92,93
 21 578 21 578 19 578 c 0,94,95
 -29 578 -29 578 -29 612 c 0,0,1
EndSplineSet
Substitution2: "'fwid' Full Widths lookup 32 subtable" uniFF4D
Substitution2: "'smcp' Lowercase to Small Capitals lookup 27 subtable" m.sc
Substitution2: "'sinf' Scientific Inferiors lookup 14 subtable" uni2098
Substitution2: "'subs' Subscript lookup 13 subtable" uni2098
AlternateSubs2: "'aalt' Access All Alternates lookup 1 subtable" uni2098 m.sc uniFF4D
EndChar

StartChar: n
Encoding: 110 110 39
Width: 1200
VWidth: 2048
GlyphClass: 2
Flags: W
LayerCount: 2
Fore
SplineSet
-20 612 m 4,0,1
 -20 618 -20 618 -13 648 c 132,-1,2
 -6 678 -6 678 12.5 727 c 132,-1,3
 31 776 31 776 58.5 821 c 132,-1,4
 86 866 86 866 133 899 c 132,-1,5
 180 932 180 932 236 932 c 4,6,7
 299 932 299 932 366.5 899 c 132,-1,8
 434 866 434 866 461 788 c 5,9,10
 602 933 602 933 774 934 c 4,11,12
 905 934 905 934 982 877.5 c 132,-1,13
 1059 821 1059 821 1059 700 c 4,14,15
 1059 598 1059 598 974 363.5 c 132,-1,16
 889 129 889 129 889 92 c 4,17,18
 889 53 889 53 922 53 c 4,19,20
 971 53 971 53 1018 111 c 4,21,22
 1061 164 1061 164 1085.5 239.5 c 132,-1,23
 1110 315 1110 315 1120 324 c 4,24,25
 1136 334 1136 334 1168 334 c 4,26,27
 1219 334 1219 334 1220 299 c 4,28,29
 1220 268 1220 268 1187.5 196.5 c 132,-1,30
 1155 125 1155 125 1077.5 51 c 132,-1,31
 1000 -23 1000 -23 905 -23 c 4,32,33
 821 -23 821 -23 756.5 26.5 c 132,-1,34
 692 76 692 76 692 162 c 4,35,36
 692 199 692 199 771 415 c 132,-1,37
 850 631 850 631 850 743 c 4,38,39
 850 858 850 858 756 858 c 4,40,41
 602 858 602 858 486 688 c 4,42,43
 455 643 455 643 438 575 c 4,44,45
 336 172 336 172 320.5 112.5 c 132,-1,46
 305 53 305 53 291 33 c 4,47,48
 252 -22 252 -22 187 -23 c 4,49,50
 150 -23 150 -23 122 1 c 132,-1,51
 94 25 94 25 94 63 c 4,52,53
 94 77 94 77 105 123 c 6,54,-1
 234 639 l 6,55,56
 263 758 263 758 262 795 c 4,57,58
 262 856 262 856 223 856 c 132,-1,59
 184 856 184 856 155.5 797.5 c 132,-1,60
 127 739 127 739 108.5 669.5 c 132,-1,61
 90 600 90 600 86 594 c 4,62,63
 74 578 74 578 31 578 c 4,64,65
 30 578 30 578 28 578 c 4,66,67
 -20 578 -20 578 -20 612 c 4,0,1
EndSplineSet
Substitution2: "'fwid' Full Widths lookup 32 subtable" uniFF4E
Substitution2: "'smcp' Lowercase to Small Capitals lookup 27 subtable" n.sc
Substitution2: "'sinf' Scientific Inferiors lookup 14 subtable" uni2099
Substitution2: "'subs' Subscript lookup 13 subtable" uni2099
AlternateSubs2: "'aalt' Access All Alternates lookup 1 subtable" uni2099 n.sc uniFF4E
EndChar

StartChar: o
Encoding: 111 111 40
Width: 1200
VWidth: 2048
GlyphClass: 2
Flags: W
LayerCount: 2
Fore
SplineSet
93 326 m 4,0,1
 93 557 93 557 264 745.5 c 132,-1,2
 435 934 435 934 707 934 c 4,3,4
 885 934 885 934 990 843 c 132,-1,5
 1095 752 1095 752 1095 586 c 4,6,7
 1095 486 1095 486 1056 381 c 132,-1,8
 1017 276 1017 276 944 185 c 132,-1,9
 871 94 871 94 749.5 35.5 c 132,-1,10
 628 -23 628 -23 482 -23 c 4,11,12
 304 -23 304 -23 198.5 68.5 c 132,-1,13
 93 160 93 160 93 326 c 4,0,1
318 231 m 4,14,15
 318 135 318 135 368.5 93 c 132,-1,16
 419 51 419 51 486 51 c 4,17,18
 531 51 531 51 571 64.5 c 132,-1,19
 611 78 611 78 642 101.5 c 132,-1,20
 673 125 673 125 698.5 152.5 c 132,-1,21
 724 180 724 180 743.5 216 c 132,-1,22
 763 252 763 252 777 282.5 c 132,-1,23
 791 313 791 313 802.5 348 c 132,-1,24
 814 383 814 383 819 405.5 c 132,-1,25
 824 428 824 428 830 451 c 6,26,-1
 834 471 l 5,27,28
 869 610 869 610 869 680 c 4,29,30
 869 776 869 776 819 817 c 132,-1,31
 769 858 769 858 701 858 c 4,32,33
 443 858 443 858 353 440 c 5,34,35
 318 301 318 301 318 231 c 4,14,15
EndSplineSet
Substitution2: "Single Substitution lookup 63 subtable" ordmasculine
Substitution2: "'fwid' Full Widths lookup 32 subtable" uniFF4F
Substitution2: "'smcp' Lowercase to Small Capitals lookup 27 subtable" o.sc
Substitution2: "'sinf' Scientific Inferiors lookup 14 subtable" uni2092
Substitution2: "'subs' Subscript lookup 13 subtable" uni2092
AlternateSubs2: "'aalt' Access All Alternates lookup 1 subtable" uni2092 ordmasculine o.sc uniFF4F
EndChar

StartChar: p
Encoding: 112 112 41
Width: 1200
VWidth: 2048
GlyphClass: 2
Flags: W
LayerCount: 2
Fore
SplineSet
7 -356 m 4,0,1
 7 -301 7 -301 69 -301 c 6,2,-1
 75 -301 l 6,3,4
 93 -301 93 -301 134 -297 c 5,5,6
 138 -279 138 -279 148.5 -241 c 132,-1,7
 159 -203 159 -203 163 -184 c 6,8,-1
 376 668 l 6,9,10
 399 760 399 760 398 795 c 4,11,12
 398 856 398 856 359 856 c 4,13,14
 322 856 322 856 292.5 798.5 c 132,-1,15
 263 741 263 741 244.5 671.5 c 132,-1,16
 226 602 226 602 224 598 c 4,17,18
 212 578 212 578 175 578 c 4,19,20
 116 578 116 578 116 610 c 4,21,22
 116 616 116 616 123 647 c 132,-1,23
 130 678 130 678 148.5 727 c 132,-1,24
 167 776 167 776 194.5 821 c 132,-1,25
 222 866 222 866 269 899 c 132,-1,26
 316 932 316 932 372 932 c 4,27,28
 511 932 511 932 579 825 c 5,29,30
 716 934 716 934 849 934 c 4,31,32
 904 934 904 934 956.5 918.5 c 132,-1,33
 1009 903 1009 903 1062 868.5 c 132,-1,34
 1115 834 1115 834 1147 765 c 132,-1,35
 1179 696 1179 696 1179 604 c 4,36,37
 1179 502 1179 502 1141 393.5 c 132,-1,38
 1103 285 1103 285 1035.5 191.5 c 132,-1,39
 968 98 968 98 860.5 37.5 c 132,-1,40
 753 -23 753 -23 626 -23 c 4,41,42
 520 -23 520 -23 439 43 c 5,43,-1
 355 -297 l 5,44,45
 404 -301 404 -301 431 -301 c 4,46,47
 494 -301 494 -301 495 -340 c 4,48,49
 495 -397 495 -397 439 -397 c 4,50,51
 433 -397 433 -397 405.5 -396 c 132,-1,52
 378 -395 378 -395 330 -394 c 132,-1,53
 282 -393 282 -393 226 -393 c 4,54,55
 165 -393 165 -393 127 -394 c 132,-1,56
 89 -395 89 -395 74.5 -396 c 132,-1,57
 60 -397 60 -397 56 -397 c 4,58,59
 7 -397 7 -397 7 -356 c 4,0,1
478 182 m 4,60,61
 478 141 478 141 519 97 c 132,-1,62
 560 53 560 53 626 53 c 4,63,64
 737 53 737 53 812 176 c 4,65,66
 863 262 863 262 910 449.5 c 132,-1,67
 957 637 957 637 957 713 c 4,68,69
 957 791 957 791 921.5 824.5 c 132,-1,70
 886 858 886 858 841 858 c 4,71,72
 769 858 769 858 700.5 808 c 132,-1,73
 632 758 632 758 609 713 c 4,74,75
 605 703 605 703 541.5 448.5 c 132,-1,76
 478 194 478 194 478 182 c 4,60,61
EndSplineSet
Substitution2: "'fwid' Full Widths lookup 32 subtable" uniFF50
Substitution2: "'smcp' Lowercase to Small Capitals lookup 27 subtable" p.sc
Substitution2: "'sinf' Scientific Inferiors lookup 14 subtable" uni209A
Substitution2: "'subs' Subscript lookup 13 subtable" uni209A
AlternateSubs2: "'aalt' Access All Alternates lookup 1 subtable" uni209A p.sc uniFF50
EndChar

StartChar: q
Encoding: 113 113 42
Width: 1200
VWidth: 2048
GlyphClass: 2
Flags: W
LayerCount: 2
Fore
SplineSet
128 307 m 4,0,1
 128 407 128 407 165 516 c 132,-1,2
 202 625 202 625 268.5 719 c 132,-1,3
 335 813 335 813 442.5 873.5 c 132,-1,4
 550 934 550 934 679 934 c 4,5,6
 794 934 794 934 880 854 c 5,7,8
 919 889 919 889 975 909.5 c 132,-1,9
 1031 930 1031 930 1052 930 c 4,10,11
 1091 930 1091 930 1091 893 c 4,12,13
 1091 883 1091 883 1017 590 c 6,14,-1
 796 -297 l 5,15,16
 845 -301 845 -301 871 -301 c 6,17,-1
 880 -301 l 6,18,19
 935 -301 935 -301 935 -348 c 4,20,21
 935 -397 935 -397 878 -397 c 4,22,23
 872 -397 872 -397 815.5 -395 c 132,-1,24
 759 -393 759 -393 652 -393 c 6,25,-1
 615 -393 l 6,26,27
 578 -393 578 -393 528 -395 c 132,-1,28
 478 -397 478 -397 466 -397 c 4,29,30
 409 -397 409 -397 409 -356 c 4,31,32
 409 -313 409 -313 443 -303 c 4,33,34
 451 -301 451 -301 493 -301 c 4,35,36
 538 -301 538 -301 577 -293 c 5,37,-1
 658 35 l 5,38,39
 554 -22 554 -22 456 -23 c 4,40,41
 401 -23 401 -23 348.5 -7.5 c 132,-1,42
 296 8 296 8 243.5 42 c 132,-1,43
 191 76 191 76 159.5 144.5 c 132,-1,44
 128 213 128 213 128 307 c 4,0,1
349 199 m 4,45,46
 349 121 349 121 385 87 c 132,-1,47
 421 53 421 53 466 53 c 4,48,49
 542 53 542 53 608.5 103.5 c 132,-1,50
 675 154 675 154 695 195 c 4,51,52
 705 215 705 215 766.5 466 c 132,-1,53
 828 717 828 717 828 725 c 4,54,55
 828 766 828 766 787 812 c 132,-1,56
 746 858 746 858 681 858 c 4,57,58
 570 858 570 858 493 731 c 4,59,60
 446 649 446 649 397.5 465 c 132,-1,61
 349 281 349 281 349 199 c 4,45,46
EndSplineSet
Substitution2: "'fwid' Full Widths lookup 32 subtable" uniFF51
Substitution2: "'smcp' Lowercase to Small Capitals lookup 27 subtable" q.sc
AlternateSubs2: "'aalt' Access All Alternates lookup 1 subtable" q.sc uniFF51
EndChar

StartChar: r
Encoding: 114 114 43
Width: 1200
VWidth: 2048
GlyphClass: 2
Flags: W
LayerCount: 2
Fore
SplineSet
103 612 m 4,0,1
 105 624 105 624 110 646 c 132,-1,2
 115 668 115 668 134.5 723 c 132,-1,3
 154 778 154 778 180.5 820 c 132,-1,4
 207 862 207 862 254 897 c 132,-1,5
 301 932 301 932 359 932 c 4,6,7
 502 932 502 932 572 819 c 5,8,9
 693 934 693 934 836 934 c 4,10,11
 936 934 936 934 1014 886 c 132,-1,12
 1092 838 1092 838 1092 748 c 4,13,14
 1092 685 1092 685 1048 638.5 c 132,-1,15
 1004 592 1004 592 944 592 c 4,16,17
 897 592 897 592 870.5 619.5 c 132,-1,18
 844 647 844 647 844 688 c 4,19,20
 844 778 844 778 942 821 c 5,21,22
 887 858 887 858 832 858 c 4,23,24
 781 858 781 858 734.5 834.5 c 132,-1,25
 688 811 688 811 658.5 777 c 132,-1,26
 629 743 629 743 611.5 717.5 c 132,-1,27
 594 692 594 692 588 678 c 4,28,29
 580 662 580 662 572 616 c 6,30,-1
 443 104 l 6,31,32
 414 -23 414 -23 310 -23 c 4,33,34
 271 -23 271 -23 244 1 c 132,-1,35
 217 25 217 25 217 63 c 4,36,37
 217 81 217 81 226 115 c 6,38,-1
 363 657 l 6,39,40
 386 757 386 757 385 793 c 4,41,42
 385 856 385 856 346 856 c 4,43,44
 309 856 309 856 279.5 797.5 c 132,-1,45
 250 739 250 739 232.5 669.5 c 132,-1,46
 215 600 215 600 211 596 c 4,47,48
 199 578 199 578 168 578 c 6,49,-1
 154 578 l 6,50,51
 153 578 153 578 151 578 c 4,52,53
 103 578 103 578 103 612 c 4,0,1
EndSplineSet
Substitution2: "Single Substitution lookup 74 subtable" r.alternate
Substitution2: "'fwid' Full Widths lookup 32 subtable" uniFF52
Substitution2: "'smcp' Lowercase to Small Capitals lookup 27 subtable" r.sc
AlternateSubs2: "'aalt' Access All Alternates lookup 1 subtable" r.sc uniFF52 r.alternate
EndChar

StartChar: s
Encoding: 115 115 44
Width: 1200
VWidth: 2048
GlyphClass: 2
Flags: W
LayerCount: 2
Fore
SplineSet
194 184 m 4,0,1
 194 254 194 254 237 300 c 132,-1,2
 280 346 280 346 341 346 c 4,3,4
 386 346 386 346 414 319.5 c 132,-1,5
 442 293 442 293 442 252 c 4,6,7
 442 215 442 215 417.5 174 c 132,-1,8
 393 133 393 133 339 115 c 5,9,10
 409 52 409 52 530 51 c 4,11,12
 686 51 686 51 750.5 118.5 c 132,-1,13
 815 186 815 186 815 252 c 4,14,15
 815 297 815 297 780 326.5 c 132,-1,16
 745 356 745 356 704 367.5 c 132,-1,17
 663 379 663 379 602.5 390 c 132,-1,18
 542 401 542 401 518 410 c 4,19,20
 459 430 459 430 410.5 481 c 132,-1,21
 362 532 362 532 362 612 c 4,22,23
 362 649 362 649 377.5 696 c 132,-1,24
 393 743 393 743 429.5 800.5 c 132,-1,25
 466 858 466 858 547 896 c 132,-1,26
 628 934 628 934 741 934 c 4,27,28
 866 934 866 934 940.5 882.5 c 132,-1,29
 1015 831 1015 831 1015 748 c 4,30,31
 1015 680 1015 680 974 643 c 132,-1,32
 933 606 933 606 888 606 c 4,33,34
 849 606 849 606 824.5 630.5 c 132,-1,35
 800 655 800 655 800 690 c 4,36,37
 800 766 800 766 880 805 c 5,38,39
 821 858 821 858 735 858 c 4,40,41
 616 858 616 858 568 803 c 132,-1,42
 520 748 520 748 520 696 c 4,43,44
 520 661 520 661 540 639 c 4,45,46
 563 614 563 614 599.5 603 c 132,-1,47
 636 592 636 592 692.5 582.5 c 132,-1,48
 749 573 749 573 788 561 c 4,49,50
 856 538 856 538 913 482 c 132,-1,51
 970 426 970 426 970 336 c 4,52,53
 970 289 970 289 950.5 234.5 c 132,-1,54
 931 180 931 180 886 118.5 c 132,-1,55
 841 57 841 57 747 17 c 132,-1,56
 653 -23 653 -23 524 -23 c 4,57,58
 372 -23 372 -23 283 33.5 c 132,-1,59
 194 90 194 90 194 184 c 4,0,1
EndSplineSet
Substitution2: "'fwid' Full Widths lookup 32 subtable" uniFF53
Substitution2: "'smcp' Lowercase to Small Capitals lookup 27 subtable" s.sc
Substitution2: "'sinf' Scientific Inferiors lookup 14 subtable" uni209B
Substitution2: "'subs' Subscript lookup 13 subtable" uni209B
AlternateSubs2: "'aalt' Access All Alternates lookup 1 subtable" uni209B s.sc uniFF53
EndChar

StartChar: t
Encoding: 116 116 45
Width: 1200
VWidth: 2048
GlyphClass: 2
Flags: W
LayerCount: 2
Fore
SplineSet
272 854 m 4,0,1
 272 907 272 907 330 909 c 6,2,-1
 508 909 l 5,3,4
 524 981 524 981 578 1198 c 4,5,6
 611 1323 611 1323 713 1323 c 4,7,8
 750 1323 750 1323 776.5 1298.5 c 132,-1,9
 803 1274 803 1274 803 1237 c 4,10,11
 803 1221 803 1221 789.5 1163.5 c 132,-1,12
 776 1106 776 1106 755.5 1025 c 132,-1,13
 735 944 735 944 727 909 c 5,14,-1
 881 909 l 6,15,16
 936 909 936 909 936 870 c 4,17,18
 936 815 936 815 879 813 c 6,19,-1
 700 813 l 5,20,-1
 563 258 l 6,21,22
 538 166 538 166 539 113 c 4,23,24
 539 54 539 54 582 53 c 4,25,26
 631 53 631 53 696.5 105.5 c 132,-1,27
 762 158 762 158 817 283 c 4,28,29
 827 303 827 303 832.5 312.5 c 132,-1,30
 838 322 838 322 848 327 c 132,-1,31
 858 332 858 332 874 332 c 6,32,-1
 887 332 l 6,33,34
 940 332 940 332 940 301 c 4,35,36
 940 283 940 283 913.5 232.5 c 132,-1,37
 887 182 887 182 843 124 c 132,-1,38
 799 66 799 66 724 21.5 c 132,-1,39
 649 -23 649 -23 569 -23 c 4,40,41
 467 -23 467 -23 399.5 33.5 c 132,-1,42
 332 90 332 90 332 180 c 4,43,44
 332 205 332 205 356 307 c 6,45,-1
 481 813 l 5,46,-1
 326 813 l 6,47,48
 272 813 272 813 272 854 c 4,0,1
EndSplineSet
Substitution2: "'fwid' Full Widths lookup 32 subtable" uniFF54
Substitution2: "'smcp' Lowercase to Small Capitals lookup 27 subtable" t.sc
Substitution2: "'sinf' Scientific Inferiors lookup 14 subtable" uni209C
Substitution2: "'subs' Subscript lookup 13 subtable" uni209C
AlternateSubs2: "'aalt' Access All Alternates lookup 1 subtable" uni209C t.sc uniFF54
EndChar

StartChar: u
Encoding: 117 117 46
Width: 1200
VWidth: 2048
GlyphClass: 2
Flags: W
LayerCount: 2
Fore
SplineSet
9 612 m 4,0,1
 9 632 9 632 29.5 680.5 c 132,-1,2
 50 729 50 729 84.5 787.5 c 132,-1,3
 119 846 119 846 183.5 890 c 132,-1,4
 248 934 248 934 322 934 c 4,5,6
 404 934 404 934 469.5 882.5 c 132,-1,7
 535 831 535 831 535 748 c 4,8,9
 535 709 535 709 460.5 510 c 132,-1,10
 386 311 386 311 386 190 c 4,11,12
 386 53 386 53 494 53 c 4,13,14
 582 53 582 53 654 133 c 4,15,16
 668 149 668 149 677.5 159.5 c 132,-1,17
 687 170 687 170 692 182.5 c 132,-1,18
 697 195 697 195 698 199 c 132,-1,19
 699 203 699 203 702 218 c 132,-1,20
 705 233 705 233 707 242 c 6,21,-1
 842 788 l 6,22,23
 875 909 875 909 975 909 c 4,24,25
 1014 909 1014 909 1039.5 885.5 c 132,-1,26
 1065 862 1065 862 1065 823 c 4,27,28
 1065 796 1065 796 984.5 483 c 132,-1,29
 904 170 904 170 904 117 c 4,30,31
 904 54 904 54 943 53 c 4,32,33
 1011 53 1011 53 1070 285 c 4,34,35
 1076 308 1076 308 1085 318 c 132,-1,36
 1094 328 1094 328 1104.5 330 c 132,-1,37
 1115 332 1115 332 1137 332 c 4,38,39
 1186 332 1186 332 1186 299 c 4,40,41
 1186 291 1186 291 1179 260 c 132,-1,42
 1172 229 1172 229 1152.5 180 c 132,-1,43
 1133 131 1133 131 1105.5 87 c 132,-1,44
 1078 43 1078 43 1032 10 c 132,-1,45
 986 -23 986 -23 932 -23 c 4,46,47
 793 -23 793 -23 723 82 c 5,48,49
 608 -22 608 -22 478 -23 c 4,50,51
 353 -23 353 -23 266 35.5 c 132,-1,52
 179 94 179 94 179 238 c 4,53,54
 179 353 179 353 258.5 565.5 c 132,-1,55
 338 778 338 778 338 817 c 132,-1,56
 338 856 338 856 306 856 c 4,57,58
 255 856 255 856 207 797 c 4,59,60
 166 744 166 744 142.5 670 c 132,-1,61
 119 596 119 596 109 588 c 4,62,63
 93 578 93 578 62 578 c 4,64,65
 61 578 61 578 59 578 c 4,66,67
 9 578 9 578 9 612 c 4,0,1
EndSplineSet
Substitution2: "'fwid' Full Widths lookup 32 subtable" uniFF55
Substitution2: "'smcp' Lowercase to Small Capitals lookup 27 subtable" u.sc
AlternateSubs2: "'aalt' Access All Alternates lookup 1 subtable" u.sc uniFF55
EndChar

StartChar: v
Encoding: 118 118 47
Width: 1200
VWidth: 2048
GlyphClass: 2
Flags: W
LayerCount: 2
Fore
SplineSet
93 612 m 4,0,1
 93 632 93 632 112.5 681.5 c 132,-1,2
 132 731 132 731 167.5 788.5 c 132,-1,3
 203 846 203 846 266.5 889 c 132,-1,4
 330 932 330 932 404 932 c 4,5,6
 490 932 490 932 553.5 881.5 c 132,-1,7
 617 831 617 831 617 748 c 4,8,9
 617 711 617 711 544.5 513 c 132,-1,10
 472 315 472 315 472 203 c 4,11,12
 472 53 472 53 601 53 c 4,13,14
 677 53 677 53 742 128 c 132,-1,15
 807 203 807 203 842 300 c 132,-1,16
 877 397 877 397 896.5 471 c 132,-1,17
 916 545 916 545 916 565 c 4,18,19
 916 628 916 628 853.5 685.5 c 132,-1,20
 791 743 791 743 791 786 c 4,21,22
 791 839 791 839 836 886.5 c 132,-1,23
 881 934 881 934 939 934 c 4,24,25
 988 934 988 934 1028 891 c 132,-1,26
 1068 848 1068 848 1068 756 c 4,27,28
 1068 709 1068 709 1052.5 623 c 132,-1,29
 1037 537 1037 537 999 424 c 132,-1,30
 961 311 961 311 909 213 c 132,-1,31
 857 115 857 115 773 46 c 132,-1,32
 689 -23 689 -23 590 -23 c 4,33,34
 527 -23 527 -23 472.5 -10.5 c 132,-1,35
 418 2 418 2 369 29.5 c 132,-1,36
 320 57 320 57 291.5 111.5 c 132,-1,37
 263 166 263 166 263 244 c 4,38,39
 263 353 263 353 341.5 565.5 c 132,-1,40
 420 778 420 778 420 817 c 132,-1,41
 420 856 420 856 388 856 c 4,42,43
 347 856 347 856 297.5 804 c 132,-1,44
 248 752 248 752 209 625 c 4,45,46
 201 594 201 594 190 586 c 132,-1,47
 179 578 179 578 154 578 c 6,48,-1
 138 578 l 6,49,50
 137 578 137 578 136 578 c 4,51,52
 93 578 93 578 93 612 c 4,0,1
EndSplineSet
Substitution2: "'fwid' Full Widths lookup 32 subtable" uniFF56
Substitution2: "'smcp' Lowercase to Small Capitals lookup 27 subtable" v.sc
AlternateSubs2: "'aalt' Access All Alternates lookup 1 subtable" v.sc uniFF56
EndChar

StartChar: w
Encoding: 119 119 48
Width: 1200
VWidth: 2048
GlyphClass: 2
Flags: W
LayerCount: 2
Fore
SplineSet
-17 612 m 0,0,1
 -17 635 -17 635 3.5 683 c 128,-1,2
 24 731 24 731 59.5 788.5 c 128,-1,3
 95 846 95 846 158.5 889 c 128,-1,4
 222 932 222 932 262 932 c 0,5,6
 352 932 352 932 414.5 880.5 c 128,-1,7
 477 829 477 829 477 748 c 0,8,9
 477 709 477 709 404.5 516.5 c 128,-1,10
 332 324 332 324 332 213 c 0,11,12
 332 125 332 125 366.5 112 c 128,-1,13
 401 99 401 99 416 99 c 0,14,15
 462 99 462 99 476 126 c 0,16,17
 508 187 508 187 508 215 c 2,18,-1
 508 248 l 2,19,20
 508 311 508 311 570.5 564 c 128,-1,21
 633 817 633 817 647 842 c 0,22,23
 685 909 685 909 758 909 c 0,24,25
 759 909 759 909 760 909 c 0,26,27
 797 909 797 909 824.5 885.5 c 128,-1,28
 852 862 852 862 852 823 c 0,29,30
 852 800 852 800 784.5 537 c 128,-1,31
 717 274 717 274 717 205 c 0,32,33
 717 93 717 93 779 93 c 0,34,35
 836 93 836 93 877 125 c 0,36,37
 914.634217732 154.166518742 914.634217732 154.166518742 941 205 c 4,38,39
 1004 327 1004 327 1005 329.5 c 0,40,41
 1024 398 1024 398 1053 502 c 0,42,43
 1063 537 1063 537 1063 565 c 0,44,45
 1063 628 1063 628 999.5 685.5 c 128,-1,46
 936 743 936 743 936 786 c 0,47,48
 936 837 936 837 980 885.5 c 128,-1,49
 1024 934 1024 934 1084 934 c 0,50,51
 1133 934 1133 934 1173 891 c 128,-1,52
 1213 848 1213 848 1213 756 c 0,53,54
 1213 658 1213 658 1156.5 453 c 128,-1,55
 1100 248 1100 248 1024 133 c 0,56,57
 922 -23 922 -23 764 -23 c 0,58,59
 640 -23 640 -23 555 82 c 1,60,-1
 553 82 l 1,61,62
 463 -22 463 -22 416 -23 c 0,63,64
 320 -23 320 -23 221.5 39.5 c 128,-1,65
 123 102 123 102 123 250 c 0,66,67
 123 352 123 352 201.5 566 c 128,-1,68
 280 780 280 780 280 819 c 128,-1,69
 280 858 280 858 258.5 858 c 128,-1,70
 237 858 237 858 192 807 c 128,-1,71
 147 756 147 756 118 675 c 128,-1,72
 89 594 89 594 87 592 c 0,73,74
 75 578 75 578 42 578 c 0,75,76
 40 578 40 578 39 578 c 0,77,78
 -17 578 -17 578 -17 612 c 0,0,1
EndSplineSet
Substitution2: "'fwid' Full Widths lookup 32 subtable" uniFF57
Substitution2: "'smcp' Lowercase to Small Capitals lookup 27 subtable" w.sc
AlternateSubs2: "'aalt' Access All Alternates lookup 1 subtable" w.sc uniFF57
EndChar

StartChar: x
Encoding: 120 120 49
Width: 1200
VWidth: 2048
GlyphClass: 2
Flags: W
LayerCount: 2
Fore
SplineSet
42 160 m 4,0,1
 42 234 42 234 88 275.5 c 132,-1,2
 134 317 134 317 190 317 c 4,3,4
 231 317 231 317 260.5 291.5 c 132,-1,5
 290 266 290 266 290 223 c 4,6,7
 290 125 290 125 186 86 c 5,8,9
 225 53 225 53 269 53 c 4,10,11
 345 53 345 53 392 147 c 4,12,13
 421 198 421 198 483.5 454.5 c 132,-1,14
 546 711 546 711 546 758 c 4,15,16
 546 811 546 811 515.5 834.5 c 132,-1,17
 485 858 485 858 444 858 c 4,18,19
 368 858 368 858 295 794.5 c 132,-1,20
 222 731 222 731 188 635 c 4,21,22
 176 598 176 598 166.5 589 c 132,-1,23
 157 580 157 580 128 578 c 6,24,-1
 118 578 l 6,25,26
 65 578 65 578 65 610 c 4,27,28
 65 635 65 635 89.5 685 c 132,-1,29
 114 735 114 735 159 792.5 c 132,-1,30
 204 850 204 850 284 892 c 132,-1,31
 364 934 364 934 456 934 c 4,32,33
 624 934 624 934 708 823 c 5,34,35
 814 934 814 934 919 934 c 4,36,37
 1007 934 1007 934 1074.5 885 c 132,-1,38
 1142 836 1142 836 1142 750 c 4,39,40
 1142 676 1142 676 1096 634 c 132,-1,41
 1050 592 1050 592 994 592 c 4,42,43
 951 592 951 592 922.5 618.5 c 132,-1,44
 894 645 894 645 894 688 c 4,45,46
 894 786 894 786 999 825 c 5,47,48
 960 858 960 858 915 858 c 4,49,50
 886 858 886 858 861.5 846 c 132,-1,51
 837 834 837 834 816.5 801 c 132,-1,52
 796 768 796 768 781.5 738.5 c 132,-1,53
 767 709 767 709 749.5 649.5 c 132,-1,54
 732 590 732 590 722 549 c 132,-1,55
 712 508 712 508 692.5 426 c 132,-1,56
 673 344 673 344 661 297 c 4,57,58
 636 199 636 199 636 154 c 4,59,60
 636 101 636 101 668 77 c 132,-1,61
 700 53 700 53 741 53 c 4,62,63
 817 53 817 53 889.5 116.5 c 132,-1,64
 962 180 962 180 997 274 c 4,65,66
 999 278 999 278 1001 286.5 c 132,-1,67
 1003 295 1003 295 1005 298 c 132,-1,68
 1007 301 1007 301 1009 307 c 132,-1,69
 1011 313 1011 313 1012 315 c 132,-1,70
 1013 317 1013 317 1016 321.5 c 132,-1,71
 1019 326 1019 326 1023 327 c 132,-1,72
 1027 328 1027 328 1031 330 c 132,-1,73
 1035 332 1035 332 1040.5 332 c 132,-1,74
 1046 332 1046 332 1054 332 c 6,75,-1
 1066 332 l 6,76,77
 1119 332 1119 332 1119 301 c 4,78,79
 1119 225 1119 225 1006.5 101 c 132,-1,80
 894 -23 894 -23 730 -23 c 4,81,82
 552 -23 552 -23 474 88 c 5,83,-1
 472 88 l 5,84,85
 382 -23 382 -23 263 -23 c 4,86,87
 177 -23 177 -23 109.5 25.5 c 132,-1,88
 42 74 42 74 42 160 c 4,0,1
EndSplineSet
Substitution2: "'fwid' Full Widths lookup 32 subtable" uniFF58
Substitution2: "'smcp' Lowercase to Small Capitals lookup 27 subtable" x.sc
Substitution2: "'sinf' Scientific Inferiors lookup 14 subtable" uni2093
Substitution2: "'subs' Subscript lookup 13 subtable" uni2093
AlternateSubs2: "'aalt' Access All Alternates lookup 1 subtable" uni2093 x.sc uniFF58
EndChar

StartChar: y
Encoding: 121 121 50
Width: 1200
VWidth: 2048
GlyphClass: 2
Flags: W
LayerCount: 2
Fore
SplineSet
70 612 m 4,0,1
 70 643 70 643 101.5 714.5 c 132,-1,2
 133 786 133 786 210 860 c 132,-1,3
 287 934 287 934 383 934 c 4,4,5
 471 934 471 934 533.5 880.5 c 132,-1,6
 596 827 596 827 596 748 c 4,7,8
 596 715 596 715 521.5 510 c 132,-1,9
 447 305 447 305 447 197 c 4,10,11
 447 52 447 52 553 51 c 4,12,13
 604 51 604 51 659.5 85 c 132,-1,14
 715 119 715 119 746 170 c 4,15,16
 750 176 750 176 766 238 c 6,17,-1
 899 770 l 6,18,19
 934 909 934 909 1036 909 c 4,20,21
 1075 909 1075 909 1100.5 886.5 c 132,-1,22
 1126 864 1126 864 1126 823 c 4,23,24
 1126 798 1126 798 1120 774 c 6,25,-1
 936 41 l 6,26,27
 897 -113 897 -113 821 -207 c 4,28,29
 760 -283 760 -283 670 -338 c 4,30,31
 531 -422 531 -422 387 -422 c 4,32,33
 274 -422 274 -422 202.5 -369.5 c 132,-1,34
 131 -317 131 -317 131 -236 c 4,35,36
 131 -160 131 -160 178 -120 c 132,-1,37
 225 -80 225 -80 277 -80 c 4,38,39
 320 -80 320 -80 348.5 -105.5 c 132,-1,40
 377 -131 377 -131 377 -174 c 4,41,42
 377 -270 377 -270 281 -309 c 5,43,-1
 281 -311 l 5,44,45
 334 -346 334 -346 389 -346 c 4,46,47
 489 -346 489 -346 580.5 -245.5 c 132,-1,48
 672 -145 672 -145 713 27 c 5,49,50
 629 -22 629 -22 539 -23 c 4,51,52
 461 -23 461 -23 398.5 -3.5 c 132,-1,53
 336 16 336 16 288 77.5 c 132,-1,54
 240 139 240 139 240 236 c 4,55,56
 240 345 240 345 319.5 562.5 c 132,-1,57
 399 780 399 780 399 819 c 4,58,59
 399 856 399 856 365 856 c 4,60,61
 310 856 310 856 267.5 793.5 c 132,-1,62
 225 731 225 731 200.5 660.5 c 132,-1,63
 176 590 176 590 172 588 c 4,64,65
 158 578 158 578 123 578 c 4,66,67
 122 578 122 578 120 578 c 4,68,69
 70 578 70 578 70 612 c 4,0,1
EndSplineSet
Substitution2: "'fwid' Full Widths lookup 32 subtable" uniFF59
Substitution2: "'smcp' Lowercase to Small Capitals lookup 27 subtable" y.sc
AlternateSubs2: "'aalt' Access All Alternates lookup 1 subtable" y.sc uniFF59
EndChar

StartChar: z
Encoding: 122 122 51
Width: 1200
VWidth: 2048
GlyphClass: 2
Flags: W
LayerCount: 2
Fore
SplineSet
108 6 m 4,0,1
 108 24 108 24 135 61 c 4,2,3
 209 172 209 172 307 266 c 132,-1,4
 405 360 405 360 553.5 485 c 132,-1,5
 702 610 702 610 808 713 c 5,6,7
 712 713 712 713 649.5 714 c 132,-1,8
 587 715 587 715 564.5 716 c 132,-1,9
 542 717 542 717 534 717 c 4,10,11
 477 717 477 717 444 709.5 c 132,-1,12
 411 702 411 702 402 693 c 132,-1,13
 393 684 393 684 389 675 c 132,-1,14
 385 666 385 666 371.5 658.5 c 132,-1,15
 358 651 358 651 327 651 c 4,16,17
 276 651 276 651 276 686 c 4,18,19
 276 747 276 747 363 839.5 c 132,-1,20
 450 932 450 932 565 932 c 4,21,22
 624 932 624 932 677.5 896 c 132,-1,23
 731 860 731 860 774 825.5 c 132,-1,24
 817 791 817 791 853 791 c 4,25,26
 876 791 876 791 897.5 813.5 c 132,-1,27
 919 836 919 836 932.5 862.5 c 132,-1,28
 946 889 946 889 967.5 911.5 c 132,-1,29
 989 934 989 934 1013 934 c 6,30,-1
 1032 934 l 6,31,32
 1081 934 1081 934 1081 903 c 4,33,34
 1081 889 1081 889 1052 848 c 4,35,36
 974 731 974 731 852.5 617.5 c 132,-1,37
 731 504 731 504 591.5 389 c 132,-1,38
 452 274 452 274 378 197 c 5,39,40
 427 197 427 197 544 196 c 132,-1,41
 661 195 661 195 688 195 c 6,42,-1
 700 195 l 6,43,44
 759 195 759 195 804 207 c 132,-1,45
 849 219 849 219 875 237.5 c 132,-1,46
 901 256 901 256 915 273.5 c 132,-1,47
 929 291 929 291 937 307 c 6,48,-1
 946 326 l 5,49,50
 958 340 958 340 1005 340 c 4,51,52
 1050 340 1050 340 1050 305 c 4,53,54
 1050 227 1050 227 938.5 102 c 132,-1,55
 827 -23 827 -23 681 -23 c 4,56,57
 620 -23 620 -23 568 13 c 132,-1,58
 516 49 516 49 470.5 85 c 132,-1,59
 425 121 425 121 380 121 c 4,60,61
 304 121 304 121 229 10 c 4,62,63
 206 -23 206 -23 172 -23 c 6,64,-1
 157 -23 l 6,65,66
 108 -23 108 -23 108 6 c 4,0,1
EndSplineSet
Substitution2: "'fwid' Full Widths lookup 32 subtable" uniFF5A
Substitution2: "'smcp' Lowercase to Small Capitals lookup 27 subtable" z.sc
AlternateSubs2: "'aalt' Access All Alternates lookup 1 subtable" z.sc uniFF5A
EndChar

StartChar: Alpha
Encoding: 913 913 52
Width: 1200
GlyphClass: 2
Flags: W
AnchorPoint: "Anchor-24" 282 1450 basechar 0
AnchorPoint: "Anchor-23" 600 1454 basechar 0
AnchorPoint: "Anchor-22" 897 0 basechar 0
AnchorPoint: "Anchor-21" 1120 0 basechar 0
AnchorPoint: "Anchor-20" 600 0 basechar 0
LayerCount: 2
Fore
SplineSet
583 1450 m 1,0,-1
 935 1450 l 1,1,-1
 1021 0 l 1,2,-1
 769 0 l 1,3,-1
 745 342 l 1,4,-1
 363 342 l 1,5,-1
 223 0 l 1,6,-1
 -17 0 l 1,7,-1
 583 1450 l 1,0,-1
747 550 m 1,8,-1
 729 1204 l 1,9,-1
 705 1204 l 1,10,-1
 457 550 l 1,11,-1
 747 550 l 1,8,-1
EndSplineSet
EndChar

StartChar: Beta
Encoding: 914 914 53
Width: 1200
GlyphClass: 2
Flags: W
AnchorPoint: "Anchor-23" 600 1500 basechar 0
AnchorPoint: "Anchor-20" 600 0 basechar 0
LayerCount: 2
Fore
SplineSet
277 1450 m 1,0,-1
 669 1450 l 2,1,2
 853 1450 853 1450 960 1371.5 c 128,-1,3
 1067 1293 1067 1293 1067 1140 c 0,4,5
 1067 1103 1067 1103 1059 1055 c 0,6,7
 1044 968 1044 968 1014 911 c 128,-1,8
 984 854 984 854 938 819.5 c 128,-1,9
 892 785 892 785 823 760 c 1,10,11
 928 745 928 745 998.5 675 c 128,-1,12
 1069 605 1069 605 1069 473 c 0,13,14
 1069 430 1069 430 1060 379 c 0,15,16
 1024 174 1024 174 867.5 87 c 128,-1,17
 711 0 711 0 485 0 c 2,18,-1
 21 0 l 1,19,-1
 277 1450 l 1,0,-1
475 200 m 2,20,21
 593 200 593 200 681 248 c 128,-1,22
 769 296 769 296 793 433 c 0,23,24
 798 458 798 458 798 488 c 0,25,26
 798 576 798 576 741.5 609 c 128,-1,27
 685 642 685 642 590 642 c 2,28,-1
 388 642 l 1,29,-1
 310 200 l 1,30,-1
 475 200 l 2,20,21
531 838 m 2,31,32
 768 838 768 838 809 1063 c 0,33,34
 813 1086 813 1086 813 1110 c 0,35,36
 813 1181 813 1181 769 1212.5 c 128,-1,37
 725 1244 725 1244 642 1244 c 2,38,-1
 492 1244 l 1,39,-1
 421 838 l 1,40,-1
 531 838 l 2,31,32
EndSplineSet
EndChar

StartChar: Gamma
Encoding: 915 915 54
Width: 1200
GlyphClass: 2
Flags: W
AnchorPoint: "Anchor-23" 759 1450 basechar 0
AnchorPoint: "Anchor-20" 503 0 basechar 0
LayerCount: 2
Fore
SplineSet
283 1450 m 1,0,-1
 1235 1450 l 1,1,-1
 1196 1230 l 1,2,-1
 480 1230 l 1,3,-1
 263 0 l 1,4,-1
 27 0 l 1,5,-1
 283 1450 l 1,0,-1
EndSplineSet
EndChar

StartChar: uni0394
Encoding: 916 916 55
Width: 1200
GlyphClass: 2
Flags: W
AnchorPoint: "Anchor-23" 768 1500 basechar 0
AnchorPoint: "Anchor-20" 503 0 basechar 0
LayerCount: 2
Fore
SplineSet
730 1492 m 1,0,-1
 792 1492 l 1,1,-1
 1051 0 l 1,2,-1
 -49 0 l 1,3,-1
 730 1492 l 1,0,-1
800 174 m 1,4,-1
 684 1024 l 1,5,-1
 272 174 l 1,6,-1
 800 174 l 1,4,-1
EndSplineSet
EndChar

StartChar: Epsilon
Encoding: 917 917 56
Width: 1200
GlyphClass: 2
Flags: W
AnchorPoint: "Anchor-24" 301 1450 basechar 0
AnchorPoint: "Anchor-23" 600 1500 basechar 0
AnchorPoint: "Anchor-22" 835 0 basechar 0
AnchorPoint: "Anchor-20" 600 0 basechar 0
LayerCount: 2
Fore
SplineSet
295 1450 m 1,0,-1
 1205 1450 l 1,1,-1
 1166 1230 l 1,2,-1
 516 1230 l 1,3,-1
 451 860 l 1,4,-1
 1069 860 l 1,5,-1
 1030 640 l 1,6,-1
 412 640 l 1,7,-1
 337 218 l 1,8,-1
 1015 218 l 1,9,-1
 977 0 l 1,10,-1
 39 0 l 1,11,-1
 295 1450 l 1,0,-1
EndSplineSet
EndChar

StartChar: Zeta
Encoding: 918 918 57
Width: 1200
GlyphClass: 2
Flags: W
AnchorPoint: "Anchor-25" 623 714 basechar 0
AnchorPoint: "Anchor-23" 748 1426 basechar 0
AnchorPoint: "Anchor-20" 497 0 basechar 0
LayerCount: 2
Fore
SplineSet
1229 1450 m 1,0,-1
 1192 1228 l 1,1,-1
 330 214 l 1,2,-1
 1040 212 l 1,3,-1
 1003 0 l 1,4,-1
 1 0 l 1,5,-1
 39 242 l 1,6,-1
 897 1232 l 1,7,-1
 487 1232 l 1,8,-1
 462 1092 l 1,9,-1
 254 1092 l 1,10,-1
 279 1232 l 1,11,-1
 278 1232 l 1,12,-1
 317 1450 l 1,13,-1
 1229 1450 l 1,0,-1
EndSplineSet
EndChar

StartChar: Eta
Encoding: 919 919 58
Width: 1200
GlyphClass: 2
Flags: W
AnchorPoint: "Anchor-25" 631 726 basechar 0
AnchorPoint: "Anchor-24" 249 1450 basechar 0
AnchorPoint: "Anchor-23" 600 1500 basechar 0
AnchorPoint: "Anchor-21" 1054 0 basechar 0
AnchorPoint: "Anchor-20" 600 0 basechar 0
LayerCount: 2
Fore
SplineSet
307 1450 m 1,0,-1
 563 1450 l 1,1,-1
 460 870 l 1,2,-1
 854 870 l 1,3,-1
 957 1450 l 1,4,-1
 1213 1450 l 1,5,-1
 957 0 l 1,6,-1
 701 0 l 1,7,-1
 815 644 l 1,8,-1
 421 644 l 1,9,-1
 307 0 l 1,10,-1
 51 0 l 1,11,-1
 307 1450 l 1,0,-1
EndSplineSet
EndChar

StartChar: Theta
Encoding: 920 920 59
Width: 1200
GlyphClass: 2
Flags: W
AnchorPoint: "Anchor-26" 1270 1450 basechar 0
AnchorPoint: "Anchor-25" 631 726 basechar 0
AnchorPoint: "Anchor-24" 248 1450 basechar 0
AnchorPoint: "Anchor-23" 759 1450 basechar 0
AnchorPoint: "Anchor-22" 886 20 basechar 0
AnchorPoint: "Anchor-20" 503 0 basechar 0
LayerCount: 2
Fore
SplineSet
620 805 m 0,1,2
 718 805 718 805 846 834 c 1,3,-1
 817 580 l 1,4,5
 736 600 736 600 642 600 c 0,6,7
 537 600 537 600 412 576 c 1,8,-1
 442 830 l 1,9,0
 524 805 524 805 620 805 c 0,1,2
205.5 1103.5 m 128,-1,11
 306 1269 306 1269 447.5 1363.5 c 128,-1,12
 589 1458 589 1458 743 1458 c 0,13,14
 881 1458 881 1458 986 1384.5 c 128,-1,15
 1091 1311 1091 1311 1148.5 1180 c 128,-1,16
 1206 1049 1206 1049 1206 881 c 0,17,18
 1206 796 1206 796 1189 699 c 0,19,20
 1154 496 1154 496 1052.5 331.5 c 128,-1,21
 951 167 951 167 808 73.5 c 128,-1,22
 665 -20 665 -20 509 -20 c 0,23,24
 373 -20 373 -20 269.5 53 c 128,-1,25
 166 126 166 126 109.5 255.5 c 128,-1,26
 53 385 53 385 53 552 c 0,27,28
 53 641 53 641 69 733 c 0,29,10
 105 938 105 938 205.5 1103.5 c 128,-1,11
272 393 m 0,31,32
 272 261 272 261 325 194.5 c 128,-1,33
 378 128 378 128 506 128 c 0,34,35
 638 128 638 128 730 222 c 128,-1,36
 822 316 822 316 874.5 450.5 c 128,-1,37
 927 585 927 585 953 729 c 0,38,39
 977 868 977 868 977 970 c 0,40,41
 977 1124 977 1124 923 1215 c 128,-1,42
 869 1306 869 1306 745 1306 c 0,43,44
 563 1306 563 1306 458.5 1136.5 c 128,-1,45
 354 967 354 967 306 695 c 0,46,30
 272 498 272 498 272 393 c 0,31,32
EndSplineSet
EndChar

StartChar: Iota
Encoding: 921 921 60
Width: 1200
GlyphClass: 2
Flags: W
AnchorPoint: "Anchor-24" 547 1450 basechar 0
AnchorPoint: "Anchor-23" 757 1450 basechar 0
AnchorPoint: "Anchor-22" 743 0 basechar 0
AnchorPoint: "Anchor-20" 501 0 basechar 0
LayerCount: 2
Fore
SplineSet
253 168 m 1,0,-1
 405 168 l 1,1,-1
 599 1268 l 1,2,-1
 447 1268 l 1,3,-1
 479 1450 l 1,4,-1
 1041 1450 l 1,5,-1
 1009 1268 l 1,6,-1
 857 1268 l 1,7,-1
 663 168 l 1,8,-1
 815 168 l 1,9,-1
 785 0 l 1,10,-1
 223 0 l 1,11,-1
 253 168 l 1,0,-1
EndSplineSet
EndChar

StartChar: Kappa
Encoding: 922 922 61
Width: 1200
GlyphClass: 2
Flags: W
AnchorPoint: "Anchor-23" 600 1500 basechar 0
AnchorPoint: "Anchor-20" 600 0 basechar 0
LayerCount: 2
Fore
SplineSet
467 736 m 1,0,-1
 337 0 l 1,1,-1
 85 0 l 1,2,-1
 341 1452 l 1,3,-1
 593 1452 l 1,4,-1
 486 843 l 1,5,-1
 998 1452 l 1,6,-1
 1284 1452 l 1,7,-1
 722 798 l 1,8,-1
 1072 0 l 1,9,-1
 778 0 l 1,10,-1
 467 736 l 1,0,-1
EndSplineSet
EndChar

StartChar: Lambda
Encoding: 923 923 62
Width: 1200
GlyphClass: 2
Flags: W
AnchorPoint: "Anchor-23" 759 1450 basechar 0
AnchorPoint: "Anchor-20" 503 0 basechar 0
LayerCount: 2
Fore
SplineSet
691 1064 m 1,0,-1
 183 0 l 1,1,-1
 -43 0 l 1,2,-1
 663 1450 l 1,3,-1
 841 1450 l 1,4,-1
 1049 0 l 1,5,-1
 829 0 l 1,6,-1
 691 1064 l 1,0,-1
EndSplineSet
EndChar

StartChar: Mu
Encoding: 924 924 63
Width: 1200
GlyphClass: 2
Flags: W
AnchorPoint: "Anchor-23" 600 1500 basechar 0
AnchorPoint: "Anchor-21" 985 0 basechar 0
AnchorPoint: "Anchor-20" 600 0 basechar 0
LayerCount: 2
Fore
SplineSet
277 1450 m 1,0,-1
 599 1450 l 1,1,-1
 652 860 l 1,2,-1
 915 1450 l 1,3,-1
 1241 1450 l 1,4,-1
 985 0 l 1,5,-1
 741 0 l 1,6,-1
 920 1003 l 1,7,-1
 908 984 l 1,8,-1
 904 973 l 1,9,-1
 634 389 l 1,10,-1
 514 389 l 1,11,-1
 452 973 l 1,12,-1
 451 984 l 1,13,-1
 443 1003 l 1,14,-1
 263 0 l 1,15,-1
 21 0 l 1,16,-1
 277 1450 l 1,0,-1
EndSplineSet
EndChar

StartChar: Nu
Encoding: 925 925 64
Width: 1200
GlyphClass: 2
Flags: W
AnchorPoint: "Anchor-23" 600 1500 basechar 0
AnchorPoint: "Anchor-20" 600 0 basechar 0
LayerCount: 2
Fore
SplineSet
299 1450 m 1,0,-1
 621 1450 l 1,1,-1
 756 618 l 1,2,-1
 785 442 l 1,3,-1
 965 1450 l 1,4,-1
 1215 1450 l 1,5,-1
 959 0 l 1,6,-1
 657 0 l 1,7,-1
 468 990 l 1,8,-1
 291 0 l 1,9,-1
 43 0 l 1,10,-1
 299 1450 l 1,0,-1
EndSplineSet
EndChar

StartChar: Xi
Encoding: 926 926 65
Width: 1200
GlyphClass: 2
Flags: W
AnchorPoint: "Anchor-23" 768 1500 basechar 0
AnchorPoint: "Anchor-20" 503 0 basechar 0
LayerCount: 2
Fore
SplineSet
237 1450 m 1,0,-1
 1285 1450 l 1,1,-1
 1250 1254 l 1,2,-1
 202 1254 l 1,3,-1
 237 1450 l 1,0,-1
16 196 m 1,4,-1
 1064 196 l 1,5,-1
 1029 0 l 1,6,-1
 -19 0 l 1,7,-1
 16 196 l 1,4,-1
257 860 m 1,8,-1
 1057 860 l 1,9,-1
 1022 662 l 1,10,-1
 222 662 l 1,11,-1
 257 860 l 1,8,-1
EndSplineSet
EndChar

StartChar: Omicron
Encoding: 927 927 66
Width: 1200
GlyphClass: 2
Flags: W
AnchorPoint: "Anchor-26" 1231 1450 basechar 0
AnchorPoint: "Anchor-25" 631 724 basechar 0
AnchorPoint: "Anchor-24" 329 1450 basechar 0
AnchorPoint: "Anchor-23" 765 1450 basechar 0
AnchorPoint: "Anchor-22" 953 20 basechar 0
AnchorPoint: "Anchor-20" 509 0 basechar 0
LayerCount: 2
Fore
SplineSet
209.5 111.5 m 128,-1,1
 106 243 106 243 106 481 c 0,2,3
 106 593 106 593 131 737 c 0,4,5
 174 979 174 979 262.5 1141 c 128,-1,6
 351 1303 351 1303 475.5 1382.5 c 128,-1,7
 600 1462 600 1462 752 1462 c 0,8,9
 945 1462 945 1462 1049.5 1337 c 128,-1,10
 1154 1212 1154 1212 1154 966 c 0,11,12
 1154 846 1154 846 1129 703 c 0,13,14
 1068 360 1068 360 916 170 c 128,-1,15
 764 -20 764 -20 519 -20 c 0,16,0
 313 -20 313 -20 209.5 111.5 c 128,-1,1
351 482 m 0,18,19
 351 352 351 352 392 276 c 128,-1,20
 433 200 433 200 523 200 c 0,21,22
 615 200 615 200 688.5 274.5 c 128,-1,23
 762 349 762 349 812 470.5 c 128,-1,24
 862 592 862 592 887 737 c 0,25,26
 909 864 909 864 909 959 c 0,27,28
 909 1088 909 1088 868.5 1165 c 128,-1,29
 828 1242 828 1242 737 1242 c 256,30,31
 646 1242 646 1242 571.5 1164.5 c 128,-1,32
 497 1087 497 1087 447.5 964.5 c 128,-1,33
 398 842 398 842 373 703 c 0,34,17
 351 584 351 584 351 482 c 0,18,19
EndSplineSet
EndChar

StartChar: Pi
Encoding: 928 928 67
Width: 1200
GlyphClass: 2
Flags: W
AnchorPoint: "Anchor-23" 768 1500 basechar 0
AnchorPoint: "Anchor-20" 503 0 basechar 0
LayerCount: 2
Fore
SplineSet
255 1450 m 1,0,-1
 1263 1450 l 1,1,-1
 1007 0 l 1,2,-1
 763 0 l 1,3,-1
 980 1230 l 1,4,-1
 462 1230 l 1,5,-1
 245 0 l 1,6,-1
 -1 0 l 1,7,-1
 255 1450 l 1,0,-1
EndSplineSet
EndChar

StartChar: Rho
Encoding: 929 929 68
Width: 1200
GlyphClass: 2
Flags: W
AnchorPoint: "Anchor-24" 295 1450 basechar 0
AnchorPoint: "Anchor-23" 768 1500 basechar 0
AnchorPoint: "Anchor-20" 503 0 basechar 0
LayerCount: 2
Fore
SplineSet
373 1450 m 1,0,-1
 705 1450 l 2,1,2
 898 1450 898 1450 1008.5 1375.5 c 128,-1,3
 1119 1301 1119 1301 1119 1126 c 0,4,5
 1119 1077 1119 1077 1108 1013 c 0,6,7
 1069 790 1069 790 926.5 692 c 128,-1,8
 784 594 784 594 577 594 c 2,9,-1
 474 594 l 1,10,-1
 369 0 l 1,11,-1
 117 0 l 1,12,-1
 373 1450 l 1,0,-1
556 806 m 2,13,14
 635 806 635 806 693 822 c 128,-1,15
 751 838 751 838 796 891 c 128,-1,16
 841 944 841 944 860 1049 c 0,17,18
 865 1075 865 1075 865 1105 c 0,19,20
 865 1189 865 1189 812.5 1217.5 c 128,-1,21
 760 1246 760 1246 662 1246 c 2,22,-1
 589 1246 l 1,23,-1
 511 806 l 1,24,-1
 556 806 l 2,13,14
EndSplineSet
EndChar

StartChar: Sigma
Encoding: 931 931 69
Width: 1200
GlyphClass: 2
Flags: W
AnchorPoint: "Anchor-23" 768 1500 basechar 0
AnchorPoint: "Anchor-20" 503 0 basechar 0
LayerCount: 2
Fore
SplineSet
10 148 m 1,0,-1
 510 740 l 1,1,-1
 220 1302 l 1,2,-1
 243 1450 l 1,3,-1
 1275 1450 l 1,4,-1
 1241 1258 l 1,5,-1
 486 1258 l 1,6,-1
 765 736 l 1,7,-1
 304 194 l 1,8,-1
 1053 194 l 1,9,-1
 1019 0 l 1,10,-1
 -13 0 l 1,11,-1
 10 148 l 1,0,-1
EndSplineSet
EndChar

StartChar: Tau
Encoding: 932 932 70
Width: 1200
GlyphClass: 2
Flags: W
AnchorPoint: "Anchor-25" 626 700 basechar 0
AnchorPoint: "Anchor-24" 243 1450 basechar 0
AnchorPoint: "Anchor-23" 600 1500 basechar 0
AnchorPoint: "Anchor-20" 600 0 basechar 0
LayerCount: 2
Fore
SplineSet
590 1222 m 1,0,-1
 202 1222 l 1,1,-1
 243 1450 l 1,2,-1
 1275 1450 l 1,3,-1
 1234 1222 l 1,4,-1
 848 1222 l 1,5,-1
 633 0 l 1,6,-1
 375 0 l 1,7,-1
 590 1222 l 1,0,-1
EndSplineSet
EndChar

StartChar: Upsilon
Encoding: 933 933 71
Width: 1200
GlyphClass: 2
Flags: W
AnchorPoint: "Anchor-24" 205 1406 basechar 0
AnchorPoint: "Anchor-23" 759 1454 basechar 0
AnchorPoint: "Anchor-20" 503 0 basechar 0
LayerCount: 2
Fore
SplineSet
499 608 m 1,0,-1
 212 1454 l 1,1,-1
 487 1454 l 1,2,-1
 648 864 l 1,3,-1
 1029 1454 l 1,4,-1
 1312 1454 l 1,5,-1
 731 608 l 1,6,-1
 621 0 l 1,7,-1
 389 0 l 1,8,-1
 499 608 l 1,0,-1
EndSplineSet
EndChar

StartChar: Phi
Encoding: 934 934 72
Width: 1200
GlyphClass: 2
Flags: W
AnchorPoint: "Anchor-26" 1271 1450 basechar 0
AnchorPoint: "Anchor-25" 611 612 basechar 0
AnchorPoint: "Anchor-24" 269 1454 basechar 0
AnchorPoint: "Anchor-23" 759 1450 basechar 0
AnchorPoint: "Anchor-22" 965 0 basechar 0
AnchorPoint: "Anchor-20" 503 0 basechar 0
LayerCount: 2
Fore
SplineSet
1071 1294 m 1,0,-1
 855 1294 l 1,1,-1
 842 1216 l 1,2,3
 1009 1195 1009 1195 1085 1113.5 c 128,-1,4
 1161 1032 1161 1032 1161 875 c 0,5,6
 1161 796 1161 796 1143 695 c 0,7,8
 1116 538 1116 538 1060.5 442 c 128,-1,9
 1005 346 1005 346 910 297 c 128,-1,10
 815 248 815 248 665 236 c 1,11,-1
 651 154 l 1,12,-1
 870 154 l 1,13,-1
 843 0 l 1,14,-1
 191 0 l 1,15,-1
 218 154 l 1,16,-1
 413 154 l 1,17,-1
 427 238 l 1,18,19
 256 256 256 256 178 334.5 c 128,-1,20
 100 413 100 413 100 566 c 0,21,22
 100 640 100 640 116 729 c 0,23,24
 145 899 145 899 202.5 1002 c 128,-1,25
 260 1105 260 1105 356.5 1157.5 c 128,-1,26
 453 1210 453 1210 605 1221 c 1,27,-1
 617 1294 l 1,28,-1
 419 1294 l 1,29,-1
 447 1450 l 1,30,-1
 1099 1450 l 1,31,-1
 1071 1294 l 1,0,-1
338 550 m 0,33,34
 338 479 338 479 368 442.5 c 128,-1,35
 398 406 398 406 471 395 c 1,36,-1
 593 1063 l 1,37,38
 520 1044 520 1044 473.5 997 c 128,-1,39
 427 950 427 950 400 878 c 128,-1,40
 373 806 373 806 355 701 c 0,41,32
 338 599 338 599 338 550 c 0,33,34
834 521.5 m 128,-1,43
 886 604 886 604 909 735 c 0,44,45
 924 825 924 825 924 880 c 0,46,47
 924 956 924 956 895.5 1002 c 128,-1,48
 867 1048 867 1048 801 1065 c 1,49,-1
 681 407 l 1,50,42
 782 439 782 439 834 521.5 c 128,-1,43
EndSplineSet
EndChar

StartChar: Chi
Encoding: 935 935 73
Width: 1200
GlyphClass: 2
Flags: W
AnchorPoint: "Anchor-23" 600 1450 basechar 0
AnchorPoint: "Anchor-21" 879 -70 basechar 0
AnchorPoint: "Anchor-20" 600 0 basechar 0
LayerCount: 2
Fore
SplineSet
544 1450 m 1,0,-1
 663 980 l 1,1,-1
 964 1450 l 1,2,-1
 1229 1450 l 1,3,-1
 805 770 l 1,4,-1
 1006 0 l 1,5,-1
 738 0 l 1,6,-1
 602 546 l 1,7,-1
 272 0 l 1,8,-1
 -4 0 l 1,9,-1
 463 758 l 1,10,-1
 278 1446 l 1,11,-1
 278 1263 l 1,12,-1
 49 1263 l 1,13,-1
 49 1450 l 1,14,-1
 544 1450 l 1,0,-1
EndSplineSet
EndChar

StartChar: Psi
Encoding: 936 936 74
Width: 1200
GlyphClass: 2
Flags: W
AnchorPoint: "Anchor-23" 763 1476 basechar 0
AnchorPoint: "Anchor-20" 503 0 basechar 0
LayerCount: 2
Fore
SplineSet
468 425 m 1,0,1
 312 452 312 452 233 549 c 128,-1,2
 154 646 154 646 154 809 c 0,3,4
 154 879 154 879 167 953 c 0,5,6
 176 1003 176 1003 188 1058 c 0,7,8
 208 1156 208 1156 219 1223.5 c 128,-1,9
 230 1291 230 1291 230 1352 c 0,10,11
 230 1416 230 1416 216 1462 c 1,12,-1
 417 1446 l 1,13,14
 424 1410 424 1410 424 1359 c 0,15,16
 424 1285 424 1285 412 1201.5 c 128,-1,17
 400 1118 400 1118 377 993 c 2,18,-1
 363 919 l 2,19,20
 350 844 350 844 350 792 c 0,21,22
 350 713 350 713 384 664.5 c 128,-1,23
 418 616 418 616 499 600 c 1,24,-1
 649 1450 l 1,25,-1
 873 1450 l 1,26,-1
 724 607 l 1,27,28
 804 628 804 628 854 676 c 128,-1,29
 904 724 904 724 931 791.5 c 128,-1,30
 958 859 958 859 975 953 c 2,31,-1
 988 1034 l 2,32,33
 1011 1182 1011 1182 1035.5 1284.5 c 128,-1,34
 1060 1387 1060 1387 1106 1462 c 1,35,-1
 1311 1446 l 1,36,37
 1257 1355 1257 1355 1225 1228.5 c 128,-1,38
 1193 1102 1193 1102 1161 919 c 0,39,40
 1121 693 1121 693 1007 569.5 c 128,-1,41
 893 446 893 446 691 422 c 1,42,-1
 617 0 l 1,43,-1
 393 0 l 1,44,-1
 468 425 l 1,0,1
EndSplineSet
EndChar

StartChar: uni03A9
Encoding: 937 937 75
Width: 1200
GlyphClass: 2
Flags: W
AnchorPoint: "Anchor-24" 325 1450 basechar 0
AnchorPoint: "Anchor-23" 768 1500 basechar 0
AnchorPoint: "Anchor-21" 963 0 basechar 0
AnchorPoint: "Anchor-20" 503 0 basechar 0
LayerCount: 2
Fore
SplineSet
76 200 m 1,0,-1
 293 200 l 1,1,-1
 307 232 l 1,2,3
 248 263 248 263 199.5 324.5 c 128,-1,4
 151 386 151 386 122.5 476.5 c 128,-1,5
 94 567 94 567 94 678 c 0,6,7
 94 757 94 757 108 835 c 0,8,9
 142 1025 142 1025 233 1167 c 128,-1,10
 324 1309 324 1309 457 1386.5 c 128,-1,11
 590 1464 590 1464 746 1464 c 0,12,13
 894 1464 894 1464 997.5 1406 c 128,-1,14
 1101 1348 1101 1348 1154 1239.5 c 128,-1,15
 1207 1131 1207 1131 1207 980 c 0,16,17
 1207 898 1207 898 1190 801 c 0,18,19
 1164 652 1164 652 1102 534.5 c 128,-1,20
 1040 417 1040 417 960 340 c 128,-1,21
 880 263 880 263 796 226 c 1,22,-1
 784 200 l 1,23,-1
 1000 200 l 1,24,-1
 965 0 l 1,25,-1
 563 0 l 1,26,-1
 604 277 l 1,27,28
 681 286 681 286 756 385.5 c 128,-1,29
 831 485 831 485 886.5 624.5 c 128,-1,30
 942 764 942 764 964 887 c 0,31,32
 974 949 974 949 974 997 c 0,33,34
 974 1124 974 1124 916.5 1204 c 128,-1,35
 859 1284 859 1284 743 1284 c 0,36,37
 639 1284 639 1284 555 1216.5 c 128,-1,38
 471 1149 471 1149 416 1041.5 c 128,-1,39
 361 934 361 934 340 813 c 0,40,41
 323 719 323 719 323 622 c 0,42,43
 323 480 323 480 362.5 383 c 128,-1,44
 402 286 402 286 484 275 c 1,45,-1
 443 0 l 1,46,-1
 41 0 l 1,47,-1
 76 200 l 1,0,-1
EndSplineSet
EndChar

StartChar: alpha
Encoding: 945 945 76
Width: 1200
VWidth: 2048
GlyphClass: 2
Flags: W
LayerCount: 2
Fore
SplineSet
17 348 m 4,0,1
 17 575 17 575 205.5 748.5 c 132,-1,2
 394 922 394 922 611 922 c 4,3,4
 662 922 662 922 703 903.5 c 132,-1,5
 744 885 744 885 764.5 866.5 c 132,-1,6
 785 848 785 848 804.5 812 c 132,-1,7
 824 776 824 776 826 768 c 132,-1,8
 828 760 828 760 837 733 c 5,9,10
 860 850 860 850 898 889 c 4,11,12
 933 922 933 922 984 922 c 4,13,14
 1019 922 1019 922 1041.5 901.5 c 132,-1,15
 1064 881 1064 881 1064 848 c 4,16,17
 1064 795 1064 795 983 588 c 132,-1,18
 902 381 902 381 902 311 c 4,19,20
 902 200 902 200 992 201 c 4,21,22
 1033 201 1033 201 1074 226.5 c 132,-1,23
 1115 252 1115 252 1134 295 c 4,24,25
 1150 328 1150 328 1162.5 328 c 132,-1,26
 1175 328 1175 328 1185 313.5 c 132,-1,27
 1195 299 1195 299 1195 272 c 4,28,29
 1195 186 1195 186 1103 87 c 132,-1,30
 1011 -12 1011 -12 890 -12 c 4,31,32
 738 -12 738 -12 728 180 c 5,33,34
 576 -13 576 -13 380 -12 c 4,35,36
 224 -12 224 -12 120.5 87 c 132,-1,37
 17 186 17 186 17 348 c 4,0,1
218 332 m 4,38,39
 218 228 218 228 265 158 c 132,-1,40
 312 88 312 88 409 88 c 4,41,42
 559 88 559 88 674.5 252 c 132,-1,43
 790 416 790 416 790 618 c 4,44,45
 790 753 790 753 732.5 808.5 c 132,-1,46
 675 864 675 864 603 864 c 4,47,48
 447 864 447 864 332.5 690 c 132,-1,49
 218 516 218 516 218 332 c 4,38,39
EndSplineSet
EndChar

StartChar: beta
Encoding: 946 946 77
Width: 1200
VWidth: 2048
GlyphClass: 2
Flags: W
LayerCount: 2
Fore
SplineSet
-16 -440 m 4,0,1
 -16 -430 -16 -430 -5 -381 c 132,-1,2
 6 -332 6 -332 23.5 -268.5 c 132,-1,3
 41 -205 41 -205 57.5 -144.5 c 132,-1,4
 74 -84 74 -84 86 -39 c 6,5,-1
 98 6 l 5,6,-1
 252 547 l 6,7,8
 256 559 256 559 274.5 628.5 c 132,-1,9
 293 698 293 698 300 726 c 132,-1,10
 307 754 307 754 328.5 821.5 c 132,-1,11
 350 889 350 889 365.5 927 c 132,-1,12
 381 965 381 965 408.5 1025 c 132,-1,13
 436 1085 436 1085 461.5 1126 c 132,-1,14
 487 1167 487 1167 524 1215.5 c 132,-1,15
 561 1264 561 1264 600 1300 c 4,16,17
 741 1433 741 1433 893 1434 c 4,18,19
 1020 1434 1020 1434 1119.5 1366 c 132,-1,20
 1219 1298 1219 1298 1219 1174 c 4,21,22
 1219 1068 1219 1068 1144 970 c 132,-1,23
 1069 872 1069 872 944 819 c 5,24,25
 1094 719 1094 719 1094 532 c 4,26,27
 1094 317 1094 317 918.5 152.5 c 132,-1,28
 743 -12 743 -12 526 -12 c 4,29,30
 413 -12 413 -12 305 35 c 5,31,32
 303 27 303 27 265 -101 c 132,-1,33
 227 -229 227 -229 188 -375 c 5,34,-1
 186 -385 l 6,35,36
 184 -397 184 -397 180 -407.5 c 132,-1,37
 176 -418 176 -418 171 -433.5 c 132,-1,38
 166 -449 166 -449 155.5 -462 c 132,-1,39
 145 -475 145 -475 133 -486.5 c 132,-1,40
 121 -498 121 -498 101.5 -505 c 132,-1,41
 82 -512 82 -512 59 -512 c 4,42,43
 26 -512 26 -512 5 -492.5 c 132,-1,44
 -16 -473 -16 -473 -16 -440 c 4,0,1
354 193 m 4,45,46
 354 144 354 144 407.5 94.5 c 132,-1,47
 461 45 461 45 541 45 c 4,48,49
 641 45 641 45 720 144.5 c 132,-1,50
 799 244 799 244 833.5 363.5 c 132,-1,51
 868 483 868 483 868 580 c 4,52,53
 868 682 868 682 827 727 c 132,-1,54
 786 772 786 772 735 772 c 4,55,56
 717 772 717 772 644 751.5 c 132,-1,57
 571 731 571 731 553 731 c 4,58,59
 522 731 522 731 504.5 750.5 c 132,-1,60
 487 770 487 770 487 797 c 4,61,62
 487 842 487 842 519 877.5 c 132,-1,63
 551 913 551 913 596 913 c 4,64,65
 627 913 627 913 680 893.5 c 132,-1,66
 733 874 733 874 764 874 c 4,67,68
 856 874 856 874 938 966.5 c 132,-1,69
 1020 1059 1020 1059 1020 1167 c 4,70,71
 1020 1247 1020 1247 976 1291 c 132,-1,72
 932 1335 932 1335 862 1335 c 4,73,74
 749 1335 749 1335 637.5 1227.5 c 132,-1,75
 526 1120 526 1120 485 928 c 4,76,77
 479 903 479 903 452.5 695 c 132,-1,78
 426 487 426 487 360 238 c 4,79,80
 354 213 354 213 354 193 c 4,45,46
EndSplineSet
EndChar

StartChar: gamma
Encoding: 947 947 78
Width: 1200
GlyphClass: 2
Flags: W
HStem: -422 42<702 750> 684 220<380 487>
LayerCount: 2
Fore
SplineSet
869 380 m 5,0,1
 933 524 933 524 995 648 c 132,-1,2
 1057 772 1057 772 1087 824 c 132,-1,3
 1117 876 1117 876 1121 880 c 4,4,5
 1131 888 1131 888 1159 888 c 4,6,7
 1205 888 1205 888 1205 860 c 4,8,9
 1205 854 1205 854 1171 792 c 4,10,11
 993 472 993 472 879 154 c 4,12,13
 873 140 873 140 871 110 c 4,14,15
 843 -132 843 -132 779 -324 c 4,16,17
 747 -422 747 -422 697 -422 c 4,18,19
 649 -422 649 -422 649 -352 c 4,20,21
 649 -248 649 -248 765 100 c 4,22,23
 783 154 783 154 783 236 c 4,24,25
 783 458 783 458 713 562 c 4,26,27
 627 684 627 684 403 684 c 4,28,29
 139 684 139 684 89 536 c 4,30,31
 79 512 79 512 41 512 c 4,32,33
 -5 512 -5 512 -5 542 c 4,34,35
 -5 576 -5 576 27 634 c 132,-1,36
 59 692 59 692 113 753 c 132,-1,37
 167 814 167 814 257 859 c 132,-1,38
 347 904 347 904 445 904 c 4,39,40
 533 904 533 904 606 861 c 132,-1,41
 679 818 679 818 723 759 c 132,-1,42
 767 700 767 700 801 622 c 132,-1,43
 835 544 835 544 849 487 c 132,-1,44
 863 430 863 430 869 380 c 5,0,1
EndSplineSet
EndChar

StartChar: delta
Encoding: 948 948 79
Width: 1200
VWidth: 1000
GlyphClass: 2
Flags: W
HStem: -24 72<493 587 493 630> 1342 94<620 661>
VStem: 92 208<238 302 238 412> 448 86<1243 1283 1243 1288> 724 228<455 554>
LayerCount: 2
Fore
SplineSet
607 888 m 5,0,1
 487 1102 487 1102 487 1216 c 4,2,3
 487 1318 487 1318 556 1377 c 132,-1,4
 625 1436 625 1436 713 1436 c 4,5,6
 775 1436 775 1436 925 1402 c 4,7,8
 1013 1384 1013 1384 1039 1370 c 132,-1,9
 1065 1356 1065 1356 1065 1314 c 4,10,11
 1065 1274 1065 1274 1034 1240 c 132,-1,12
 1003 1206 1003 1206 959 1206 c 4,13,14
 911 1206 911 1206 815 1282 c 4,15,16
 731 1342 731 1342 667 1342 c 4,17,18
 633 1342 633 1342 610 1327 c 132,-1,19
 587 1312 587 1312 580 1299 c 132,-1,20
 573 1286 573 1286 573 1278 c 4,21,22
 573 1254 573 1254 597 1215 c 132,-1,23
 621 1176 621 1176 676 1119 c 132,-1,24
 731 1062 731 1062 754 1039 c 132,-1,25
 777 1016 777 1016 837 960 c 4,26,27
 913 890 913 890 952 814 c 132,-1,28
 991 738 991 738 991 616 c 4,29,30
 991 366 991 366 860 171 c 132,-1,31
 729 -24 729 -24 537 -24 c 4,32,33
 363 -24 363 -24 247 64 c 132,-1,34
 131 152 131 152 131 324 c 4,35,36
 131 396 131 396 157 476 c 132,-1,37
 183 556 183 556 235 640 c 132,-1,38
 287 724 287 724 384 791 c 132,-1,39
 481 858 481 858 607 888 c 5,0,1
651 814 m 5,40,41
 511 770 511 770 431 622 c 4,42,43
 401 560 401 560 370 441 c 132,-1,44
 339 322 339 322 339 250 c 4,45,46
 339 150 339 150 389 102 c 4,47,48
 449 48 449 48 543 48 c 4,49,50
 619 48 619 48 673 143 c 132,-1,51
 727 238 727 238 745 331 c 132,-1,52
 763 424 763 424 763 484 c 4,53,54
 763 640 763 640 651 814 c 5,40,41
EndSplineSet
EndChar

StartChar: epsilon
Encoding: 949 949 80
Width: 1200
VWidth: 2048
GlyphClass: 2
Flags: W
LayerCount: 2
Fore
SplineSet
111 193 m 4,0,1
 111 259 111 259 142.5 308.5 c 132,-1,2
 174 358 174 358 235.5 393 c 132,-1,3
 297 428 297 428 335 444.5 c 132,-1,4
 373 461 373 461 436 481 c 5,5,6
 364 506 364 506 329.5 519 c 132,-1,7
 295 532 295 532 260 568 c 132,-1,8
 225 604 225 604 225 653 c 4,9,10
 225 698 225 698 247.5 741 c 132,-1,11
 270 784 270 784 321.5 826 c 132,-1,12
 373 868 373 868 475 895 c 132,-1,13
 577 922 577 922 717 922 c 4,14,15
 891 922 891 922 993.5 836 c 132,-1,16
 1096 750 1096 750 1096 686 c 4,17,18
 1096 645 1096 645 1060 614.5 c 132,-1,19
 1024 584 1024 584 983 584 c 4,20,21
 960 584 960 584 946 596 c 132,-1,22
 932 608 932 608 928 616.5 c 132,-1,23
 924 625 924 625 919 651 c 6,24,-1
 917 676 l 5,25,26
 903 748 903 748 847.5 796 c 132,-1,27
 792 844 792 844 702 844 c 4,28,29
 606 844 606 844 534.5 790.5 c 132,-1,30
 463 737 463 737 463 670 c 4,31,32
 463 615 463 615 520 576 c 132,-1,33
 577 537 577 537 610 537 c 4,34,35
 622 537 622 537 671.5 552 c 132,-1,36
 721 567 721 567 741 567 c 4,37,38
 770 567 770 567 787.5 551 c 132,-1,39
 805 535 805 535 805 506 c 4,40,41
 805 467 805 467 773 433 c 132,-1,42
 741 399 741 399 700 399 c 4,43,44
 669 399 669 399 636.5 413.5 c 132,-1,45
 604 428 604 428 588 428 c 4,46,47
 531 428 531 428 439.5 361.5 c 132,-1,48
 348 295 348 295 348 211 c 4,49,50
 348 158 348 158 395 122 c 132,-1,51
 442 86 442 86 526 86 c 4,52,53
 768 86 768 86 899 215 c 4,54,55
 905 219 905 219 913.5 228.5 c 132,-1,56
 922 238 922 238 927 243 c 132,-1,57
 932 248 932 248 940 252 c 132,-1,58
 948 256 948 256 956 256 c 4,59,60
 993 256 993 256 993 221 c 4,61,62
 993 205 993 205 976.5 178.5 c 132,-1,63
 960 152 960 152 921.5 119 c 132,-1,64
 883 86 883 86 827.5 56.5 c 132,-1,65
 772 27 772 27 684 7.5 c 132,-1,66
 596 -12 596 -12 491 -12 c 4,67,68
 423 -12 423 -12 361 -3 c 132,-1,69
 299 6 299 6 240.5 27.5 c 132,-1,70
 182 49 182 49 146.5 92.5 c 132,-1,71
 111 136 111 136 111 193 c 4,0,1
EndSplineSet
EndChar

StartChar: zeta
Encoding: 950 950 81
Width: 1200
VWidth: 2048
GlyphClass: 2
Flags: W
LayerCount: 2
Fore
SplineSet
146 311 m 4,0,1
 146 493 146 493 253.5 716.5 c 132,-1,2
 361 940 361 940 535 1065 c 5,3,-1
 590 1102 l 5,4,5
 467 1137 467 1137 467 1221 c 4,6,7
 467 1313 467 1313 564.5 1367 c 132,-1,8
 662 1421 662 1421 770 1421 c 4,9,10
 819 1421 819 1421 819 1384 c 4,11,12
 819 1355 819 1355 795 1337 c 4,13,14
 787 1331 787 1331 731.5 1320 c 132,-1,15
 676 1309 676 1309 649 1274 c 4,16,17
 635 1254 635 1254 635 1235 c 4,18,19
 635 1169 635 1169 774 1169 c 4,20,21
 803 1169 803 1169 877.5 1202 c 132,-1,22
 952 1235 952 1235 995 1235 c 4,23,24
 1044 1235 1044 1235 1071 1207.5 c 132,-1,25
 1098 1180 1098 1180 1098 1145 c 4,26,27
 1098 1090 1098 1090 1050 1045.5 c 132,-1,28
 1002 1001 1002 1001 940 1001 c 4,29,30
 897 1001 897 1001 835.5 1033 c 132,-1,31
 774 1065 774 1065 752 1065 c 4,32,33
 711 1065 711 1065 648.5 1031 c 132,-1,34
 586 997 586 997 512 932.5 c 132,-1,35
 438 868 438 868 369.5 750.5 c 132,-1,36
 301 633 301 633 266 485 c 4,37,38
 258 454 258 454 258 422 c 4,39,40
 258 352 258 352 303 292.5 c 132,-1,41
 348 233 348 233 467 233 c 6,42,-1
 701 233 l 6,43,44
 820 233 820 233 871 164.5 c 132,-1,45
 922 96 922 96 922 2 c 4,46,47
 922 -119 922 -119 856.5 -207 c 132,-1,48
 791 -295 791 -295 689.5 -339 c 132,-1,49
 588 -383 588 -383 490.5 -402.5 c 132,-1,50
 393 -422 393 -422 301 -422 c 4,51,52
 246 -422 246 -422 246 -385 c 4,53,54
 246 -324 246 -324 326 -324 c 6,55,-1
 338 -324 l 6,56,57
 533 -324 533 -324 633 -275.5 c 132,-1,58
 733 -227 733 -227 733 -100 c 4,59,60
 733 0 733 0 643 0 c 6,61,-1
 406 0 l 6,62,63
 263 0 263 0 204.5 89 c 132,-1,64
 146 178 146 178 146 311 c 4,0,1
EndSplineSet
EndChar

StartChar: eta
Encoding: 951 951 82
Width: 1200
VWidth: 2048
GlyphClass: 2
Flags: W
LayerCount: 2
Fore
SplineSet
44 676 m 4,0,1
 44 735 44 735 153.5 828.5 c 132,-1,2
 263 922 263 922 398 922 c 4,3,4
 574 922 574 922 644 745 c 5,5,6
 765 921 765 921 906 922 c 4,7,8
 986 922 986 922 1049.5 859.5 c 132,-1,9
 1113 797 1113 797 1113 641 c 4,10,11
 1113 563 1113 563 1048.5 293 c 132,-1,12
 984 23 984 23 937 -334 c 4,13,14
 927 -404 927 -404 923 -420 c 4,15,16
 909 -461 909 -461 872 -489.5 c 132,-1,17
 835 -518 835 -518 784 -518 c 4,18,19
 743 -518 743 -518 717 -494.5 c 132,-1,20
 691 -471 691 -471 691 -432 c 4,21,22
 691 -399 691 -399 702 -365 c 6,23,-1
 923 520 l 6,24,25
 952 643 952 643 951 700 c 4,26,27
 951 809 951 809 874 809 c 4,28,29
 792 809 792 809 727.5 715 c 132,-1,30
 663 621 663 621 630 518 c 4,31,32
 618 477 618 477 574 298 c 132,-1,33
 530 119 530 119 523 98 c 4,34,35
 507 55 507 55 469 25.5 c 132,-1,36
 431 -4 431 -4 382 -4 c 4,37,38
 341 -4 341 -4 315.5 18.5 c 132,-1,39
 290 41 290 41 290 80 c 4,40,41
 290 100 290 100 409 573 c 4,42,43
 423 626 423 626 423 668 c 4,44,45
 423 738 423 738 393.5 766.5 c 132,-1,46
 364 795 364 795 327 795 c 4,47,48
 284 795 284 795 248 769 c 132,-1,49
 212 743 212 743 191.5 711.5 c 132,-1,50
 171 680 171 680 144.5 654.5 c 132,-1,51
 118 629 118 629 93 629 c 4,52,53
 70 629 70 629 57 643.5 c 132,-1,54
 44 658 44 658 44 676 c 4,0,1
EndSplineSet
EndChar

StartChar: theta
Encoding: 952 952 83
Width: 1200
VWidth: 1000
GlyphClass: 2
Flags: W
HStem: -16 72<414 463 414 491> 646 96<396 790 372 814> 1332 72<712 802>
VStem: 92 214<261 317 259 487> 880 214<1063 1156 905 1185>
LayerCount: 2
Fore
SplineSet
1096 980 m 4,0,1
 1096 838 1096 838 1042 635 c 132,-1,2
 988 432 988 432 874 266 c 4,3,4
 778 122 778 122 657 53 c 132,-1,5
 536 -16 536 -16 426 -16 c 4,6,7
 282 -16 282 -16 188 91 c 132,-1,8
 94 198 94 198 94 406 c 4,9,10
 94 534 94 534 139 713 c 132,-1,11
 184 892 184 892 258 1028 c 4,12,13
 364 1220 364 1220 500 1312 c 132,-1,14
 636 1404 636 1404 766 1404 c 4,15,16
 818 1404 818 1404 870 1386 c 132,-1,17
 922 1368 922 1368 976 1325 c 132,-1,18
 1030 1282 1030 1282 1063 1193 c 132,-1,19
 1096 1104 1096 1104 1096 980 c 4,0,1
398 742 m 5,20,-1
 816 742 l 5,21,22
 882 994 882 994 882 1126 c 4,23,24
 882 1332 882 1332 762 1332 c 4,25,26
 644 1332 644 1332 538 1144 c 4,27,28
 464 1016 464 1016 398 742 c 5,20,-1
792 646 m 5,29,-1
 374 646 l 5,30,31
 308 388 308 388 308 260 c 4,32,33
 308 180 308 180 332 126 c 4,34,35
 364 56 364 56 430 56 c 4,36,37
 456 56 456 56 483 65 c 132,-1,38
 510 74 510 74 552 110 c 132,-1,39
 594 146 594 146 632 206 c 132,-1,40
 670 266 670 266 713 380 c 132,-1,41
 756 494 756 494 792 646 c 5,29,-1
EndSplineSet
EndChar

StartChar: iota
Encoding: 953 953 84
Width: 1200
VWidth: 2048
GlyphClass: 2
Flags: W
LayerCount: 2
Fore
SplineSet
340 174 m 4,0,1
 340 205 340 205 366.5 312.5 c 132,-1,2
 393 420 393 420 441.5 601 c 132,-1,3
 490 782 490 782 518 909 c 5,4,-1
 752 909 l 5,5,-1
 549 256 l 6,6,7
 539 215 539 215 539 209 c 4,8,9
 539 182 539 182 563.5 161.5 c 132,-1,10
 588 141 588 141 625 141 c 4,11,12
 674 141 674 141 711 177 c 132,-1,13
 748 213 748 213 775.5 250 c 132,-1,14
 803 287 803 287 832 287 c 4,15,16
 844 287 844 287 855.5 277.5 c 132,-1,17
 867 268 867 268 867 256 c 4,18,19
 867 246 867 246 841 205 c 132,-1,20
 815 164 815 164 774 115 c 132,-1,21
 733 66 733 66 668.5 28 c 132,-1,22
 604 -10 604 -10 541 -10 c 4,23,24
 457 -10 457 -10 398.5 41 c 132,-1,25
 340 92 340 92 340 174 c 4,0,1
EndSplineSet
EndChar

StartChar: kappa
Encoding: 954 954 85
Width: 1200
VWidth: 1000
GlyphClass: 2
Flags: W
HStem: -16 72<994 1055 994 1094> 654 234<983 1053>
VStem: 752 222<278 344>
LayerCount: 2
Fore
SplineSet
36 164 m 6,0,-1
 124 516 l 5,1,-1
 194 798 l 6,2,3
 210 856 210 856 250 880 c 132,-1,4
 290 904 290 904 326 904 c 4,5,6
 370 904 370 904 395 877 c 132,-1,7
 420 850 420 850 420 816 c 4,8,9
 420 802 420 802 388 672 c 4,10,11
 382 650 382 650 371 605 c 132,-1,12
 360 560 360 560 354 538 c 5,13,14
 432 574 432 574 598 704 c 4,15,16
 664 758 664 758 706 788 c 132,-1,17
 748 818 748 818 824 853 c 132,-1,18
 900 888 900 888 964 888 c 4,19,20
 1006 888 1006 888 1031 869 c 132,-1,21
 1056 850 1056 850 1062 831 c 132,-1,22
 1068 812 1068 812 1068 794 c 4,23,24
 1068 744 1068 744 1027 699 c 132,-1,25
 986 654 986 654 926 654 c 4,26,27
 884 654 884 654 856 679 c 132,-1,28
 828 704 828 704 828 748 c 4,29,30
 828 766 828 766 834 784 c 5,31,32
 748 742 748 742 622 640 c 4,33,34
 480 530 480 530 442 508 c 5,35,36
 648 490 648 490 728 466 c 4,37,38
 890 416 890 416 890 286 c 4,39,40
 890 264 890 264 880 220 c 4,41,42
 868 176 868 176 868 136 c 4,43,44
 868 100 868 100 878 81 c 132,-1,45
 888 62 888 62 897 59 c 132,-1,46
 906 56 906 56 920 56 c 4,47,48
 1024 56 1024 56 1086 284 c 4,49,50
 1094 312 1094 312 1102 318 c 132,-1,51
 1110 324 1110 324 1136 324 c 4,52,53
 1184 324 1184 324 1184 296 c 4,54,55
 1184 284 1184 284 1168 239 c 132,-1,56
 1152 194 1152 194 1123 135 c 132,-1,57
 1094 76 1094 76 1036 30 c 132,-1,58
 978 -16 978 -16 910 -16 c 4,59,60
 806 -16 806 -16 730 41 c 132,-1,61
 654 98 654 98 654 190 c 4,62,63
 654 230 654 230 662 238 c 4,64,65
 668 274 668 274 668 284 c 4,66,67
 668 426 668 426 328 434 c 5,68,-1
 250 128 l 6,69,70
 242 90 242 90 232 65 c 132,-1,71
 222 40 222 40 190 12 c 132,-1,72
 158 -16 158 -16 110 -16 c 4,73,74
 66 -16 66 -16 41 11 c 132,-1,75
 16 38 16 38 16 72 c 4,76,77
 16 88 16 88 36 164 c 6,0,-1
EndSplineSet
EndChar

StartChar: lambda
Encoding: 955 955 86
Width: 1200
VWidth: 2048
GlyphClass: 2
Flags: W
LayerCount: 2
Fore
SplineSet
55 0 m 5,0,-1
 754 881 l 6,1,2
 779 912 779 912 778 942 c 6,3,-1
 778 1026 l 6,4,5
 778 1069 778 1069 770 1101 c 132,-1,6
 762 1133 762 1133 752 1150 c 132,-1,7
 742 1167 742 1167 724.5 1178.5 c 132,-1,8
 707 1190 707 1190 696.5 1193 c 132,-1,9
 686 1196 686 1196 667.5 1199 c 132,-1,10
 649 1202 649 1202 647 1202 c 4,11,12
 637 1204 637 1204 626 1207 c 132,-1,13
 615 1210 615 1210 608.5 1212 c 132,-1,14
 602 1214 602 1214 598 1214 c 4,15,16
 588 1214 588 1214 561.5 1196 c 132,-1,17
 535 1178 535 1178 514 1178 c 4,18,19
 471 1178 471 1178 471 1217 c 4,20,21
 471 1235 471 1235 502 1276 c 4,22,23
 572 1364 572 1364 620 1399 c 132,-1,24
 668 1434 668 1434 717 1434 c 4,25,26
 780 1434 780 1434 820 1397 c 132,-1,27
 860 1360 860 1360 876.5 1291.5 c 132,-1,28
 893 1223 893 1223 897 1172.5 c 132,-1,29
 901 1122 901 1122 901 1051 c 6,30,-1
 901 375 l 6,31,32
 901 252 901 252 952 229 c 5,33,34
 1009 213 1009 213 1030 213 c 4,35,36
 1040 213 1040 213 1063 229.5 c 132,-1,37
 1086 246 1086 246 1104 246 c 4,38,39
 1147 246 1147 246 1147 205 c 4,40,41
 1147 182 1147 182 1094 113 c 4,42,43
 1043 47 1043 47 1008 18.5 c 132,-1,44
 973 -10 973 -10 926 -10 c 4,45,46
 875 -10 875 -10 842 20.5 c 132,-1,47
 809 51 809 51 797 108.5 c 132,-1,48
 785 166 785 166 781.5 207 c 132,-1,49
 778 248 778 248 778 311 c 6,50,-1
 778 600 l 5,51,-1
 309 25 l 6,52,53
 286 0 286 0 256 0 c 6,54,-1
 55 0 l 5,0,-1
EndSplineSet
EndChar

StartChar: uni03BC
Encoding: 956 956 87
Width: 1200
GlyphClass: 2
Flags: W
HStem: -422 42<153 193> -16 72<571 618 1097 1133> 864 40<438 521>
LayerCount: 2
Fore
SplineSet
442 664 m 5,0,-1
 362 352 l 6,1,2
 342 262 342 262 342 214 c 4,3,4
 342 56 342 56 490 56 c 4,5,6
 582 56 582 56 668 128 c 4,7,8
 736 186 736 186 746 228 c 6,9,-1
 884 782 l 6,10,11
 898 838 898 838 938 863 c 132,-1,12
 978 888 978 888 1016 888 c 4,13,14
 1060 888 1060 888 1085 861 c 132,-1,15
 1110 834 1110 834 1110 800 c 4,16,17
 1110 782 1110 782 1078 660 c 4,18,19
 1052 564 1052 564 1034 480 c 6,20,-1
 982 276 l 6,21,22
 954 164 954 164 954 130 c 4,23,24
 954 56 954 56 1000 56 c 4,25,26
 1086 56 1086 56 1136 256 c 4,27,28
 1150 312 1150 312 1152 314 c 4,29,30
 1162 324 1162 324 1192 324 c 4,31,32
 1240 324 1240 324 1240 296 c 4,33,34
 1240 288 1240 288 1232 259 c 132,-1,35
 1224 230 1224 230 1205 182 c 132,-1,36
 1186 134 1186 134 1164 98 c 4,37,38
 1098 -16 1098 -16 990 -16 c 4,39,40
 922 -16 922 -16 855 13 c 132,-1,41
 788 42 788 42 756 104 c 5,42,43
 622 -16 622 -16 476 -16 c 4,44,45
 360 -16 360 -16 278 16 c 5,46,47
 206 -304 206 -304 186 -344 c 4,48,49
 148 -422 148 -422 66 -422 c 4,50,51
 30 -422 30 -422 1 -400 c 132,-1,52
 -28 -378 -28 -378 -28 -334 c 4,53,54
 -28 -314 -28 -314 -20 -282 c 6,55,-1
 246 780 l 6,56,57
 276 904 276 904 382 904 c 4,58,59
 426 904 426 904 451 877 c 132,-1,60
 476 850 476 850 476 816 c 4,61,62
 476 812 476 812 442 664 c 5,0,-1
EndSplineSet
EndChar

StartChar: nu
Encoding: 957 957 88
Width: 1200
VWidth: 1000
GlyphClass: 2
Flags: W
HStem: 0 42<125 136 136 192> 794 110
LayerCount: 2
Fore
SplineSet
466 868 m 5,0,-1
 278 108 l 5,1,2
 486 176 486 176 684 368 c 4,3,4
 856 544 856 544 928 798 c 4,5,6
 946 858 946 858 986 881 c 132,-1,7
 1026 904 1026 904 1060 904 c 4,8,9
 1104 904 1104 904 1129 878 c 132,-1,10
 1154 852 1154 852 1154 816 c 4,11,12
 1154 790 1154 790 1135 728 c 132,-1,13
 1116 666 1116 666 1040 543 c 132,-1,14
 964 420 964 420 844 320 c 4,15,16
 538 64 538 64 140 0 c 5,17,-1
 84 0 l 6,18,19
 38 0 38 0 38 36 c 5,20,-1
 224 790 l 5,21,22
 176 794 176 794 140 794 c 4,23,24
 86 794 86 794 86 830 c 4,25,26
 86 856 86 856 98 870 c 132,-1,27
 110 884 110 884 121 886 c 132,-1,28
 132 888 132 888 152 890 c 6,29,-1
 402 902 l 6,30,31
 466 906 466 906 466 868 c 5,0,-1
EndSplineSet
EndChar

StartChar: xi
Encoding: 958 958 89
Width: 1200
VWidth: 2048
GlyphClass: 2
Flags: W
LayerCount: 2
Fore
SplineSet
142 283 m 4,0,1
 142 553 142 553 449 664 c 5,2,3
 324 738 324 738 324 840 c 4,4,5
 324 916 324 916 374.5 986.5 c 132,-1,6
 425 1057 425 1057 503 1100 c 5,7,8
 368 1139 368 1139 368 1223 c 4,9,10
 368 1309 368 1309 463 1365 c 132,-1,11
 558 1421 558 1421 671 1421 c 4,12,13
 722 1421 722 1421 722 1384 c 4,14,15
 722 1353 722 1353 693 1335 c 4,16,17
 685 1329 685 1329 652 1324 c 132,-1,18
 619 1319 619 1319 588.5 1305.5 c 132,-1,19
 558 1292 558 1292 544 1262 c 4,20,21
 538 1250 538 1250 537 1239 c 4,22,23
 537 1202 537 1202 594.5 1185.5 c 132,-1,24
 652 1169 652 1169 687 1169 c 4,25,26
 720 1169 720 1169 806 1195 c 132,-1,27
 892 1221 892 1221 937 1221 c 4,28,29
 986 1221 986 1221 1019 1197.5 c 132,-1,30
 1052 1174 1052 1174 1052 1137 c 4,31,32
 1052 1092 1052 1092 1005.5 1053 c 132,-1,33
 959 1014 959 1014 886 1014 c 4,34,35
 841 1014 841 1014 765 1039.5 c 132,-1,36
 689 1065 689 1065 664 1065 c 4,37,38
 598 1065 598 1065 511.5 1004.5 c 132,-1,39
 425 944 425 944 425 858 c 4,40,41
 425 786 425 786 506 750.5 c 132,-1,42
 587 715 587 715 642 715 c 4,43,44
 660 715 660 715 749.5 740.5 c 132,-1,45
 839 766 839 766 886 766 c 4,46,47
 941 766 941 766 970.5 742.5 c 132,-1,48
 1000 719 1000 719 1000 684 c 4,49,50
 1000 637 1000 637 954 598 c 132,-1,51
 908 559 908 559 836 559 c 4,52,53
 789 559 789 559 713.5 585.5 c 132,-1,54
 638 612 638 612 613 612 c 4,55,56
 584 612 584 612 529 598 c 132,-1,57
 474 584 474 584 409.5 555 c 132,-1,58
 345 526 345 526 298 475 c 132,-1,59
 251 424 251 424 251 360 c 4,60,61
 251 233 251 233 484 233 c 6,62,-1
 707 233 l 6,63,64
 830 233 830 233 881.5 166.5 c 132,-1,65
 933 100 933 100 933 2 c 4,66,67
 933 -94 933 -94 889 -172 c 132,-1,68
 845 -250 845 -250 777.5 -295 c 132,-1,69
 710 -340 710 -340 622.5 -369.5 c 132,-1,70
 535 -399 535 -399 459.5 -410.5 c 132,-1,71
 384 -422 384 -422 312 -422 c 4,72,73
 257 -422 257 -422 257 -385 c 4,74,75
 257 -344 257 -344 300 -328 c 4,76,77
 310 -324 310 -324 391 -321.5 c 132,-1,78
 472 -319 472 -319 544.5 -310 c 132,-1,79
 617 -301 617 -301 681.5 -248 c 132,-1,80
 746 -195 746 -195 746 -100 c 4,81,82
 746 -55 746 -55 726.5 -30.5 c 132,-1,83
 707 -6 707 -6 692 -3 c 132,-1,84
 677 0 677 0 654 0 c 6,85,-1
 417 0 l 6,86,87
 270 0 270 0 206 86 c 132,-1,88
 142 172 142 172 142 283 c 4,0,1
EndSplineSet
EndChar

StartChar: omicron
Encoding: 959 959 90
Width: 1200
VWidth: 2048
GlyphClass: 2
Flags: W
LayerCount: 2
Fore
SplineSet
103 344 m 4,0,1
 103 563 103 563 289.5 742.5 c 132,-1,2
 476 922 476 922 712 922 c 4,3,4
 874 922 874 922 980 823.5 c 132,-1,5
 1086 725 1086 725 1086 565 c 4,6,7
 1086 344 1086 344 899 166 c 132,-1,8
 712 -12 712 -12 478 -12 c 4,9,10
 316 -12 316 -12 209.5 86 c 132,-1,11
 103 184 103 184 103 344 c 4,0,1
327 266 m 4,12,13
 327 178 327 178 365.5 111.5 c 132,-1,14
 404 45 404 45 492 45 c 4,15,16
 603 45 603 45 692 151.5 c 132,-1,17
 781 258 781 258 822 390 c 132,-1,18
 863 522 863 522 863 637 c 4,19,20
 863 766 863 766 813 815 c 132,-1,21
 763 864 763 864 697 864 c 4,22,23
 541 864 541 864 434 668.5 c 132,-1,24
 327 473 327 473 327 266 c 4,12,13
EndSplineSet
EndChar

StartChar: pi
Encoding: 960 960 91
Width: 1200
GlyphClass: 2
Flags: W
HStem: -18 42<866 947> 696 192<385 1230 444 524 624 848 624 624 948 948 948 1196>
LayerCount: 2
Fore
SplineSet
518 696 m 5,0,-1
 366 98 l 6,1,2
 358 65 358 65 352 52.5 c 132,-1,3
 346 40 346 40 324 18 c 4,4,5
 284 -16 284 -16 238 -16 c 4,6,7
 198 -16 198 -16 170 9 c 132,-1,8
 142 34 142 34 142 74 c 4,9,10
 142 94 142 94 148 108.5 c 132,-1,11
 154 123 154 123 180 172 c 4,12,13
 357 503 357 503 418 696 c 5,14,-1
 298 696 l 6,15,16
 128 696 128 696 52 602 c 4,17,18
 38 585 38 585 31 581.5 c 132,-1,19
 24 578 24 578 2 578 c 4,20,21
 -13 578 -13 578 -20.5 579 c 132,-1,22
 -28 580 -28 580 -36 586.5 c 132,-1,23
 -44 593 -44 593 -44 606 c 4,24,25
 -44 622 -44 622 4.5 684 c 132,-1,26
 53 746 53 746 104 792 c 4,27,28
 152 836 152 836 204 859 c 132,-1,29
 256 882 256 882 280.5 885 c 132,-1,30
 305 888 305 888 338 888 c 6,31,-1
 1124 888 l 6,32,33
 1144 888 1144 888 1157 886.5 c 132,-1,34
 1170 885 1170 885 1189.5 878.5 c 132,-1,35
 1209 872 1209 872 1219.5 854.5 c 132,-1,36
 1230 837 1230 837 1230 810 c 4,37,38
 1230 766 1230 766 1190 726 c 4,39,40
 1176 712 1176 712 1158 705 c 132,-1,41
 1140 698 1140 698 1127.5 697 c 132,-1,42
 1115 696 1115 696 1090 696 c 6,43,-1
 842 696 l 5,44,45
 830 616 830 616 830 548 c 4,46,47
 830 340 830 340 922 178 c 4,48,49
 946 138 946 138 946 112 c 4,50,51
 946 64 946 64 902 23 c 132,-1,52
 858 -18 858 -18 808 -18 c 4,53,54
 742 -18 742 -18 709 68 c 132,-1,55
 676 154 676 154 676 270 c 4,56,57
 676 417 676 417 742 696 c 5,58,-1
 518 696 l 5,0,-1
EndSplineSet
EndChar

StartChar: rho
Encoding: 961 961 92
Width: 1200
VWidth: 1000
GlyphClass: 2
Flags: W
HStem: -422 42<153 191> -16 72<556 655 543 798> 832 72<782 893>
VStem: 966 228<621 678 440 683>
LayerCount: 2
Fore
SplineSet
42 -282 m 6,0,-1
 228 458 l 6,1,2
 276 654 276 654 427 779 c 132,-1,3
 578 904 578 904 778 904 c 4,4,5
 948 904 948 904 1048 817 c 132,-1,6
 1148 730 1148 730 1148 570 c 4,7,8
 1148 470 1148 470 1108 368 c 132,-1,9
 1068 266 1068 266 997 180 c 132,-1,10
 926 94 926 94 813 39 c 132,-1,11
 700 -16 700 -16 566 -16 c 4,12,13
 434 -16 434 -16 352 62 c 5,14,15
 256 -322 256 -322 248 -342 c 4,16,17
 212 -422 212 -422 128 -422 c 4,18,19
 92 -422 92 -422 63 -400 c 132,-1,20
 34 -378 34 -378 34 -334 c 4,21,22
 34 -314 34 -314 42 -282 c 6,0,-1
464 510 m 5,23,-1
 406 274 l 6,24,25
 380 186 380 186 380 170 c 4,26,27
 380 162 380 162 391 145 c 132,-1,28
 402 128 402 128 422 107 c 132,-1,29
 442 86 442 86 480 71 c 132,-1,30
 518 56 518 56 564 56 c 4,31,32
 638 56 638 56 708 104 c 132,-1,33
 778 152 778 152 822 254 c 4,34,35
 850 324 850 324 885 463 c 132,-1,36
 920 602 920 602 920 670 c 4,37,38
 920 832 920 832 774 832 c 4,39,40
 668 832 668 832 594 754 c 4,41,42
 510 674 510 674 464 510 c 5,23,-1
EndSplineSet
EndChar

StartChar: uni03C2
Encoding: 962 962 93
Width: 1200
VWidth: 2048
GlyphClass: 2
Flags: W
LayerCount: 2
Fore
SplineSet
150 373 m 4,0,1
 150 592 150 592 310.5 757 c 132,-1,2
 471 922 471 922 707 922 c 4,3,4
 832 922 832 922 950.5 869.5 c 132,-1,5
 1069 817 1069 817 1069 741 c 4,6,7
 1069 686 1069 686 1021 642 c 132,-1,8
 973 598 973 598 922 598 c 4,9,10
 889 598 889 598 865.5 620.5 c 132,-1,11
 842 643 842 643 827.5 669.5 c 132,-1,12
 813 696 813 696 770 718.5 c 132,-1,13
 727 741 727 741 660 741 c 4,14,15
 498 741 498 741 435.5 720.5 c 132,-1,16
 373 700 373 700 328 649 c 4,17,18
 254 561 254 561 254 446 c 4,19,20
 254 307 254 307 358 242 c 4,21,22
 421 203 421 203 555 203 c 6,23,-1
 608 203 l 6,24,25
 741 203 741 203 821 143 c 4,26,27
 909 73 909 73 909 -29 c 4,28,29
 909 -154 909 -154 787.5 -254 c 132,-1,30
 666 -354 666 -354 422 -354 c 6,31,-1
 418 -354 l 6,32,33
 357 -354 357 -354 356 -309 c 4,34,35
 356 -256 356 -256 430 -256 c 4,36,37
 788 -256 788 -256 789 -100 c 4,38,39
 789 -57 789 -57 741.5 -28.5 c 132,-1,40
 694 0 694 0 596 0 c 6,41,-1
 520 0 l 6,42,43
 414 0 414 0 354 27 c 4,44,45
 262 66 262 66 206 159 c 132,-1,46
 150 252 150 252 150 373 c 4,0,1
EndSplineSet
EndChar

StartChar: sigma
Encoding: 963 963 94
Width: 1200
VWidth: 2048
GlyphClass: 2
Flags: W
LayerCount: 2
Fore
SplineSet
64 354 m 4,0,1
 64 571 64 571 239.5 746.5 c 132,-1,2
 415 922 415 922 632 922 c 4,3,4
 685 922 685 922 787.5 905.5 c 132,-1,5
 890 889 890 889 941 889 c 4,6,7
 1011 889 1011 889 1070 909.5 c 132,-1,8
 1129 930 1129 930 1163 949.5 c 132,-1,9
 1197 969 1197 969 1205 969 c 4,10,11
 1223 969 1223 969 1224 930 c 4,12,13
 1224 867 1224 867 1213.5 833 c 132,-1,14
 1203 799 1203 799 1170 764 c 4,15,16
 1107 696 1107 696 1021 686 c 5,17,18
 1044 629 1044 629 1043 553 c 4,19,20
 1043 336 1043 336 858 162 c 132,-1,21
 673 -12 673 -12 445 -12 c 4,22,23
 279 -12 279 -12 171.5 89 c 132,-1,24
 64 190 64 190 64 354 c 4,0,1
292 311 m 4,25,26
 292 188 292 188 344 124.5 c 132,-1,27
 396 61 396 61 476 61 c 4,28,29
 605 61 605 61 704.5 192.5 c 132,-1,30
 804 324 804 324 804 500 c 4,31,32
 804 631 804 631 746.5 706.5 c 132,-1,33
 689 782 689 782 595 782 c 4,34,35
 509 782 509 782 437 705.5 c 132,-1,36
 365 629 365 629 328.5 522 c 132,-1,37
 292 415 292 415 292 311 c 4,25,26
EndSplineSet
EndChar

StartChar: tau
Encoding: 964 964 95
Width: 1200
VWidth: 2048
GlyphClass: 2
Flags: W
LayerCount: 2
Fore
SplineSet
88 641 m 4,0,1
 88 664 88 664 130 733.5 c 132,-1,2
 172 803 172 803 199 836 c 4,3,4
 258 910 258 910 320 909 c 4,5,6
 334 909 334 909 601 889.5 c 132,-1,7
 868 870 868 870 893 870 c 4,8,9
 932 870 932 870 988.5 926.5 c 132,-1,10
 1045 983 1045 983 1067 983 c 4,11,12
 1085 983 1085 983 1098.5 970.5 c 132,-1,13
 1112 958 1112 958 1112 940 c 4,14,15
 1112 915 1112 915 1063 836.5 c 132,-1,16
 1014 758 1014 758 981 723 c 4,17,18
 932 672 932 672 881 672 c 4,19,20
 838 672 838 672 680 686 c 5,21,22
 524 237 524 237 522 225 c 4,23,24
 522 188 522 188 550 164.5 c 132,-1,25
 578 141 578 141 621 141 c 4,26,27
 674 141 674 141 715 170 c 132,-1,28
 756 199 756 199 778.5 234.5 c 132,-1,29
 801 270 801 270 803 270 c 4,30,31
 809 274 809 274 817 274 c 4,32,33
 831 274 831 274 842.5 260 c 132,-1,34
 854 246 854 246 854 225 c 4,35,36
 854 153 854 153 760 71.5 c 132,-1,37
 666 -10 666 -10 539 -10 c 4,38,39
 433 -10 433 -10 358 49.5 c 132,-1,40
 283 109 283 109 283 203 c 4,41,42
 283 240 283 240 296 281 c 132,-1,43
 309 322 309 322 355 443.5 c 132,-1,44
 401 565 401 565 446 702 c 5,45,46
 327 710 327 710 322 711 c 4,47,48
 277 711 277 711 242 683 c 132,-1,49
 207 655 207 655 181.5 627.5 c 132,-1,50
 156 600 156 600 131 600 c 4,51,52
 115 600 115 600 101.5 611.5 c 132,-1,53
 88 623 88 623 88 641 c 4,0,1
EndSplineSet
EndChar

StartChar: upsilon
Encoding: 965 965 96
Width: 1200
VWidth: 2048
GlyphClass: 2
Flags: W
LayerCount: 2
Fore
SplineSet
27 604 m 4,0,1
 27 676 27 676 120 799 c 132,-1,2
 213 922 213 922 344 922 c 4,3,4
 430 922 430 922 481.5 861.5 c 132,-1,5
 533 801 533 801 533 696 c 4,6,7
 533 639 533 639 485.5 460 c 132,-1,8
 438 281 438 281 438 248 c 4,9,10
 438 178 438 178 493.5 132 c 132,-1,11
 549 86 549 86 625 86 c 4,12,13
 723 86 723 86 809 170 c 132,-1,14
 895 254 895 254 937 357.5 c 132,-1,15
 979 461 979 461 979 539 c 4,16,17
 979 656 979 656 891 725 c 4,18,19
 889 727 889 727 862.5 743.5 c 132,-1,20
 836 760 836 760 825.5 774 c 132,-1,21
 815 788 815 788 815 813 c 4,22,23
 815 858 815 858 856 900 c 132,-1,24
 897 942 897 942 948 942 c 4,25,26
 1022 942 1022 942 1087.5 834.5 c 132,-1,27
 1153 727 1153 727 1153 590 c 4,28,29
 1153 350 1153 350 977 169 c 132,-1,30
 801 -12 801 -12 578 -12 c 4,31,32
 490 -12 490 -12 410 11.5 c 132,-1,33
 330 35 330 35 267.5 95.5 c 132,-1,34
 205 156 205 156 205 246 c 4,35,36
 205 285 205 285 251 461 c 132,-1,37
 297 637 297 637 297 680 c 4,38,39
 297 754 297 754 248 754 c 4,40,41
 209 754 209 754 179.5 715 c 132,-1,42
 150 676 150 676 130.5 628 c 132,-1,43
 111 580 111 580 107 575 c 4,44,45
 93 561 93 561 70 561 c 4,46,47
 27 561 27 561 27 604 c 4,0,1
EndSplineSet
EndChar

StartChar: phi
Encoding: 966 966 97
Width: 1200
VWidth: 1000
GlyphClass: 2
Flags: W
HStem: -404 42<529 554> -26 76 838 76 1348 40<952 981>
VStem: 112 206<241 324 215 475> 1168 206<564 647 411 673>
LayerCount: 2
Fore
SplineSet
868 1330 m 6,0,-1
 764 910 l 5,1,2
 982 902 982 902 1106 802 c 132,-1,3
 1230 702 1230 702 1230 540 c 4,4,5
 1230 334 1230 334 1046 165 c 132,-1,6
 862 -4 862 -4 572 -22 c 4,7,8
 536 -24 536 -24 532 -26 c 4,9,10
 528 -30 528 -30 514 -88 c 6,11,-1
 444 -368 l 6,12,13
 438 -392 438 -392 429 -398 c 132,-1,14
 420 -404 420 -404 394 -404 c 4,15,16
 348 -404 348 -404 348 -376 c 6,17,-1
 434 -22 l 5,18,19
 216 -14 216 -14 92 86 c 132,-1,20
 -32 186 -32 186 -32 348 c 4,21,22
 -32 552 -32 552 150 722 c 132,-1,23
 332 892 332 892 626 910 c 4,24,25
 658 912 658 912 666 916 c 4,26,27
 668 918 668 918 676 946 c 6,28,-1
 776 1342 l 6,29,30
 784 1374 784 1374 791 1381 c 132,-1,31
 798 1388 798 1388 828 1388 c 4,32,33
 874 1388 874 1388 874 1360 c 4,34,35
 874 1354 874 1354 868 1330 c 6,0,-1
452 50 m 5,36,-1
 650 838 l 5,37,38
 420 818 420 818 300 668 c 4,39,40
 232 582 232 582 203 473 c 132,-1,41
 174 364 174 364 174 296 c 4,42,43
 174 66 174 66 452 50 c 5,36,-1
746 838 m 5,44,-1
 548 50 l 5,45,46
 778 70 778 70 898 220 c 4,47,48
 966 306 966 306 995 415 c 132,-1,49
 1024 524 1024 524 1024 592 c 4,50,51
 1024 822 1024 822 746 838 c 5,44,-1
EndSplineSet
EndChar

StartChar: chi
Encoding: 967 967 98
Width: 1200
VWidth: 2048
GlyphClass: 2
Flags: W
LayerCount: 2
Fore
SplineSet
10 -512 m 5,0,1
 26 -485 26 -485 59 -436 c 6,2,-1
 514 250 l 6,3,4
 530 273 530 273 530 295 c 4,5,6
 477 690 477 690 446 731 c 4,7,8
 430 754 430 754 399 754 c 4,9,10
 364 754 364 754 339.5 733.5 c 132,-1,11
 315 713 315 713 303.5 687.5 c 132,-1,12
 292 662 292 662 275 641.5 c 132,-1,13
 258 621 258 621 233 621 c 4,14,15
 198 621 198 621 198 659 c 4,16,17
 198 731 198 731 283 826.5 c 132,-1,18
 368 922 368 922 475 922 c 4,19,20
 520 922 520 922 550.5 897 c 132,-1,21
 581 872 581 872 598.5 822 c 132,-1,22
 616 772 616 772 625 725 c 132,-1,23
 634 678 634 678 645.5 603 c 132,-1,24
 657 528 657 528 667 483 c 5,25,-1
 950 909 l 5,26,-1
 1183 909 l 5,27,28
 1173 893 1173 893 1153.5 863.5 c 132,-1,29
 1134 834 1134 834 1128 825 c 6,30,-1
 735 229 l 6,31,32
 717 202 717 202 716 188 c 4,33,34
 716 184 716 184 720 160 c 4,35,36
 734 78 734 78 753 -47 c 4,37,38
 784 -246 784 -246 801.5 -294 c 132,-1,39
 819 -342 819 -342 866 -342 c 4,40,41
 903 -342 903 -342 926.5 -323.5 c 132,-1,42
 950 -305 950 -305 960 -282.5 c 132,-1,43
 970 -260 970 -260 987.5 -241.5 c 132,-1,44
 1005 -223 1005 -223 1028 -223 c 4,45,46
 1065 -223 1065 -223 1065 -262 c 4,47,48
 1065 -332 1065 -332 980 -427 c 132,-1,49
 895 -522 895 -522 788 -522 c 4,50,51
 765 -522 765 -522 747 -517 c 132,-1,52
 729 -512 729 -512 713.5 -497.5 c 132,-1,53
 698 -483 698 -483 686.5 -469 c 132,-1,54
 675 -455 675 -455 665 -426 c 132,-1,55
 655 -397 655 -397 649 -376.5 c 132,-1,56
 643 -356 643 -356 634.5 -314 c 132,-1,57
 626 -272 626 -272 621 -244.5 c 132,-1,58
 616 -217 616 -217 608 -163 c 132,-1,59
 600 -109 600 -109 593 -76 c 4,60,61
 591 -64 591 -64 588 -39 c 132,-1,62
 585 -14 585 -14 583 -2 c 5,63,-1
 245 -512 l 5,64,-1
 10 -512 l 5,0,1
EndSplineSet
EndChar

StartChar: psi
Encoding: 968 968 99
Width: 1200
VWidth: 2048
GlyphClass: 2
Flags: W
LayerCount: 2
Fore
SplineSet
-56 621 m 4,0,1
 -56 691 -56 691 31 806.5 c 132,-1,2
 118 922 118 922 241 922 c 4,3,4
 329 922 329 922 372 857.5 c 132,-1,5
 415 793 415 793 415 696 c 4,6,7
 415 616 415 616 372 461.5 c 132,-1,8
 329 307 329 307 329 274 c 4,9,10
 329 143 329 143 475 96 c 5,11,12
 549 329 549 329 602 518 c 132,-1,13
 655 707 655 707 673.5 782.5 c 132,-1,14
 692 858 692 858 700 872 c 4,15,16
 714 905 714 905 747 905 c 4,17,18
 765 905 765 905 778.5 893 c 132,-1,19
 792 881 792 881 792 860 c 4,20,21
 792 852 792 852 791 845 c 132,-1,22
 790 838 790 838 788 829.5 c 132,-1,23
 786 821 786 821 781 799.5 c 132,-1,24
 776 778 776 778 767.5 748.5 c 132,-1,25
 759 719 759 719 747 662.5 c 132,-1,26
 735 606 735 606 719.5 533.5 c 132,-1,27
 704 461 704 461 680.5 347 c 132,-1,28
 657 233 657 233 630 96 c 5,29,30
 747 127 747 127 840 211 c 132,-1,31
 933 295 933 295 978.5 388 c 132,-1,32
 1024 481 1024 481 1024 563 c 4,33,34
 1024 641 1024 641 981 698.5 c 132,-1,35
 938 756 938 756 938 788 c 4,36,37
 938 837 938 837 981 882.5 c 132,-1,38
 1024 928 1024 928 1081 928 c 4,39,40
 1149 928 1149 928 1194 831.5 c 132,-1,41
 1239 735 1239 735 1239 623 c 4,42,43
 1239 365 1239 365 1048.5 195 c 132,-1,44
 858 25 858 25 612 -6 c 5,45,46
 600 -82 600 -82 588.5 -147.5 c 132,-1,47
 577 -213 577 -213 570 -253 c 132,-1,48
 563 -293 563 -293 559 -325.5 c 132,-1,49
 555 -358 555 -358 550.5 -374.5 c 132,-1,50
 546 -391 546 -391 545 -402.5 c 132,-1,51
 544 -414 544 -414 541 -422 c 132,-1,52
 538 -430 538 -430 536 -433 c 132,-1,53
 534 -436 534 -436 528 -446 c 4,54,55
 487 -516 487 -516 409 -516 c 6,56,-1
 407 -516 l 6,57,58
 366 -516 366 -516 337.5 -490.5 c 132,-1,59
 309 -465 309 -465 309 -424 c 4,60,61
 309 -416 309 -416 310 -409.5 c 132,-1,62
 311 -403 311 -403 312 -396 c 132,-1,63
 313 -389 313 -389 318 -374.5 c 132,-1,64
 323 -360 323 -360 328 -343 c 132,-1,65
 333 -326 333 -326 344.5 -294 c 132,-1,66
 356 -262 356 -262 368.5 -226 c 132,-1,67
 381 -190 381 -190 400 -131 c 132,-1,68
 419 -72 419 -72 442 -6 c 5,69,70
 301 10 301 10 198.5 78.5 c 132,-1,71
 96 147 96 147 96 276 c 4,72,73
 96 333 96 333 146 485 c 132,-1,74
 196 637 196 637 196 686 c 4,75,76
 196 754 196 754 153 754 c 4,77,78
 124 754 124 754 95.5 724 c 132,-1,79
 67 694 67 694 51 651 c 6,80,-1
 45 635 l 6,81,82
 39 617 39 617 36.5 611.5 c 132,-1,83
 34 606 34 606 27 595 c 132,-1,84
 20 584 20 584 10 579.5 c 132,-1,85
 0 575 0 575 -13 575 c 4,86,87
 -31 575 -31 575 -43.5 589 c 132,-1,88
 -56 603 -56 603 -56 621 c 4,0,1
EndSplineSet
EndChar

StartChar: omega
Encoding: 969 969 100
Width: 1200
VWidth: 2048
GlyphClass: 2
Flags: W
LayerCount: 2
Fore
SplineSet
-22 322 m 4,0,1
 -22 445 -22 445 19 551 c 132,-1,2
 60 657 60 657 119.5 722.5 c 132,-1,3
 179 788 179 788 244.5 836.5 c 132,-1,4
 310 885 310 885 356 904.5 c 132,-1,5
 402 924 402 924 421 924 c 4,6,7
 444 924 444 924 460 896 c 132,-1,8
 476 868 476 868 476 854 c 4,9,10
 476 836 476 836 445 810 c 132,-1,11
 414 784 414 784 372 750.5 c 132,-1,12
 330 717 330 717 280 627 c 132,-1,13
 230 537 230 537 199 410 c 4,14,15
 166 277 166 277 167 186 c 4,16,17
 167 51 167 51 265 51 c 4,18,19
 337 51 337 51 400.5 104.5 c 132,-1,20
 464 158 464 158 464 195 c 4,21,22
 464 201 464 201 463 221.5 c 132,-1,23
 462 242 462 242 462 260 c 4,24,25
 462 321 462 321 476 405 c 132,-1,26
 490 489 490 489 507 522 c 4,27,28
 552 606 552 606 623 606 c 4,29,30
 662 606 662 606 687.5 578.5 c 132,-1,31
 713 551 713 551 713 510 c 4,32,33
 713 465 713 465 675.5 367.5 c 132,-1,34
 638 270 638 270 593 199 c 4,35,36
 570 162 570 162 570 152 c 4,37,38
 570 138 570 138 577 117 c 132,-1,39
 584 96 584 96 611 73.5 c 132,-1,40
 638 51 638 51 679 51 c 4,41,42
 755 51 755 51 820 120.5 c 132,-1,43
 885 190 885 190 922 286.5 c 132,-1,44
 959 383 959 383 979.5 469 c 132,-1,45
 1000 555 1000 555 1000 602 c 4,46,47
 1000 676 1000 676 978.5 730 c 132,-1,48
 957 784 957 784 934.5 813 c 132,-1,49
 912 842 912 842 912 854 c 4,50,51
 912 868 912 868 938.5 896 c 132,-1,52
 965 924 965 924 988 924 c 4,53,54
 1004 924 1004 924 1039 904.5 c 132,-1,55
 1074 885 1074 885 1116 848 c 132,-1,56
 1158 811 1158 811 1187.5 742.5 c 132,-1,57
 1217 674 1217 674 1217 592 c 4,58,59
 1217 459 1217 459 1144.5 316.5 c 132,-1,60
 1072 174 1072 174 944 75.5 c 132,-1,61
 816 -23 816 -23 677 -23 c 4,62,63
 552 -23 552 -23 496 80 c 5,64,65
 455 47 455 47 428.5 28.5 c 132,-1,66
 402 10 402 10 356 -6.5 c 132,-1,67
 310 -23 310 -23 259 -23 c 4,68,69
 132 -23 132 -23 55 70.5 c 132,-1,70
 -22 164 -22 164 -22 322 c 4,0,1
EndSplineSet
EndChar

StartChar: zero
Encoding: 48 48 101
Width: 1200
GlyphClass: 1
Flags: W
LayerCount: 2
Fore
SplineSet
268.5 28 m 128,-1,1
 176 76 176 76 137 166 c 128,-1,2
 98 256 98 256 98 391 c 0,3,4
 98 521 98 521 137 747 c 0,5,6
 183 1007 183 1007 243 1157.5 c 128,-1,7
 303 1308 303 1308 421.5 1389 c 128,-1,8
 540 1470 540 1470 749 1470 c 0,9,10
 906 1470 906 1470 998 1424.5 c 128,-1,11
 1090 1379 1090 1379 1129 1292 c 128,-1,12
 1168 1205 1168 1205 1168 1071 c 0,13,14
 1168 934 1168 934 1129 713 c 0,15,16
 1084 458 1084 458 1024 305 c 128,-1,17
 964 152 964 152 844 66 c 128,-1,18
 724 -20 724 -20 517 -20 c 0,19,0
 361 -20 361 -20 268.5 28 c 128,-1,1
331 523.5 m 128,-1,21
 321 446 321 446 321 389 c 0,22,23
 321 277 321 277 366.5 226.5 c 128,-1,24
 412 176 412 176 521 176 c 0,25,26
 644 176 644 176 715.5 235.5 c 128,-1,27
 787 295 787 295 828 414 c 128,-1,28
 869 533 869 533 907 747 c 0,29,30
 925 853 925 853 934.5 923.5 c 128,-1,31
 944 994 944 994 944 1050 c 0,32,33
 944 1162 944 1162 898.5 1217 c 128,-1,34
 853 1272 853 1272 745 1272 c 0,35,36
 623 1272 623 1272 549.5 1207 c 128,-1,37
 476 1142 476 1142 435.5 1025 c 128,-1,38
 395 908 395 908 361 713 c 0,39,20
 341 601 341 601 331 523.5 c 128,-1,21
656 886 m 1,40,-1
 770 730 l 1,41,-1
 614 588 l 1,42,-1
 498 730 l 1,43,-1
 656 886 l 1,40,-1
EndSplineSet
Validated: 513
Substitution2: "'ss04' Style Set 4 lookup 44 subtable" zero.alternate
Substitution2: "'fwid' Full Widths lookup 32 subtable" uniFF10
Substitution2: "'zero' Slashed Zero lookup 31 subtable" zero.zero
Substitution2: "'onum' Oldstyle Figures lookup 25 subtable" zero.tosf
Substitution2: "'tnum' Tabular Numbers lookup 24 subtable" zero.tf
Substitution2: "'pnum' Proportional Numbers lookup 23 subtable" zero.lf
Substitution2: "'dnom' Denominators lookup 17 subtable" zero.dnom
Substitution2: "'numr' Numerators lookup 16 subtable" zero.numr
Substitution2: "'sups' Superscript lookup 15 subtable" uni2070
Substitution2: "'sinf' Scientific Inferiors lookup 14 subtable" uni2080
Substitution2: "'subs' Subscript lookup 13 subtable" uni2080
AlternateSubs2: "'aalt' Access All Alternates lookup 1 subtable" uni2080 uni2070 zero.numr zero.dnom zero.lf zero.tf zero.tosf zero.zero uniFF10 zero.alternate
EndChar

StartChar: one
Encoding: 49 49 102
Width: 1200
GlyphClass: 1
Flags: W
LayerCount: 2
Fore
SplineSet
112 200 m 1,0,-1
 454 200 l 1,1,-1
 623 1124 l 1,2,3
 514 1036 514 1036 414.5 976 c 128,-1,4
 315 916 315 916 213 887 c 1,5,-1
 239 1115 l 1,6,7
 356 1160 356 1160 477 1255.5 c 128,-1,8
 598 1351 598 1351 697 1457 c 1,9,-1
 899 1450 l 1,10,-1
 678 200 l 1,11,-1
 994 200 l 1,12,-1
 959 0 l 1,13,-1
 77 0 l 1,14,-1
 112 200 l 1,0,-1
EndSplineSet
Validated: 513
Substitution2: "'fwid' Full Widths lookup 32 subtable" uniFF11
Substitution2: "'onum' Oldstyle Figures lookup 25 subtable" one.tosf
Substitution2: "'tnum' Tabular Numbers lookup 24 subtable" one.tf
Substitution2: "'pnum' Proportional Numbers lookup 23 subtable" one.lf
Substitution2: "'dnom' Denominators lookup 17 subtable" one.dnom
Substitution2: "'numr' Numerators lookup 16 subtable" one.numr
Substitution2: "'sups' Superscript lookup 15 subtable" uni00B9
Substitution2: "'sinf' Scientific Inferiors lookup 14 subtable" uni2081
Substitution2: "'subs' Subscript lookup 13 subtable" uni2081
AlternateSubs2: "'aalt' Access All Alternates lookup 1 subtable" uni2081 uni00B9 one.numr one.dnom one.lf one.tf one.tosf uniFF11
EndChar

StartChar: two
Encoding: 50 50 103
Width: 1200
GlyphClass: 1
Flags: W
LayerCount: 2
Fore
SplineSet
233 378 m 0,1,2
 438 534 438 534 562.5 638.5 c 128,-1,3
 687 743 687 743 780.5 857.5 c 128,-1,4
 874 972 874 972 893 1079 c 0,5,6
 896 1099 896 1099 896 1117 c 0,7,8
 896 1182 896 1182 855 1221 c 128,-1,9
 814 1260 814 1260 747 1260 c 0,10,11
 682 1260 682 1260 623.5 1228 c 128,-1,12
 565 1196 565 1196 524.5 1140.5 c 128,-1,13
 484 1085 484 1085 473 1019 c 1,14,-1
 238 1037 l 1,15,16
 265 1184 265 1184 339.5 1281 c 128,-1,17
 414 1378 414 1378 523 1424 c 128,-1,18
 632 1470 632 1470 763 1470 c 0,19,20
 869 1470 869 1470 956.5 1435 c 128,-1,21
 1044 1400 1044 1400 1096.5 1326.5 c 128,-1,22
 1149 1253 1149 1253 1149 1144 c 0,23,24
 1149 1098 1149 1098 1141 1057 c 0,25,26
 1118 925 1118 925 1010.5 787 c 128,-1,27
 903 649 903 649 771.5 532.5 c 128,-1,28
 640 416 640 416 447 264 c 2,29,-1
 352 188 l 1,30,-1
 993 194 l 1,31,-1
 958 -6 l 1,32,-1
 38 -6 l 1,33,-1
 79 260 l 1,34,0
 162 325 162 325 233 378 c 0,1,2
EndSplineSet
Validated: 513
Substitution2: "'fwid' Full Widths lookup 32 subtable" uniFF12
Substitution2: "'onum' Oldstyle Figures lookup 25 subtable" two.tosf
Substitution2: "'tnum' Tabular Numbers lookup 24 subtable" two.tf
Substitution2: "'pnum' Proportional Numbers lookup 23 subtable" two.lf
Substitution2: "'dnom' Denominators lookup 17 subtable" two.dnom
Substitution2: "'numr' Numerators lookup 16 subtable" two.numr
Substitution2: "'sups' Superscript lookup 15 subtable" uni00B2
Substitution2: "'sinf' Scientific Inferiors lookup 14 subtable" uni2082
Substitution2: "'subs' Subscript lookup 13 subtable" uni2082
AlternateSubs2: "'aalt' Access All Alternates lookup 1 subtable" uni2082 uni00B2 two.numr two.dnom two.lf two.tf two.tosf uniFF12
EndChar

StartChar: three
Encoding: 51 51 104
Width: 1200
GlyphClass: 1
Flags: W
LayerCount: 2
Fore
SplineSet
333 349 m 0,1,2
 333 290 333 290 359.5 252.5 c 128,-1,3
 386 215 386 215 426.5 198.5 c 128,-1,4
 467 182 467 182 510 182 c 0,5,6
 570 182 570 182 633 208.5 c 128,-1,7
 696 235 696 235 744 290 c 128,-1,8
 792 345 792 345 806 427 c 0,9,10
 811 459 811 459 811 482 c 0,11,12
 811 593 811 593 721 659.5 c 128,-1,13
 631 726 631 726 447 726 c 1,14,-1
 467 900 l 1,15,-1
 928 1254 l 1,16,-1
 294 1254 l 1,17,-1
 329 1450 l 1,18,-1
 1225 1450 l 1,19,-1
 1182 1192 l 1,20,-1
 766 853 l 1,21,22
 909 824 909 824 986 725 c 128,-1,23
 1063 626 1063 626 1063 486 c 0,24,25
 1063 441 1063 441 1054 393 c 0,26,27
 1031 261 1031 261 943.5 167 c 128,-1,28
 856 73 856 73 737 25.5 c 128,-1,29
 618 -22 618 -22 500 -22 c 0,30,31
 389 -22 389 -22 296 15.5 c 128,-1,32
 203 53 203 53 146 131.5 c 128,-1,33
 89 210 89 210 89 327 c 0,34,35
 89 376 89 376 97 419 c 1,36,-1
 338 401 l 1,37,0
 333 369 333 369 333 349 c 0,1,2
EndSplineSet
Validated: 513
Substitution2: "'fwid' Full Widths lookup 32 subtable" uniFF13
Substitution2: "'onum' Oldstyle Figures lookup 25 subtable" three.tosf
Substitution2: "'tnum' Tabular Numbers lookup 24 subtable" three.tf
Substitution2: "'pnum' Proportional Numbers lookup 23 subtable" three.lf
Substitution2: "'dnom' Denominators lookup 17 subtable" three.dnom
Substitution2: "'numr' Numerators lookup 16 subtable" three.numr
Substitution2: "'sups' Superscript lookup 15 subtable" uni00B3
Substitution2: "'sinf' Scientific Inferiors lookup 14 subtable" uni2083
Substitution2: "'subs' Subscript lookup 13 subtable" uni2083
AlternateSubs2: "'aalt' Access All Alternates lookup 1 subtable" uni2083 uni00B3 three.numr three.dnom three.lf three.tf three.tosf uniFF13
EndChar

StartChar: four
Encoding: 52 52 105
Width: 1200
GlyphClass: 1
Flags: W
LayerCount: 2
Fore
SplineSet
628 298 m 1,0,-1
 38 298 l 1,1,-1
 77 540 l 1,2,-1
 776 1450 l 1,3,-1
 1059 1450 l 1,4,-1
 890 496 l 1,5,-1
 1096 496 l 1,6,-1
 1062 298 l 1,7,-1
 856 298 l 1,8,-1
 803 0 l 1,9,-1
 575 0 l 1,10,-1
 628 298 l 1,0,-1
664 496 m 1,11,-1
 781 1140 l 1,12,-1
 293 496 l 1,13,-1
 664 496 l 1,11,-1
EndSplineSet
Validated: 513
Substitution2: "'fwid' Full Widths lookup 32 subtable" uniFF14
Substitution2: "'onum' Oldstyle Figures lookup 25 subtable" four.tosf
Substitution2: "'tnum' Tabular Numbers lookup 24 subtable" four.tf
Substitution2: "'pnum' Proportional Numbers lookup 23 subtable" four.lf
Substitution2: "'dnom' Denominators lookup 17 subtable" four.dnom
Substitution2: "'numr' Numerators lookup 16 subtable" four.numr
Substitution2: "'sups' Superscript lookup 15 subtable" uni2074
Substitution2: "'sinf' Scientific Inferiors lookup 14 subtable" uni2084
Substitution2: "'subs' Subscript lookup 13 subtable" uni2084
AlternateSubs2: "'aalt' Access All Alternates lookup 1 subtable" uni2084 uni2074 four.numr four.dnom four.lf four.tf four.tosf uniFF14
EndChar

StartChar: five
Encoding: 53 53 106
Width: 1200
GlyphClass: 1
Flags: W
LayerCount: 2
Fore
SplineSet
308.5 17 m 128,-1,1
 213 54 213 54 157 129 c 128,-1,2
 101 204 101 204 101 312 c 0,3,4
 101 352 101 352 108 391 c 1,5,-1
 336 373 l 1,6,7
 335 363 335 363 335 345 c 0,8,9
 335 264 335 264 383.5 227 c 128,-1,10
 432 190 432 190 505 190 c 0,11,12
 576 190 576 190 640.5 227.5 c 128,-1,13
 705 265 705 265 751 336.5 c 128,-1,14
 797 408 797 408 814 505 c 0,15,16
 821 541 821 541 821 577 c 0,17,18
 821 666 821 666 776.5 715 c 128,-1,19
 732 764 732 764 653 764 c 0,20,21
 567 764 567 764 495.5 715.5 c 128,-1,22
 424 667 424 667 389 590 c 1,23,-1
 154 598 l 1,24,-1
 408 1450 l 1,25,-1
 1175 1450 l 1,26,-1
 1139 1246 l 1,27,-1
 574 1246 l 1,28,-1
 437 836 l 1,29,30
 504 904 504 904 573 937 c 128,-1,31
 642 970 642 970 721 970 c 0,32,33
 832 970 832 970 909.5 922 c 128,-1,34
 987 874 987 874 1026.5 788 c 128,-1,35
 1066 702 1066 702 1066 590 c 0,36,37
 1066 526 1066 526 1055 467 c 0,38,39
 1030 324 1030 324 953.5 213.5 c 128,-1,40
 877 103 877 103 765 41.5 c 128,-1,41
 653 -20 653 -20 523 -20 c 0,42,0
 404 -20 404 -20 308.5 17 c 128,-1,1
EndSplineSet
Validated: 513
Substitution2: "'fwid' Full Widths lookup 32 subtable" uniFF15
Substitution2: "'onum' Oldstyle Figures lookup 25 subtable" five.tosf
Substitution2: "'tnum' Tabular Numbers lookup 24 subtable" five.tf
Substitution2: "'pnum' Proportional Numbers lookup 23 subtable" five.lf
Substitution2: "'dnom' Denominators lookup 17 subtable" five.dnom
Substitution2: "'numr' Numerators lookup 16 subtable" five.numr
Substitution2: "'sups' Superscript lookup 15 subtable" uni2075
Substitution2: "'sinf' Scientific Inferiors lookup 14 subtable" uni2085
Substitution2: "'subs' Subscript lookup 13 subtable" uni2085
AlternateSubs2: "'aalt' Access All Alternates lookup 1 subtable" uni2085 uni2075 five.numr five.dnom five.lf five.tf five.tosf uniFF15
EndChar

StartChar: six
Encoding: 54 54 107
Width: 1200
GlyphClass: 1
Flags: W
LayerCount: 2
Fore
SplineSet
221 109 m 128,-1,1
 125 240 125 240 125 462 c 0,2,3
 125 580 125 580 150 719 c 0,4,5
 185 919 185 919 263 1088 c 128,-1,6
 341 1257 341 1257 469.5 1363.5 c 128,-1,7
 598 1470 598 1470 773 1470 c 0,8,9
 894 1470 894 1470 987 1421 c 128,-1,10
 1080 1372 1080 1372 1123 1293 c 1,11,-1
 964 1181 l 1,12,13
 940 1221 940 1221 888.5 1244.5 c 128,-1,14
 837 1268 837 1268 770 1268 c 0,15,16
 495 1268 495 1268 390 737 c 1,17,18
 457 848 457 848 539 897 c 128,-1,19
 621 946 621 946 727 946 c 256,20,21
 833 946 833 946 911 896 c 128,-1,22
 989 846 989 846 1030.5 757.5 c 128,-1,23
 1072 669 1072 669 1072 558 c 0,24,25
 1072 501 1072 501 1062 447 c 0,26,27
 1038 313 1038 313 963.5 206 c 128,-1,28
 889 99 889 99 776.5 38.5 c 128,-1,29
 664 -22 664 -22 532 -22 c 0,30,0
 317 -22 317 -22 221 109 c 128,-1,1
358 372 m 0,32,33
 358 285 358 285 404.5 233.5 c 128,-1,34
 451 182 451 182 538 182 c 0,35,36
 654 182 654 182 730.5 261.5 c 128,-1,37
 807 341 807 341 830 469 c 0,38,39
 837 507 837 507 837 548 c 0,40,41
 837 636 837 636 797 689 c 128,-1,42
 757 742 757 742 673 742 c 0,43,44
 596 742 596 742 531 700 c 128,-1,45
 466 658 466 658 422 587.5 c 128,-1,46
 378 517 378 517 363 433 c 0,47,31
 358 407 358 407 358 372 c 0,32,33
EndSplineSet
Validated: 513
Substitution2: "'fwid' Full Widths lookup 32 subtable" uniFF16
Substitution2: "'onum' Oldstyle Figures lookup 25 subtable" six.tosf
Substitution2: "'tnum' Tabular Numbers lookup 24 subtable" six.tf
Substitution2: "'pnum' Proportional Numbers lookup 23 subtable" six.lf
Substitution2: "'dnom' Denominators lookup 17 subtable" six.dnom
Substitution2: "'numr' Numerators lookup 16 subtable" six.numr
Substitution2: "'sups' Superscript lookup 15 subtable" uni2076
Substitution2: "'sinf' Scientific Inferiors lookup 14 subtable" uni2086
Substitution2: "'subs' Subscript lookup 13 subtable" uni2086
AlternateSubs2: "'aalt' Access All Alternates lookup 1 subtable" uni2086 uni2076 six.numr six.dnom six.lf six.tf six.tosf uniFF16
EndChar

StartChar: seven
Encoding: 55 55 108
Width: 1200
GlyphClass: 1
Flags: W
LayerCount: 2
Fore
SplineSet
957 1240 m 1,0,-1
 260 1240 l 1,1,-1
 297 1450 l 1,2,-1
 1235 1450 l 1,3,-1
 1200 1240 l 1,4,-1
 434 0 l 1,5,-1
 188 0 l 1,6,-1
 957 1240 l 1,0,-1
EndSplineSet
Validated: 513
Substitution2: "'fwid' Full Widths lookup 32 subtable" uniFF17
Substitution2: "'onum' Oldstyle Figures lookup 25 subtable" seven.tosf
Substitution2: "'tnum' Tabular Numbers lookup 24 subtable" seven.tf
Substitution2: "'pnum' Proportional Numbers lookup 23 subtable" seven.lf
Substitution2: "'dnom' Denominators lookup 17 subtable" seven.dnom
Substitution2: "'numr' Numerators lookup 16 subtable" seven.numr
Substitution2: "'sups' Superscript lookup 15 subtable" uni2077
Substitution2: "'sinf' Scientific Inferiors lookup 14 subtable" uni2087
Substitution2: "'subs' Subscript lookup 13 subtable" uni2087
AlternateSubs2: "'aalt' Access All Alternates lookup 1 subtable" uni2087 uni2077 seven.numr seven.dnom seven.lf seven.tf seven.tosf uniFF17
EndChar

StartChar: eight
Encoding: 56 56 109
Width: 1200
GlyphClass: 1
Flags: W
LayerCount: 2
Fore
SplineSet
303.5 22.5 m 128,-1,1
 204 61 204 61 143 141 c 128,-1,2
 82 221 82 221 82 339 c 0,3,4
 82 375 82 375 90 423 c 0,5,6
 106 514 106 514 154 585.5 c 128,-1,7
 202 657 202 657 266.5 704.5 c 128,-1,8
 331 752 331 752 400 777 c 1,9,10
 271 866 271 866 271 1027 c 0,11,12
 271 1063 271 1063 279 1109 c 0,13,14
 300 1228 300 1228 374.5 1309.5 c 128,-1,15
 449 1391 449 1391 550.5 1430.5 c 128,-1,16
 652 1470 652 1470 753 1470 c 0,17,18
 853 1470 853 1470 938.5 1435 c 128,-1,19
 1024 1400 1024 1400 1075.5 1330 c 128,-1,20
 1127 1260 1127 1260 1127 1158 c 0,21,22
 1127 1119 1127 1119 1120 1083 c 0,23,24
 1099 966 1099 966 1033 885 c 128,-1,25
 967 804 967 804 881 764 c 1,26,27
 962 720 962 720 1016.5 645 c 128,-1,28
 1071 570 1071 570 1071 466 c 0,29,30
 1071 434 1071 434 1065 399 c 0,31,32
 1040 257 1040 257 955.5 163.5 c 128,-1,33
 871 70 871 70 756 27 c 128,-1,34
 641 -16 641 -16 519 -16 c 0,35,0
 403 -16 403 -16 303.5 22.5 c 128,-1,1
323 351 m 0,37,38
 323 267 323 267 378 220.5 c 128,-1,39
 433 174 433 174 520 174 c 0,40,41
 590 174 590 174 657 205.5 c 128,-1,42
 724 237 724 237 772 296 c 128,-1,43
 820 355 820 355 833 433 c 0,44,45
 838 465 838 465 838 486 c 0,46,47
 838 573 838 573 781.5 616.5 c 128,-1,48
 725 660 725 660 637 660 c 0,49,50
 564 660 564 660 499 630 c 128,-1,51
 434 600 434 600 388 541 c 128,-1,52
 342 482 342 482 327 397 c 0,53,36
 323 376 323 376 323 351 c 0,37,38
488 1026 m 0,55,56
 488 959 488 959 529 925.5 c 128,-1,57
 570 892 570 892 647 892 c 0,58,59
 744 892 744 892 814 948.5 c 128,-1,60
 884 1005 884 1005 903 1109 c 0,61,62
 907 1132 907 1132 907 1155 c 0,63,64
 907 1225 907 1225 865.5 1260.5 c 128,-1,65
 824 1296 824 1296 749 1296 c 0,66,67
 650 1296 650 1296 580.5 1237.5 c 128,-1,68
 511 1179 511 1179 492 1073 c 0,69,54
 488 1050 488 1050 488 1026 c 0,55,56
EndSplineSet
Validated: 513
Substitution2: "'fwid' Full Widths lookup 32 subtable" uniFF18
Substitution2: "'onum' Oldstyle Figures lookup 25 subtable" eight.tosf
Substitution2: "'tnum' Tabular Numbers lookup 24 subtable" eight.tf
Substitution2: "'pnum' Proportional Numbers lookup 23 subtable" eight.lf
Substitution2: "'dnom' Denominators lookup 17 subtable" eight.dnom
Substitution2: "'numr' Numerators lookup 16 subtable" eight.numr
Substitution2: "'sups' Superscript lookup 15 subtable" uni2078
Substitution2: "'sinf' Scientific Inferiors lookup 14 subtable" uni2088
Substitution2: "'subs' Subscript lookup 13 subtable" uni2088
AlternateSubs2: "'aalt' Access All Alternates lookup 1 subtable" uni2088 uni2078 eight.numr eight.dnom eight.lf eight.tf eight.tosf uniFF18
EndChar

StartChar: nine
Encoding: 57 57 110
Width: 1200
GlyphClass: 1
Flags: W
LayerCount: 2
Fore
SplineSet
282.5 20.5 m 128,-1,1
 195 57 195 57 146 124 c 128,-1,2
 97 191 97 191 88 282 c 1,3,-1
 291 354 l 1,4,5
 307 261 307 261 361 220.5 c 128,-1,6
 415 180 415 180 500 180 c 0,7,8
 619 180 619 180 696 263.5 c 128,-1,9
 773 347 773 347 814 463 c 128,-1,10
 855 579 855 579 884 723 c 1,11,12
 819 629 819 629 735.5 587.5 c 128,-1,13
 652 546 652 546 545 546 c 0,14,15
 431 546 431 546 348.5 592.5 c 128,-1,16
 266 639 266 639 222.5 722.5 c 128,-1,17
 179 806 179 806 179 915 c 0,18,19
 179 965 179 965 188 1017 c 0,20,21
 211 1147 211 1147 291.5 1250.5 c 128,-1,22
 372 1354 372 1354 486.5 1412 c 128,-1,23
 601 1470 601 1470 723 1470 c 0,24,25
 953 1470 953 1470 1058 1352.5 c 128,-1,26
 1163 1235 1163 1235 1163 1020 c 0,27,28
 1163 918 1163 918 1142 799 c 0,29,30
 1097 542 1097 542 1019 363 c 128,-1,31
 941 184 941 184 811.5 84 c 128,-1,32
 682 -16 682 -16 491 -16 c 0,33,0
 370 -16 370 -16 282.5 20.5 c 128,-1,1
425 925 m 0,35,36
 425 839 425 839 470.5 787.5 c 128,-1,37
 516 736 516 736 602 736 c 0,38,39
 684 736 684 736 748.5 772.5 c 128,-1,40
 813 809 813 809 854.5 874 c 128,-1,41
 896 939 896 939 911 1023 c 0,42,43
 917 1056 917 1056 917 1085 c 0,44,45
 917 1172 917 1172 870 1224 c 128,-1,46
 823 1276 823 1276 737 1276 c 0,47,48
 662 1276 662 1276 597.5 1239 c 128,-1,49
 533 1202 533 1202 489.5 1137 c 128,-1,50
 446 1072 446 1072 431 989 c 0,51,34
 425 956 425 956 425 925 c 0,35,36
EndSplineSet
Validated: 513
Substitution2: "'fwid' Full Widths lookup 32 subtable" uniFF19
Substitution2: "'onum' Oldstyle Figures lookup 25 subtable" nine.tosf
Substitution2: "'tnum' Tabular Numbers lookup 24 subtable" nine.tf
Substitution2: "'pnum' Proportional Numbers lookup 23 subtable" nine.lf
Substitution2: "'dnom' Denominators lookup 17 subtable" nine.dnom
Substitution2: "'numr' Numerators lookup 16 subtable" nine.numr
Substitution2: "'sups' Superscript lookup 15 subtable" uni2079
Substitution2: "'sinf' Scientific Inferiors lookup 14 subtable" uni2089
Substitution2: "'subs' Subscript lookup 13 subtable" uni2089
AlternateSubs2: "'aalt' Access All Alternates lookup 1 subtable" uni2089 uni2079 nine.numr nine.dnom nine.lf nine.tf nine.tosf uniFF19
EndChar

StartChar: underscore
Encoding: 95 95 111
Width: 1200
GlyphClass: 1
Flags: W
LayerCount: 2
Fore
SplineSet
38 130 m 1,0,-1
 1014 130 l 1,1,-1
 980 -62 l 1,2,-1
 4 -62 l 1,3,-1
 38 130 l 1,0,-1
EndSplineSet
Substitution2: "Single Substitution lookup 78 subtable" underscore.alternate
Substitution2: "Single Substitution lookup 70 subtable" underscore.alternate
Substitution2: "'fwid' Full Widths lookup 32 subtable" uniFF3F
AlternateSubs2: "'aalt' Access All Alternates lookup 1 subtable" uniFF3F underscore.alternate
EndChar

StartChar: asterisk
Encoding: 42 42 112
Width: 1200
VWidth: 2048
Flags: W
LayerCount: 2
Fore
SplineSet
64.7998046875 218.900390625 m 4,0,1
 64.7998046875 289.700195312 64.7998046875 289.700195312 138 314.900390625 c 6,2,-1
 484.799804688 434.900390625 l 5,3,-1
 138 556.099609375 l 6,4,5
 64.7998046875 580.099609375 64.7998046875 580.099609375 64.7998046875 652.099609375 c 4,6,7
 64.7998046875 703.700195312 64.7998046875 703.700195312 99 736.700195312 c 132,-1,8
 133.200195312 769.700195312 133.200195312 769.700195312 172.799804688 769.700195312 c 4,9,10
 202.799804688 769.700195312 202.799804688 769.700195312 238.799804688 742.099609375 c 6,11,-1
 541.200195312 514.099609375 l 5,12,-1
 487.200195312 828.5 l 6,13,14
 480 868.099609375 480 868.099609375 480 884.900390625 c 4,15,16
 480 931.700195312 480 931.700195312 514.200195312 956.299804688 c 132,-1,17
 548.400390625 980.900390625 548.400390625 980.900390625 588 980.900390625 c 132,-1,18
 627.599609375 980.900390625 627.599609375 980.900390625 661.799804688 957.5 c 132,-1,19
 696 934.099609375 696 934.099609375 696 884.900390625 c 4,20,21
 696 868.099609375 696 868.099609375 688.799804688 828.5 c 6,22,-1
 634.799804688 514.099609375 l 5,23,-1
 937.200195312 742.099609375 l 6,24,25
 974.400390625 769.700195312 974.400390625 769.700195312 1003.20019531 769.700195312 c 4,26,27
 1042.79980469 769.700195312 1042.79980469 769.700195312 1077 736.700195312 c 132,-1,28
 1111.20019531 703.700195312 1111.20019531 703.700195312 1111.20019531 652.099609375 c 4,29,30
 1111.20019531 581.299804688 1111.20019531 581.299804688 1038 556.099609375 c 6,31,-1
 691.200195312 434.900390625 l 5,32,-1
 1038 314.900390625 l 6,33,34
 1111.20019531 290.900390625 1111.20019531 290.900390625 1111.20019531 218.900390625 c 4,35,36
 1111.20019531 167.299804688 1111.20019531 167.299804688 1077 134.299804688 c 132,-1,37
 1042.79980469 101.299804688 1042.79980469 101.299804688 1003.20019531 101.299804688 c 4,38,39
 970.799804688 101.299804688 970.799804688 101.299804688 937.200195312 127.700195312 c 6,40,-1
 637.200195312 354.5 l 5,41,-1
 668.400390625 164.900390625 l 6,42,43
 696 -4.2998046875 696 -4.2998046875 696 -13.900390625 c 4,44,45
 696 -60.7001953125 696 -60.7001953125 661.799804688 -85.2998046875 c 132,-1,46
 627.599609375 -109.900390625 627.599609375 -109.900390625 588 -109.900390625 c 132,-1,47
 548.400390625 -109.900390625 548.400390625 -109.900390625 514.200195312 -86.5 c 132,-1,48
 480 -63.099609375 480 -63.099609375 480 -13.900390625 c 4,49,50
 480 2.900390625 480 2.900390625 487.200195312 42.5 c 6,51,-1
 541.200195312 356.900390625 l 5,52,-1
 238.799804688 127.700195312 l 6,53,54
 201.599609375 100.099609375 201.599609375 100.099609375 172.799804688 101.299804688 c 4,55,56
 133.200195312 101.299804688 133.200195312 101.299804688 99 134.299804688 c 132,-1,57
 64.7998046875 167.299804688 64.7998046875 167.299804688 64.7998046875 218.900390625 c 4,0,1
EndSplineSet
EndChar

StartChar: plus
Encoding: 43 43 113
Width: 1200
Flags: W
LayerCount: 2
Fore
SplineSet
476 432 m 1,0,-1
 110 432 l 1,1,-1
 110 664 l 1,2,-1
 476 664 l 1,3,-1
 476 1054 l 1,4,-1
 724 1054 l 1,5,-1
 724 664 l 1,6,-1
 1088 664 l 1,7,-1
 1088 432 l 1,8,-1
 724 432 l 1,9,-1
 724 48 l 1,10,-1
 476 48 l 1,11,-1
 476 432 l 1,0,-1
EndSplineSet
Validated: 1
EndChar

StartChar: hyphen
Encoding: 45 45 114
Width: 1200
Flags: W
LayerCount: 2
Fore
SplineSet
200 662 m 1,0,-1
 1002 662 l 1,1,-1
 1002 442 l 1,2,-1
 200 442 l 1,3,-1
 200 662 l 1,0,-1
EndSplineSet
Validated: 1
EndChar
